MontaguSlab-Thin.ufo
<glyph name="quotedbl" format="2">
  <advance width="613"/>
  <unicode hex="0022"/>
  <outline>
    <contour>
      <point x="126" y="1208" type="curve"/>
      <point x="169" y="1208" type="line"/>
      <point x="226" y="1289"/>
      <point x="247" y="1364"/>
      <point x="247" y="1435" type="curve" smooth="yes"/>
      <point x="247" y="1492"/>
      <point x="220" y="1516"/>
      <point x="184" y="1516" type="curve" smooth="yes"/>
      <point x="152" y="1516"/>
      <point x="126" y="1498"/>
      <point x="126" y="1459" type="curve" smooth="yes"/>
      <point x="126" y="1421"/>
      <point x="156" y="1400"/>
      <point x="202" y="1400" type="curve"/>
      <point x="196" y="1332"/>
      <point x="175" y="1282"/>
    </contour>
    <contour>
      <point x="366" y="1208" type="curve"/>
      <point x="409" y="1208" type="line"/>
      <point x="466" y="1289"/>
      <point x="487" y="1364"/>
      <point x="487" y="1435" type="curve" smooth="yes"/>
      <point x="487" y="1492"/>
      <point x="460" y="1516"/>
      <point x="424" y="1516" type="curve" smooth="yes"/>
      <point x="392" y="1516"/>
      <point x="366" y="1498"/>
      <point x="366" y="1459" type="curve" smooth="yes"/>
      <point x="366" y="1421"/>
      <point x="396" y="1400"/>
      <point x="442" y="1400" type="curve"/>
      <point x="436" y="1332"/>
      <point x="415" y="1282"/>
    </contour>
  </outline>
</glyph>
<glyph name="parenright" format="2">
  <advance width="652"/>
  <unicode hex="0029"/>
  <outline>
    <contour>
      <point x="416" y="590" type="curve"/>
      <point x="464" y="590" type="line"/>
      <point x="462" y="1056"/>
      <point x="282" y="1373"/>
      <point x="110" y="1600" type="curve"/>
      <point x="58" y="1600" type="line"/>
      <point x="243" y="1352"/>
      <point x="416" y="1042"/>
    </contour>
    <contour>
      <point x="58" y="-420" type="curve"/>
      <point x="110" y="-420" type="line"/>
      <point x="282" y="-197"/>
      <point x="462" y="124"/>
      <point x="464" y="590" type="curve"/>
      <point x="416" y="590" type="line"/>
      <point x="416" y="138"/>
      <point x="243" y="-177"/>
    </contour>
  </outline>
</glyph>
<glyph name="hyphen" format="2">
  <advance width="956"/>
  <unicode hex="002D"/>
  <outline>
    <contour>
      <point x="160" y="560" type="line"/>
      <point x="796" y="560" type="line"/>
      <point x="796" y="602" type="line"/>
      <point x="160" y="602" type="line"/>
    </contour>
  </outline>
</glyph>
<glyph name="slash" format="2">
  <advance width="564"/>
  <unicode hex="002F"/>
  <outline>
    <contour>
      <point x="64" y="0" type="line"/>
      <point x="109" y="0" type="line"/>
      <point x="500" y="1500" type="line"/>
      <point x="455" y="1500" type="line"/>
    </contour>
  </outline>
</glyph>
<glyph name="four" format="2">
  <advance width="1408"/>
  <unicode hex="0034"/>
  <outline>
    <contour>
      <point x="528" y="0" type="line"/>
      <point x="1138" y="0" type="line"/>
      <point x="1138" y="42" type="line"/>
      <point x="922" y="42" type="line"/>
      <point x="922" y="1500" type="line"/>
      <point x="876" y="1500" type="line"/>
      <point x="874" y="1458" type="line"/>
      <point x="874" y="42" type="line"/>
      <point x="528" y="42" type="line"/>
    </contour>
    <contour>
      <point x="56" y="460" type="line"/>
      <point x="1292" y="460" type="line"/>
      <point x="1292" y="498" type="line"/>
      <point x="106" y="498" type="line"/>
      <point x="56" y="494" type="line"/>
    </contour>
    <contour>
      <point x="56" y="494" type="line"/>
      <point x="108" y="494" type="line"/>
      <point x="877" y="1438" type="line"/>
      <point x="876" y="1500" type="line"/>
    </contour>
  </outline>
</glyph>
<glyph name="colon" format="2">
  <advance width="370"/>
  <unicode hex="003A"/>
  <outline>
    <contour>
      <point x="185" y="992" type="curve" smooth="yes"/>
      <point x="221" y="992"/>
      <point x="244" y="1018"/>
      <point x="244" y="1054" type="curve" smooth="yes"/>
      <point x="244" y="1090"/>
      <point x="221" y="1116"/>
      <point x="185" y="1116" type="curve" smooth="yes"/>
      <point x="149" y="1116"/>
      <point x="126" y="1090"/>
      <point x="126" y="1054" type="curve" smooth="yes"/>
      <point x="126" y="1018"/>
      <point x="149" y="992"/>
    </contour>
    <contour>
      <point x="185" y="-16" type="curve" smooth="yes"/>
      <point x="221" y="-16"/>
      <point x="244" y="10"/>
      <point x="244" y="46" type="curve" smooth="yes"/>
      <point x="244" y="82"/>
      <point x="221" y="108"/>
      <point x="185" y="108" type="curve" smooth="yes"/>
      <point x="149" y="108"/>
      <point x="126" y="82"/>
      <point x="126" y="46" type="curve" smooth="yes"/>
      <point x="126" y="10"/>
      <point x="149" y="-16"/>
    </contour>
  </outline>
</glyph>
<glyph name="semicolon" format="2">
  <advance width="379"/>
  <unicode hex="003B"/>
  <outline>
    <contour>
      <point x="185" y="992" type="curve" smooth="yes"/>
      <point x="221" y="992"/>
      <point x="244" y="1018"/>
      <point x="244" y="1054" type="curve" smooth="yes"/>
      <point x="244" y="1090"/>
      <point x="221" y="1116"/>
      <point x="185" y="1116" type="curve" smooth="yes"/>
      <point x="149" y="1116"/>
      <point x="126" y="1090"/>
      <point x="126" y="1054" type="curve" smooth="yes"/>
      <point x="126" y="1018"/>
      <point x="149" y="992"/>
    </contour>
    <contour>
      <point x="132" y="-200" type="curve"/>
      <point x="175" y="-200" type="line"/>
      <point x="232" y="-119"/>
      <point x="253" y="-44"/>
      <point x="253" y="27" type="curve" smooth="yes"/>
      <point x="253" y="84"/>
      <point x="221" y="108"/>
      <point x="185" y="108" type="curve" smooth="yes"/>
      <point x="153" y="108"/>
      <point x="126" y="89"/>
      <point x="126" y="51" type="curve" smooth="yes"/>
      <point x="126" y="13"/>
      <point x="154" y="-12"/>
      <point x="208" y="-12" type="curve"/>
      <point x="202" y="-80"/>
      <point x="181" y="-126"/>
    </contour>
  </outline>
</glyph>
<glyph name="equal" format="2">
  <advance width="1222"/>
  <unicode hex="003D"/>
  <outline>
    <contour>
      <point x="160" y="942" type="line"/>
      <point x="1062" y="942" type="line"/>
      <point x="1062" y="984" type="line"/>
      <point x="160" y="984" type="line"/>
    </contour>
    <contour>
      <point x="160" y="522" type="line"/>
      <point x="1062" y="522" type="line"/>
      <point x="1062" y="564" type="line"/>
      <point x="160" y="564" type="line"/>
    </contour>
  </outline>
</glyph>
<glyph name="D" format="2">
  <advance width="1680"/>
  <unicode hex="0044"/>
  <anchor x="790" y="0" name="bottom"/>
  <anchor x="310" y="750" name="stroke"/>
  <anchor x="790" y="1500" name="top"/>
  <outline>
    <contour>
      <point x="358" y="0" type="line"/>
      <point x="756" y="0" type="line" smooth="yes"/>
      <point x="1230" y="0"/>
      <point x="1542" y="275"/>
      <point x="1542" y="750" type="curve" smooth="yes"/>
      <point x="1542" y="1225"/>
      <point x="1230" y="1500"/>
      <point x="756" y="1500" type="curve" smooth="yes"/>
      <point x="358" y="1500" type="line"/>
      <point x="358" y="1456" type="line"/>
      <point x="756" y="1456" type="line" smooth="yes"/>
      <point x="1202" y="1456"/>
      <point x="1494" y="1181"/>
      <point x="1494" y="750" type="curve" smooth="yes"/>
      <point x="1494" y="319"/>
      <point x="1202" y="44"/>
      <point x="756" y="44" type="curve" smooth="yes"/>
      <point x="358" y="44" type="line"/>
    </contour>
    <contour>
      <point x="72" y="0" type="line"/>
      <point x="358" y="0" type="line"/>
      <point x="358" y="1500" type="line"/>
      <point x="77" y="1500" type="line"/>
      <point x="77" y="1458" type="line"/>
      <point x="310" y="1458" type="line"/>
      <point x="310" y="42" type="line"/>
      <point x="72" y="42" type="line"/>
    </contour>
  </outline>
</glyph>
<glyph name="F" format="2">
  <advance width="1450"/>
  <unicode hex="0046"/>
  <outline>
    <contour>
      <point x="72" y="0" type="line"/>
      <point x="704" y="0" type="line"/>
      <point x="704" y="42" type="line"/>
      <point x="358" y="42" type="line"/>
      <point x="358" y="1500" type="line"/>
      <point x="77" y="1500" type="line"/>
      <point x="77" y="1458" type="line"/>
      <point x="310" y="1458" type="line"/>
      <point x="310" y="42" type="line"/>
      <point x="72" y="42" type="line"/>
    </contour>
    <contour>
      <point x="876" y="628" type="curve" smooth="yes"/>
      <point x="876" y="386" type="line"/>
      <point x="918" y="386" type="line"/>
      <point x="918" y="750" type="line"/>
      <point x="758" y="750" type="line" smooth="yes"/>
      <point x="852" y="750"/>
      <point x="876" y="726"/>
    </contour>
    <contour>
      <point x="358" y="750" type="line"/>
      <point x="918" y="750" type="line"/>
      <point x="918" y="794" type="line"/>
      <point x="358" y="794" type="line"/>
    </contour>
    <contour>
      <point x="758" y="794" type="curve" smooth="yes"/>
      <point x="918" y="794" type="line"/>
      <point x="918" y="1146" type="line"/>
      <point x="876" y="1146" type="line"/>
      <point x="876" y="916" type="line" smooth="yes"/>
      <point x="876" y="818"/>
      <point x="852" y="794"/>
    </contour>
    <contour>
      <point x="358" y="1456" type="line"/>
      <point x="1338" y="1456" type="line"/>
      <point x="1338" y="1500" type="line"/>
      <point x="358" y="1500" type="line"/>
    </contour>
    <contour>
      <point x="1294" y="1326" type="curve" smooth="yes"/>
      <point x="1294" y="1000" type="line"/>
      <point x="1338" y="1000" type="line"/>
      <point x="1338" y="1456" type="line"/>
      <point x="1168" y="1456" type="line" smooth="yes"/>
      <point x="1268" y="1456"/>
      <point x="1294" y="1430"/>
    </contour>
  </outline>
</glyph>
<glyph name="H" format="2">
  <advance width="1752"/>
  <unicode hex="0048"/>
  <anchor x="876" y="0" name="bottom"/>
  <anchor x="876" y="750" name="center"/>
  <anchor x="876" y="1500" name="top"/>
  <anchor x="20" y="1500" name="topleft"/>
  <outline>
    <contour>
      <point x="72" y="0" type="line"/>
      <point x="617" y="0" type="line"/>
      <point x="617" y="42" type="line"/>
      <point x="358" y="42" type="line"/>
      <point x="358" y="1458" type="line"/>
      <point x="613" y="1458" type="line"/>
      <point x="613" y="1500" type="line"/>
      <point x="77" y="1500" type="line"/>
      <point x="77" y="1458" type="line"/>
      <point x="310" y="1458" type="line"/>
      <point x="310" y="42" type="line"/>
      <point x="72" y="42" type="line"/>
    </contour>
    <contour>
      <point x="1135" y="0" type="line"/>
      <point x="1680" y="0" type="line"/>
      <point x="1680" y="42" type="line"/>
      <point x="1442" y="42" type="line"/>
      <point x="1442" y="1458" type="line"/>
      <point x="1675" y="1458" type="line"/>
      <point x="1675" y="1500" type="line"/>
      <point x="1139" y="1500" type="line"/>
      <point x="1139" y="1458" type="line"/>
      <point x="1394" y="1458" type="line"/>
      <point x="1394" y="42" type="line"/>
      <point x="1135" y="42" type="line"/>
    </contour>
    <contour>
      <point x="358" y="738" type="line"/>
      <point x="1394" y="738" type="line"/>
      <point x="1394" y="782" type="line"/>
      <point x="358" y="782" type="line"/>
    </contour>
  </outline>
</glyph>
<glyph name="I" format="2">
  <advance width="702"/>
  <unicode hex="0049"/>
  <anchor x="351" y="0" name="bottom"/>
  <anchor x="481" y="0" name="ogonek"/>
  <anchor x="351" y="1500" name="top"/>
  <anchor x="20" y="1500" name="topleft"/>
  <outline>
    <contour>
      <point x="68" y="0" type="line"/>
      <point x="634" y="0" type="line"/>
      <point x="634" y="42" type="line"/>
      <point x="375" y="42" type="line"/>
      <point x="375" y="1458" type="line"/>
      <point x="630" y="1458" type="line"/>
      <point x="630" y="1500" type="line"/>
      <point x="72" y="1500" type="line"/>
      <point x="72" y="1458" type="line"/>
      <point x="327" y="1458" type="line"/>
      <point x="327" y="42" type="line"/>
      <point x="68" y="42" type="line"/>
    </contour>
  </outline>
</glyph>
<glyph name="K" format="2">
  <advance width="1639"/>
  <unicode hex="004B"/>
  <anchor x="820" y="0" name="bottom"/>
  <anchor x="820" y="1500" name="top"/>
  <outline>
    <contour>
      <point x="349" y="551" type="line"/>
      <point x="1359" y="1458" type="line"/>
      <point x="1520" y="1458" type="line"/>
      <point x="1520" y="1500" type="line"/>
      <point x="1022" y="1500" type="line"/>
      <point x="1022" y="1458" type="line"/>
      <point x="1293" y="1458" type="line"/>
      <point x="324" y="585" type="line"/>
    </contour>
    <contour>
      <point x="72" y="0" type="line"/>
      <point x="617" y="0" type="line"/>
      <point x="617" y="42" type="line"/>
      <point x="358" y="42" type="line"/>
      <point x="358" y="1458" type="line"/>
      <point x="613" y="1458" type="line"/>
      <point x="613" y="1500" type="line"/>
      <point x="77" y="1500" type="line"/>
      <point x="77" y="1458" type="line"/>
      <point x="310" y="1458" type="line"/>
      <point x="310" y="42" type="line"/>
      <point x="72" y="42" type="line"/>
    </contour>
    <contour>
      <point x="1081" y="0" type="line"/>
      <point x="1591" y="0" type="line"/>
      <point x="1591" y="42" type="line"/>
      <point x="1424" y="42" type="line"/>
      <point x="637" y="835" type="line"/>
      <point x="604" y="806" type="line"/>
      <point x="1359" y="42" type="line"/>
      <point x="1081" y="42" type="line"/>
    </contour>
  </outline>
</glyph>
<glyph name="M" format="2">
  <advance width="2170"/>
  <unicode hex="004D"/>
  <anchor x="1083" y="0" name="bottom"/>
  <anchor x="1085" y="1500" name="top"/>
  <outline>
    <contour>
      <point x="1065" y="0" type="line"/>
      <point x="1101" y="0" type="line"/>
      <point x="1812" y="1430" type="line"/>
      <point x="1812" y="1500" type="line"/>
      <point x="1798" y="1500" type="line"/>
      <point x="1078" y="52" type="line"/>
      <point x="1093" y="52" type="line"/>
      <point x="376" y="1500" type="line"/>
      <point x="354" y="1500" type="line"/>
      <point x="354" y="1437" type="line"/>
    </contour>
    <contour>
      <point x="72" y="0" type="line"/>
      <point x="613" y="0" type="line"/>
      <point x="613" y="42" type="line"/>
      <point x="354" y="42" type="line"/>
      <point x="354" y="1500" type="line"/>
      <point x="77" y="1500" type="line"/>
      <point x="77" y="1458" type="line"/>
      <point x="310" y="1458" type="line"/>
      <point x="310" y="42" type="line"/>
      <point x="72" y="42" type="line"/>
    </contour>
    <contour>
      <point x="1553" y="0" type="line"/>
      <point x="2098" y="0" type="line"/>
      <point x="2098" y="42" type="line"/>
      <point x="1860" y="42" type="line"/>
      <point x="1860" y="1458" type="line"/>
      <point x="2093" y="1458" type="line"/>
      <point x="2093" y="1500" type="line"/>
      <point x="1812" y="1500" type="line"/>
      <point x="1812" y="42" type="line"/>
      <point x="1553" y="42" type="line"/>
    </contour>
  </outline>
</glyph>
<glyph name="P" format="2">
  <advance width="1490"/>
  <unicode hex="0050"/>
  <anchor x="745" y="0" name="bottom"/>
  <anchor x="745" y="1500" name="top"/>
  <outline>
    <contour>
      <point x="72" y="0" type="line"/>
      <point x="704" y="0" type="line"/>
      <point x="704" y="42" type="line"/>
      <point x="358" y="42" type="line"/>
      <point x="358" y="1500" type="line"/>
      <point x="77" y="1500" type="line"/>
      <point x="77" y="1458" type="line"/>
      <point x="310" y="1458" type="line"/>
      <point x="310" y="42" type="line"/>
      <point x="72" y="42" type="line"/>
    </contour>
    <contour>
      <point x="358" y="662" type="line"/>
      <point x="910" y="662" type="line" smooth="yes"/>
      <point x="1204" y="662"/>
      <point x="1400" y="803"/>
      <point x="1400" y="1081" type="curve" smooth="yes"/>
      <point x="1400" y="1359"/>
      <point x="1204" y="1500"/>
      <point x="910" y="1500" type="curve" smooth="yes"/>
      <point x="358" y="1500" type="line"/>
      <point x="358" y="1456" type="line"/>
      <point x="898" y="1456" type="line" smooth="yes"/>
      <point x="1176" y="1456"/>
      <point x="1352" y="1330"/>
      <point x="1352" y="1081" type="curve" smooth="yes"/>
      <point x="1352" y="832"/>
      <point x="1176" y="706"/>
      <point x="898" y="706" type="curve" smooth="yes"/>
      <point x="358" y="706" type="line"/>
    </contour>
  </outline>
</glyph>
<glyph name="V" format="2">
  <advance width="1682"/>
  <unicode hex="0056"/>
  <anchor x="841" y="0" name="bottom"/>
  <anchor x="841" y="1500" name="top"/>
  <outline>
    <contour>
      <point x="822" y="0" type="line"/>
      <point x="860" y="0" type="line"/>
      <point x="1484" y="1458" type="line"/>
      <point x="1654" y="1458" type="line"/>
      <point x="1654" y="1500" type="line"/>
      <point x="1170" y="1500" type="line"/>
      <point x="1170" y="1458" type="line"/>
      <point x="1436" y="1458" type="line"/>
      <point x="835" y="47" type="line"/>
      <point x="852" y="47" type="line"/>
      <point x="250" y="1458" type="line"/>
      <point x="516" y="1458" type="line"/>
      <point x="516" y="1500" type="line"/>
      <point x="28" y="1500" type="line"/>
      <point x="28" y="1458" type="line"/>
      <point x="198" y="1458" type="line"/>
    </contour>
  </outline>
</glyph>
<glyph name="X" format="2">
  <advance width="1677"/>
  <unicode hex="0058"/>
  <anchor x="839" y="0" name="bottom"/>
  <anchor x="839" y="1500" name="top"/>
  <outline>
    <contour>
      <point x="48" y="0" type="line"/>
      <point x="550" y="0" type="line"/>
      <point x="550" y="42" type="line"/>
      <point x="267" y="42" type="line"/>
      <point x="853" y="755" type="line"/>
      <point x="819" y="755" type="line"/>
      <point x="1405" y="42" type="line"/>
      <point x="1122" y="42" type="line"/>
      <point x="1122" y="0" type="line"/>
      <point x="1629" y="0" type="line"/>
      <point x="1629" y="42" type="line"/>
      <point x="1467" y="42" type="line"/>
      <point x="849" y="794" type="line"/>
      <point x="828" y="794" type="line"/>
      <point x="210" y="42" type="line"/>
      <point x="48" y="42" type="line"/>
    </contour>
    <contour>
      <point x="829" y="738" type="line"/>
      <point x="850" y="738" type="line"/>
      <point x="1441" y="1458" type="line"/>
      <point x="1599" y="1458" type="line"/>
      <point x="1599" y="1500" type="line"/>
      <point x="1106" y="1500" type="line"/>
      <point x="1106" y="1458" type="line"/>
      <point x="1384" y="1458" type="line"/>
      <point x="825" y="777" type="line"/>
      <point x="859" y="777" type="line"/>
      <point x="300" y="1458" type="line"/>
      <point x="578" y="1458" type="line"/>
      <point x="578" y="1500" type="line"/>
      <point x="80" y="1500" type="line"/>
      <point x="80" y="1458" type="line"/>
      <point x="238" y="1458" type="line"/>
    </contour>
  </outline>
</glyph>
<glyph name="backslash" format="2">
  <advance width="564"/>
  <unicode hex="005C"/>
  <outline>
    <contour>
      <point x="500" y="0" type="line"/>
      <point x="109" y="1500" type="line"/>
      <point x="64" y="1500" type="line"/>
      <point x="455" y="0" type="line"/>
    </contour>
  </outline>
</glyph>
<glyph name="bracketright" format="2">
  <advance width="754"/>
  <unicode hex="005D"/>
  <outline>
    <contour>
      <point x="498" y="-420" type="line"/>
      <point x="498" y="1560" type="line"/>
      <point x="450" y="1560" type="line"/>
      <point x="450" y="-420" type="line"/>
    </contour>
    <contour>
      <point x="498" y="-420" type="line"/>
      <point x="498" y="-376" type="line"/>
      <point x="80" y="-376" type="line"/>
      <point x="80" y="-420" type="line"/>
    </contour>
    <contour>
      <point x="498" y="1516" type="line"/>
      <point x="498" y="1560" type="line"/>
      <point x="80" y="1560" type="line"/>
      <point x="80" y="1516" type="line"/>
    </contour>
  </outline>
</glyph>
<glyph name="grave" format="2">
  <advance width="464"/>
  <unicode hex="0060"/>
  <anchor x="327" y="1100" name="_top"/>
  <outline>
    <contour>
      <point x="333" y="1250" type="line"/>
      <point x="384" y="1250" type="line"/>
      <point x="140" y="1560" type="line"/>
      <point x="80" y="1560" type="line"/>
    </contour>
  </outline>
</glyph>
<glyph name="b" format="2">
  <advance width="1428"/>
  <unicode hex="0062"/>
  <anchor x="713" y="0" name="bottom"/>
  <anchor x="713" y="1560" name="top"/>
  <outline>
    <contour>
      <point x="784" y="-16" type="curve" smooth="yes"/>
      <point x="1081" y="-16"/>
      <point x="1294" y="198"/>
      <point x="1294" y="550" type="curve" smooth="yes"/>
      <point x="1294" y="902"/>
      <point x="1081" y="1116"/>
      <point x="784" y="1116" type="curve" smooth="yes"/>
      <point x="467" y="1116"/>
      <point x="274" y="902"/>
      <point x="274" y="551" type="curve" smooth="yes"/>
      <point x="274" y="549" type="line" smooth="yes"/>
      <point x="274" y="198"/>
      <point x="467" y="-16"/>
    </contour>
    <contour>
      <point x="784" y="28" type="curve" smooth="yes"/>
      <point x="509" y="28"/>
      <point x="314" y="223"/>
      <point x="314" y="550" type="curve" smooth="yes"/>
      <point x="314" y="877"/>
      <point x="509" y="1072"/>
      <point x="784" y="1072" type="curve" smooth="yes"/>
      <point x="1055" y="1072"/>
      <point x="1246" y="877"/>
      <point x="1246" y="550" type="curve" smooth="yes"/>
      <point x="1246" y="223"/>
      <point x="1055" y="28"/>
    </contour>
    <contour>
      <point x="270" y="0" type="line"/>
      <point x="314" y="0" type="line"/>
      <point x="314" y="334" type="line"/>
      <point x="288" y="550" type="line"/>
      <point x="318" y="746" type="line"/>
      <point x="318" y="1560" type="line"/>
      <point x="76" y="1560" type="line"/>
      <point x="76" y="1518" type="line"/>
      <point x="270" y="1518" type="line"/>
    </contour>
  </outline>
</glyph>
<glyph name="h" format="2">
  <advance width="1386"/>
  <unicode hex="0068"/>
  <anchor x="691" y="0" name="bottom"/>
  <anchor x="691" y="780" name="center"/>
  <anchor x="296" y="1560" name="top"/>
  <outline>
    <contour>
      <point x="76" y="0" type="line"/>
      <point x="556" y="0" type="line"/>
      <point x="556" y="42" type="line"/>
      <point x="340" y="42" type="line"/>
      <point x="340" y="1560" type="line"/>
      <point x="98" y="1560" type="line"/>
      <point x="98" y="1518" type="line"/>
      <point x="292" y="1518" type="line"/>
      <point x="292" y="42" type="line"/>
      <point x="76" y="42" type="line"/>
    </contour>
    <contour>
      <point x="862" y="0" type="line"/>
      <point x="1312" y="0" type="line"/>
      <point x="1312" y="42" type="line"/>
      <point x="1126" y="42" type="line"/>
      <point x="1126" y="764" type="line" smooth="yes"/>
      <point x="1126" y="1018"/>
      <point x="978" y="1116"/>
      <point x="768" y="1116" type="curve" smooth="yes"/>
      <point x="528" y="1116"/>
      <point x="304" y="954"/>
      <point x="304" y="552" type="curve"/>
      <point x="340" y="552" type="line"/>
      <point x="340" y="911"/>
      <point x="546" y="1072"/>
      <point x="766" y="1072" type="curve" smooth="yes"/>
      <point x="958" y="1072"/>
      <point x="1078" y="981"/>
      <point x="1078" y="764" type="curve" smooth="yes"/>
      <point x="1078" y="42" type="line"/>
      <point x="862" y="42" type="line"/>
    </contour>
  </outline>
</glyph>
<glyph name="k" format="2">
  <advance width="1370"/>
  <unicode hex="006B"/>
  <anchor x="682" y="0" name="bottom"/>
  <anchor x="682" y="1560" name="top"/>
  <outline>
    <contour>
      <point x="76" y="0" type="line"/>
      <point x="534" y="0" type="line"/>
      <point x="534" y="42" type="line"/>
      <point x="340" y="42" type="line"/>
      <point x="340" y="1560" type="line"/>
      <point x="98" y="1560" type="line"/>
      <point x="98" y="1518" type="line"/>
      <point x="292" y="1518" type="line"/>
      <point x="292" y="42" type="line"/>
      <point x="76" y="42" type="line"/>
    </contour>
    <contour>
      <point x="862" y="0" type="line"/>
      <point x="1296" y="0" type="line"/>
      <point x="1296" y="42" type="line"/>
      <point x="1165" y="42" type="line"/>
      <point x="583" y="646" type="line"/>
      <point x="550" y="614" type="line"/>
      <point x="1098" y="42" type="line"/>
      <point x="862" y="42" type="line"/>
    </contour>
    <contour>
      <point x="331" y="398" type="line"/>
      <point x="1114" y="1058" type="line"/>
      <point x="1242" y="1058" type="line"/>
      <point x="1242" y="1100" type="line"/>
      <point x="824" y="1100" type="line"/>
      <point x="824" y="1058" type="line"/>
      <point x="1046" y="1058" type="line"/>
      <point x="306" y="432" type="line"/>
    </contour>
  </outline>
</glyph>
<glyph name="m" format="2">
  <advance width="1876"/>
  <unicode hex="006D"/>
  <anchor x="936" y="0" name="bottom"/>
  <anchor x="936" y="1100" name="top"/>
  <outline>
    <contour>
      <point x="100" y="0" type="line"/>
      <point x="550" y="0" type="line"/>
      <point x="550" y="42" type="line"/>
      <point x="364" y="42" type="line"/>
      <point x="364" y="734" type="line"/>
      <point x="360" y="734" type="line"/>
      <point x="360" y="1100" type="line"/>
      <point x="122" y="1100" type="line"/>
      <point x="122" y="1058" type="line"/>
      <point x="316" y="1058" type="line"/>
      <point x="316" y="42" type="line"/>
      <point x="100" y="42" type="line"/>
    </contour>
    <contour>
      <point x="756" y="0" type="line"/>
      <point x="1176" y="0" type="line"/>
      <point x="1176" y="42" type="line"/>
      <point x="990" y="42" type="line"/>
      <point x="990" y="812" type="line" smooth="yes"/>
      <point x="990" y="1031"/>
      <point x="870" y="1116"/>
      <point x="692" y="1116" type="curve" smooth="yes"/>
      <point x="499" y="1116"/>
      <point x="328" y="982"/>
      <point x="328" y="674" type="curve"/>
      <point x="364" y="674" type="line"/>
      <point x="364" y="949"/>
      <point x="523" y="1072"/>
      <point x="690" y="1072" type="curve" smooth="yes"/>
      <point x="849" y="1072"/>
      <point x="942" y="995"/>
      <point x="942" y="812" type="curve" smooth="yes"/>
      <point x="942" y="42" type="line"/>
      <point x="756" y="42" type="line"/>
    </contour>
    <contour>
      <point x="1382" y="0" type="line"/>
      <point x="1802" y="0" type="line"/>
      <point x="1802" y="42" type="line"/>
      <point x="1616" y="42" type="line"/>
      <point x="1616" y="812" type="line" smooth="yes"/>
      <point x="1616" y="1031"/>
      <point x="1498" y="1116"/>
      <point x="1318" y="1116" type="curve" smooth="yes"/>
      <point x="1125" y="1116"/>
      <point x="954" y="982"/>
      <point x="954" y="674" type="curve"/>
      <point x="990" y="674" type="line"/>
      <point x="990" y="949"/>
      <point x="1149" y="1072"/>
      <point x="1316" y="1072" type="curve" smooth="yes"/>
      <point x="1475" y="1072"/>
      <point x="1568" y="995"/>
      <point x="1568" y="812" type="curve" smooth="yes"/>
      <point x="1568" y="42" type="line"/>
      <point x="1382" y="42" type="line"/>
    </contour>
  </outline>
</glyph>
<glyph name="p" format="2">
  <advance width="1450"/>
  <unicode hex="0070"/>
  <anchor x="721" y="0" name="bottom"/>
  <anchor x="721" y="1100" name="top"/>
  <outline>
    <contour>
      <point x="806" y="-16" type="curve" smooth="yes"/>
      <point x="1103" y="-16"/>
      <point x="1316" y="198"/>
      <point x="1316" y="550" type="curve" smooth="yes"/>
      <point x="1316" y="902"/>
      <point x="1103" y="1116"/>
      <point x="806" y="1116" type="curve" smooth="yes"/>
      <point x="489" y="1116"/>
      <point x="296" y="902"/>
      <point x="296" y="551" type="curve" smooth="yes"/>
      <point x="296" y="549" type="line" smooth="yes"/>
      <point x="296" y="198"/>
      <point x="489" y="-16"/>
    </contour>
    <contour>
      <point x="806" y="28" type="curve" smooth="yes"/>
      <point x="531" y="28"/>
      <point x="336" y="223"/>
      <point x="336" y="550" type="curve" smooth="yes"/>
      <point x="336" y="877"/>
      <point x="531" y="1072"/>
      <point x="806" y="1072" type="curve" smooth="yes"/>
      <point x="1077" y="1072"/>
      <point x="1268" y="877"/>
      <point x="1268" y="550" type="curve" smooth="yes"/>
      <point x="1268" y="223"/>
      <point x="1077" y="28"/>
    </contour>
    <contour>
      <point x="76" y="-420" type="line"/>
      <point x="599" y="-420" type="line"/>
      <point x="599" y="-378" type="line"/>
      <point x="340" y="-378" type="line"/>
      <point x="340" y="334" type="line"/>
      <point x="310" y="550" type="line"/>
      <point x="336" y="746" type="line"/>
      <point x="336" y="1100" type="line"/>
      <point x="98" y="1100" type="line"/>
      <point x="98" y="1058" type="line"/>
      <point x="292" y="1058" type="line"/>
      <point x="292" y="-378" type="line"/>
      <point x="76" y="-378" type="line"/>
    </contour>
  </outline>
</glyph>
<glyph name="q" format="2">
  <advance width="1397"/>
  <unicode hex="0071"/>
  <anchor x="700" y="0" name="bottom"/>
  <anchor x="700" y="1100" name="top"/>
  <outline>
    <contour>
      <point x="644" y="-16" type="curve" smooth="yes"/>
      <point x="961" y="-16"/>
      <point x="1154" y="198"/>
      <point x="1154" y="549" type="curve" smooth="yes"/>
      <point x="1154" y="551" type="line" smooth="yes"/>
      <point x="1154" y="902"/>
      <point x="961" y="1116"/>
      <point x="644" y="1116" type="curve" smooth="yes"/>
      <point x="347" y="1116"/>
      <point x="134" y="902"/>
      <point x="134" y="550" type="curve" smooth="yes"/>
      <point x="134" y="198"/>
      <point x="347" y="-16"/>
    </contour>
    <contour>
      <point x="644" y="28" type="curve" smooth="yes"/>
      <point x="373" y="28"/>
      <point x="182" y="223"/>
      <point x="182" y="550" type="curve" smooth="yes"/>
      <point x="182" y="877"/>
      <point x="373" y="1072"/>
      <point x="644" y="1072" type="curve" smooth="yes"/>
      <point x="919" y="1072"/>
      <point x="1114" y="877"/>
      <point x="1114" y="550" type="curve" smooth="yes"/>
      <point x="1114" y="223"/>
      <point x="919" y="28"/>
    </contour>
    <contour>
      <point x="851" y="-420" type="line"/>
      <point x="1352" y="-420" type="line"/>
      <point x="1352" y="-378" type="line"/>
      <point x="1158" y="-378" type="line"/>
      <point x="1158" y="1100" type="line"/>
      <point x="1114" y="1100" type="line"/>
      <point x="1114" y="750" type="line"/>
      <point x="1140" y="550" type="line"/>
      <point x="1110" y="334" type="line"/>
      <point x="1110" y="-378" type="line"/>
      <point x="851" y="-378" type="line"/>
    </contour>
  </outline>
</glyph>
<glyph name="r" format="2">
  <advance width="1121"/>
  <unicode hex="0072"/>
  <anchor x="386" y="0" name="bottom"/>
  <anchor x="558" y="1100" name="top"/>
  <outline>
    <contour>
      <point x="100" y="0" type="line"/>
      <point x="666" y="0" type="line"/>
      <point x="666" y="42" type="line"/>
      <point x="364" y="42" type="line"/>
      <point x="364" y="740" type="line"/>
      <point x="356" y="740" type="line"/>
      <point x="356" y="1100" type="line"/>
      <point x="122" y="1100" type="line"/>
      <point x="122" y="1058" type="line"/>
      <point x="316" y="1058" type="line"/>
      <point x="316" y="42" type="line"/>
      <point x="100" y="42" type="line"/>
    </contour>
    <contour>
      <point x="330" y="652" type="curve"/>
      <point x="364" y="652" type="line"/>
      <point x="364" y="925"/>
      <point x="508" y="1078"/>
      <point x="725" y="1078" type="curve" smooth="yes"/>
      <point x="882" y="1078"/>
      <point x="968" y="1008"/>
      <point x="964" y="879" type="curve"/>
      <point x="983" y="895" type="line"/>
      <point x="926" y="901"/>
      <point x="883" y="880"/>
      <point x="883" y="834" type="curve" smooth="yes"/>
      <point x="883" y="802"/>
      <point x="907" y="781"/>
      <point x="939" y="781" type="curve" smooth="yes"/>
      <point x="983" y="781"/>
      <point x="1013" y="818"/>
      <point x="1013" y="875" type="curve" smooth="yes"/>
      <point x="1013" y="1043"/>
      <point x="897" y="1122"/>
      <point x="725" y="1122" type="curve" smooth="yes"/>
      <point x="474" y="1122"/>
      <point x="330" y="949"/>
    </contour>
  </outline>
</glyph>
<glyph name="v" format="2">
  <advance width="1238"/>
  <unicode hex="0076"/>
  <anchor x="619" y="0" name="bottom"/>
  <anchor x="619" y="1100" name="top"/>
  <outline>
    <contour>
      <point x="598" y="0" type="line"/>
      <point x="640" y="0" type="line"/>
      <point x="1069" y="1058" type="line"/>
      <point x="1208" y="1058" type="line"/>
      <point x="1208" y="1100" type="line"/>
      <point x="794" y="1100" type="line"/>
      <point x="794" y="1058" type="line"/>
      <point x="1022" y="1058" type="line"/>
      <point x="613" y="45" type="line"/>
      <point x="629" y="45" type="line"/>
      <point x="221" y="1058" type="line"/>
      <point x="449" y="1058" type="line"/>
      <point x="449" y="1100" type="line"/>
      <point x="30" y="1100" type="line"/>
      <point x="30" y="1058" type="line"/>
      <point x="169" y="1058" type="line"/>
    </contour>
  </outline>
</glyph>
<glyph name="w" format="2">
  <advance width="1712"/>
  <unicode hex="0077"/>
  <anchor x="856" y="0" name="bottom"/>
  <anchor x="856" y="1100" name="top"/>
  <outline>
    <contour>
      <point x="1142" y="0" type="line"/>
      <point x="1186" y="0" type="line"/>
      <point x="1544" y="1058" type="line"/>
      <point x="1682" y="1058" type="line"/>
      <point x="1682" y="1100" type="line"/>
      <point x="1267" y="1100" type="line"/>
      <point x="1267" y="1058" type="line"/>
      <point x="1497" y="1058" type="line"/>
      <point x="1158" y="49" type="line"/>
      <point x="1174" y="49" type="line"/>
      <point x="835" y="1058" type="line"/>
      <point x="1065" y="1058" type="line"/>
      <point x="1065" y="1100" type="line"/>
      <point x="646" y="1100" type="line"/>
      <point x="646" y="1058" type="line"/>
      <point x="784" y="1058" type="line"/>
    </contour>
    <contour>
      <point x="526" y="0" type="line"/>
      <point x="570" y="0" type="line"/>
      <point x="872" y="894" type="line"/>
      <point x="850" y="965" type="line"/>
      <point x="542" y="49" type="line"/>
      <point x="558" y="49" type="line"/>
      <point x="219" y="1058" type="line"/>
      <point x="449" y="1058" type="line"/>
      <point x="449" y="1100" type="line"/>
      <point x="30" y="1100" type="line"/>
      <point x="30" y="1058" type="line"/>
      <point x="168" y="1058" type="line"/>
    </contour>
  </outline>
</glyph>
<glyph name="x" format="2">
  <advance width="1334"/>
  <unicode hex="0078"/>
  <anchor x="667" y="0" name="bottom"/>
  <anchor x="667" y="1100" name="top"/>
  <outline>
    <contour>
      <point x="74" y="0" type="line"/>
      <point x="497" y="0" type="line"/>
      <point x="497" y="42" type="line"/>
      <point x="278" y="42" type="line"/>
      <point x="682" y="553" type="line"/>
      <point x="647" y="553" type="line"/>
      <point x="1051" y="42" type="line"/>
      <point x="832" y="42" type="line"/>
      <point x="832" y="0" type="line"/>
      <point x="1260" y="0" type="line"/>
      <point x="1260" y="42" type="line"/>
      <point x="1112" y="42" type="line"/>
      <point x="686" y="578" type="line"/>
      <point x="649" y="578" type="line"/>
      <point x="222" y="42" type="line"/>
      <point x="74" y="42" type="line"/>
    </contour>
    <contour>
      <point x="647" y="542" type="line"/>
      <point x="680" y="542" type="line"/>
      <point x="1092" y="1058" type="line"/>
      <point x="1227" y="1058" type="line"/>
      <point x="1227" y="1100" type="line"/>
      <point x="826" y="1100" type="line"/>
      <point x="826" y="1058" type="line"/>
      <point x="1036" y="1058" type="line"/>
      <point x="647" y="567" type="line"/>
      <point x="686" y="567" type="line"/>
      <point x="297" y="1058" type="line"/>
      <point x="507" y="1058" type="line"/>
      <point x="507" y="1100" type="line"/>
      <point x="101" y="1100" type="line"/>
      <point x="101" y="1058" type="line"/>
      <point x="236" y="1058" type="line"/>
    </contour>
  </outline>
</glyph>
<glyph name="braceright" format="2">
  <advance width="923"/>
  <unicode hex="007D"/>
  <outline>
    <contour>
      <point x="803" y="592" type="line"/>
      <point x="560" y="592"/>
      <point x="459" y="678"/>
      <point x="471" y="857" type="curve" smooth="yes"/>
      <point x="489" y="1117" type="line" smooth="yes"/>
      <point x="512" y="1445"/>
      <point x="361" y="1560"/>
      <point x="105" y="1560" type="curve" smooth="yes"/>
      <point x="80" y="1560" type="line"/>
      <point x="80" y="1516" type="line"/>
      <point x="340" y="1516"/>
      <point x="460" y="1416"/>
      <point x="441" y="1119" type="curve" smooth="yes"/>
      <point x="425" y="872" type="line" smooth="yes"/>
      <point x="411" y="663"/>
      <point x="524" y="579"/>
      <point x="683" y="570" type="curve"/>
      <point x="803" y="570" type="line"/>
    </contour>
    <contour>
      <point x="105" y="-420" type="line" smooth="yes"/>
      <point x="361" y="-420"/>
      <point x="512" y="-305"/>
      <point x="489" y="23" type="curve" smooth="yes"/>
      <point x="471" y="283" type="line" smooth="yes"/>
      <point x="459" y="462"/>
      <point x="560" y="548"/>
      <point x="803" y="548" type="curve"/>
      <point x="803" y="570" type="line"/>
      <point x="683" y="570" type="line"/>
      <point x="524" y="561"/>
      <point x="411" y="477"/>
      <point x="425" y="268" type="curve" smooth="yes"/>
      <point x="441" y="21" type="line" smooth="yes"/>
      <point x="460" y="-276"/>
      <point x="340" y="-376"/>
      <point x="80" y="-376" type="curve"/>
      <point x="80" y="-420" type="line"/>
    </contour>
  </outline>
</glyph>
<glyph name="exclamdown" format="2">
  <advance width="370"/>
  <unicode hex="00A1"/>
  <outline>
    <contour>
      <point x="207" y="700" type="curve"/>
      <point x="163" y="700" type="line"/>
      <point x="159" y="-209"/>
      <point x="159" y="-295"/>
      <point x="159" y="-381" type="curve" smooth="yes"/>
      <point x="159" y="-403"/>
      <point x="168" y="-416"/>
      <point x="185" y="-416" type="curve" smooth="yes"/>
      <point x="202" y="-416"/>
      <point x="211" y="-403"/>
      <point x="211" y="-381" type="curve" smooth="yes"/>
      <point x="211" y="-295"/>
      <point x="211" y="-209"/>
    </contour>
    <contour>
      <point x="185" y="1116" type="curve" smooth="yes"/>
      <point x="149" y="1116"/>
      <point x="126" y="1090"/>
      <point x="126" y="1054" type="curve" smooth="yes"/>
      <point x="126" y="1018"/>
      <point x="149" y="992"/>
      <point x="185" y="992" type="curve" smooth="yes"/>
      <point x="221" y="992"/>
      <point x="244" y="1018"/>
      <point x="244" y="1054" type="curve" smooth="yes"/>
      <point x="244" y="1090"/>
      <point x="221" y="1116"/>
    </contour>
  </outline>
</glyph>
<glyph name="ordfeminine" format="2">
  <advance width="964"/>
  <unicode hex="00AA"/>
  <outline>
    <contour>
      <point x="218" y="1282" type="curve" smooth="yes"/>
      <point x="242" y="1282"/>
      <point x="257" y="1297"/>
      <point x="257" y="1320" type="curve" smooth="yes"/>
      <point x="257" y="1349"/>
      <point x="226" y="1366"/>
      <point x="193" y="1362" type="curve"/>
      <point x="205" y="1351" type="line"/>
      <point x="202" y="1429"/>
      <point x="314" y="1476"/>
      <point x="432" y="1476" type="curve" smooth="yes"/>
      <point x="564" y="1476"/>
      <point x="627" y="1422"/>
      <point x="627" y="1344" type="curve"/>
      <point x="667" y="1330" type="line"/>
      <point x="668" y="1447"/>
      <point x="586" y="1512"/>
      <point x="436" y="1512" type="curve" smooth="yes"/>
      <point x="296" y="1512"/>
      <point x="166" y="1451"/>
      <point x="166" y="1350" type="curve" smooth="yes"/>
      <point x="166" y="1305"/>
      <point x="190" y="1282"/>
    </contour>
    <contour>
      <point x="764" y="768" type="curve" smooth="yes"/>
      <point x="850" y="768"/>
      <point x="895" y="823"/>
      <point x="895" y="919" type="curve" smooth="yes"/>
      <point x="895" y="1104" type="line"/>
      <point x="859" y="1104" type="line"/>
      <point x="859" y="918" type="line" smooth="yes"/>
      <point x="859" y="850"/>
      <point x="834" y="804"/>
      <point x="765" y="804" type="curve" smooth="yes"/>
      <point x="699" y="804"/>
      <point x="667" y="851"/>
      <point x="667" y="918" type="curve" smooth="yes"/>
      <point x="667" y="1330" type="line"/>
      <point x="627" y="1344" type="line"/>
      <point x="627" y="1292" type="line"/>
      <point x="621" y="1235" type="line"/>
      <point x="627" y="1235" type="line"/>
      <point x="627" y="962" type="line"/>
      <point x="630" y="962" type="line"/>
      <point x="630" y="919" type="line" smooth="yes"/>
      <point x="630" y="823"/>
      <point x="680" y="768"/>
    </contour>
    <contour>
      <point x="359" y="768" type="curve" smooth="yes"/>
      <point x="530" y="768"/>
      <point x="659" y="871"/>
      <point x="658" y="1132" type="curve"/>
      <point x="627" y="1132" type="line"/>
      <point x="627" y="893"/>
      <point x="508" y="804"/>
      <point x="368" y="804" type="curve" smooth="yes"/>
      <point x="260" y="804"/>
      <point x="177" y="855"/>
      <point x="177" y="958" type="curve" smooth="yes"/>
      <point x="177" y="1074"/>
      <point x="274" y="1101"/>
      <point x="361" y="1121" type="curve" smooth="yes"/>
      <point x="471" y="1146" type="line" smooth="yes"/>
      <point x="547" y="1163"/>
      <point x="603" y="1183"/>
      <point x="627" y="1235" type="curve"/>
      <point x="632" y="1235" type="line"/>
      <point x="627" y="1339" type="line"/>
      <point x="627" y="1233"/>
      <point x="560" y="1200"/>
      <point x="463" y="1180" type="curve" smooth="yes"/>
      <point x="343" y="1155" type="line" smooth="yes"/>
      <point x="235" y="1132"/>
      <point x="133" y="1089"/>
      <point x="133" y="956" type="curve" smooth="yes"/>
      <point x="133" y="833"/>
      <point x="227" y="768"/>
    </contour>
  </outline>
</glyph>
<glyph name="guillemetleft" format="2">
  <advance width="988"/>
  <unicode hex="00AB"/>
  <outline>
    <contour>
      <point x="474" y="190" type="line"/>
      <point x="192" y="580" type="line"/>
      <point x="474" y="970" type="line"/>
      <point x="420" y="970" type="line"/>
      <point x="132" y="580" type="line"/>
      <point x="420" y="190" type="line"/>
    </contour>
    <contour>
      <point x="844" y="190" type="line"/>
      <point x="562" y="580" type="line"/>
      <point x="844" y="970" type="line"/>
      <point x="790" y="970" type="line"/>
      <point x="502" y="580" type="line"/>
      <point x="790" y="190" type="line"/>
    </contour>
  </outline>
</glyph>
<glyph name="softhyphen" format="2">
  <advance width="956"/>
  <unicode hex="00AD"/>
  <outline>
    <contour>
      <point x="160" y="560" type="line"/>
      <point x="796" y="560" type="line"/>
      <point x="796" y="602" type="line"/>
      <point x="160" y="602" type="line"/>
    </contour>
  </outline>
</glyph>
<glyph name="plusminus" format="2">
  <advance width="1222"/>
  <unicode hex="00B1"/>
  <outline>
    <contour>
      <point x="589" y="292" type="line"/>
      <point x="633" y="292" type="line"/>
      <point x="633" y="1214" type="line"/>
      <point x="589" y="1214" type="line"/>
    </contour>
    <contour>
      <point x="160" y="0" type="line"/>
      <point x="1062" y="0" type="line"/>
      <point x="1062" y="42" type="line"/>
      <point x="160" y="42" type="line"/>
    </contour>
    <contour>
      <point x="160" y="732" type="line"/>
      <point x="1062" y="732" type="line"/>
      <point x="1062" y="774" type="line"/>
      <point x="160" y="774" type="line"/>
    </contour>
  </outline>
</glyph>
<glyph name="twosuperior" format="2">
  <advance width="725"/>
  <unicode hex="00B2"/>
  <outline>
    <contour>
      <point x="86" y="788" type="curve" smooth="yes"/>
      <point x="86" y="780" type="line"/>
      <point x="124" y="820" type="line"/>
      <point x="132" y="943"/>
      <point x="240" y="993"/>
      <point x="316" y="1026" type="curve" smooth="yes"/>
      <point x="406" y="1066" type="line" smooth="yes"/>
      <point x="513" y="1114"/>
      <point x="631" y="1178"/>
      <point x="630" y="1310" type="curve"/>
      <point x="584" y="1312" type="line"/>
      <point x="585" y="1195"/>
      <point x="470" y="1146"/>
      <point x="389" y="1106" type="curve" smooth="yes"/>
      <point x="300" y="1062" type="line" smooth="yes"/>
      <point x="155" y="990"/>
      <point x="86" y="925"/>
    </contour>
    <contour>
      <point x="86" y="780" type="line"/>
      <point x="631" y="780" type="line"/>
      <point x="631" y="820" type="line"/>
      <point x="124" y="820" type="line"/>
      <point x="86" y="788" type="line"/>
    </contour>
    <contour>
      <point x="526" y="820" type="curve" smooth="yes"/>
      <point x="631" y="820" type="line"/>
      <point x="631" y="946" type="line"/>
      <point x="597" y="946" type="line"/>
      <point x="597" y="890" type="line" smooth="yes"/>
      <point x="597" y="840"/>
      <point x="590" y="820"/>
    </contour>
    <contour>
      <point x="156" y="1268" type="curve" smooth="yes"/>
      <point x="178" y="1268"/>
      <point x="191" y="1281"/>
      <point x="191" y="1301" type="curve" smooth="yes"/>
      <point x="191" y="1324"/>
      <point x="162" y="1339"/>
      <point x="131" y="1334" type="curve"/>
      <point x="143" y="1323" type="line"/>
      <point x="141" y="1431"/>
      <point x="255" y="1474"/>
      <point x="369" y="1474" type="curve" smooth="yes"/>
      <point x="484" y="1474"/>
      <point x="585" y="1420"/>
      <point x="584" y="1312" type="curve"/>
      <point x="630" y="1310" type="line"/>
      <point x="631" y="1447"/>
      <point x="516" y="1510"/>
      <point x="373" y="1510" type="curve" smooth="yes"/>
      <point x="228" y="1510"/>
      <point x="109" y="1451"/>
      <point x="109" y="1324" type="curve" smooth="yes"/>
      <point x="109" y="1288"/>
      <point x="130" y="1268"/>
    </contour>
  </outline>
</glyph>
<glyph name="acute" format="2">
  <advance width="464"/>
  <unicode hex="00B4"/>
  <anchor x="137" y="1100" name="_top"/>
  <outline>
    <contour>
      <point x="80" y="1250" type="line"/>
      <point x="131" y="1250" type="line"/>
      <point x="384" y="1560" type="line"/>
      <point x="324" y="1560" type="line"/>
    </contour>
  </outline>
</glyph>
<glyph name="onesuperior" format="2">
  <advance width="543"/>
  <unicode hex="00B9"/>
  <outline>
    <contour>
      <point x="127" y="780" type="line"/>
      <point x="481" y="780" type="line"/>
      <point x="481" y="816" type="line"/>
      <point x="343" y="816" type="line"/>
      <point x="343" y="1500" type="line"/>
      <point x="305" y="1500" type="line"/>
      <point x="305" y="1470" type="line" smooth="yes"/>
      <point x="305" y="1368"/>
      <point x="272" y="1356"/>
      <point x="187" y="1356" type="curve" smooth="yes"/>
      <point x="86" y="1356" type="line"/>
      <point x="86" y="1322" type="line"/>
      <point x="299" y="1322" type="line"/>
      <point x="299" y="816" type="line"/>
      <point x="127" y="816" type="line"/>
    </contour>
  </outline>
</glyph>
<glyph name="ordmasculine" format="2">
  <advance width="935"/>
  <unicode hex="00BA"/>
  <outline>
    <contour>
      <point x="468" y="768" type="curve" smooth="yes"/>
      <point x="665" y="768"/>
      <point x="805" y="903"/>
      <point x="805" y="1140" type="curve" smooth="yes"/>
      <point x="805" y="1376"/>
      <point x="666" y="1512"/>
      <point x="468" y="1512" type="curve" smooth="yes"/>
      <point x="270" y="1512"/>
      <point x="130" y="1376"/>
      <point x="130" y="1140" type="curve" smooth="yes"/>
      <point x="130" y="903"/>
      <point x="270" y="768"/>
    </contour>
    <contour>
      <point x="468" y="804" type="curve" smooth="yes"/>
      <point x="295" y="804"/>
      <point x="176" y="930"/>
      <point x="176" y="1140" type="curve" smooth="yes"/>
      <point x="176" y="1350"/>
      <point x="295" y="1476"/>
      <point x="468" y="1476" type="curve" smooth="yes"/>
      <point x="640" y="1476"/>
      <point x="759" y="1350"/>
      <point x="759" y="1140" type="curve" smooth="yes"/>
      <point x="759" y="930"/>
      <point x="641" y="804"/>
    </contour>
  </outline>
</glyph>
<glyph name="guillemetright" format="2">
  <advance width="988"/>
  <unicode hex="00BB"/>
  <outline>
    <contour>
      <point x="514" y="190" type="line"/>
      <point x="568" y="190" type="line"/>
      <point x="856" y="580" type="line"/>
      <point x="568" y="970" type="line"/>
      <point x="514" y="970" type="line"/>
      <point x="796" y="580" type="line"/>
    </contour>
    <contour>
      <point x="144" y="190" type="line"/>
      <point x="198" y="190" type="line"/>
      <point x="486" y="580" type="line"/>
      <point x="198" y="970" type="line"/>
      <point x="144" y="970" type="line"/>
      <point x="426" y="580" type="line"/>
    </contour>
  </outline>
</glyph>
<glyph name="onequarter" format="2">
  <advance width="2629"/>
  <unicode hex="00BC"/>
  <outline>
    <contour>
      <point x="127" y="780" type="line"/>
      <point x="481" y="780" type="line"/>
      <point x="481" y="816" type="line"/>
      <point x="343" y="816" type="line"/>
      <point x="343" y="1500" type="line"/>
      <point x="305" y="1500" type="line"/>
      <point x="305" y="1470" type="line" smooth="yes"/>
      <point x="305" y="1368"/>
      <point x="272" y="1356"/>
      <point x="187" y="1356" type="curve" smooth="yes"/>
      <point x="86" y="1356" type="line"/>
      <point x="86" y="1322" type="line"/>
      <point x="299" y="1322" type="line"/>
      <point x="299" y="816" type="line"/>
      <point x="127" y="816" type="line"/>
    </contour>
    <contour>
      <point x="627" y="0" type="line"/>
      <point x="677" y="0" type="line"/>
      <point x="1774" y="1500" type="line"/>
      <point x="1724" y="1500" type="line"/>
    </contour>
    <contour>
      <point x="2187" y="0" type="line"/>
      <point x="2502" y="0" type="line"/>
      <point x="2502" y="34" type="line"/>
      <point x="2387" y="34" type="line"/>
      <point x="2387" y="720" type="line"/>
      <point x="2345" y="720" type="line"/>
      <point x="2343" y="692" type="line"/>
      <point x="2343" y="34" type="line"/>
      <point x="2187" y="34" type="line"/>
    </contour>
    <contour>
      <point x="1924" y="220" type="line"/>
      <point x="2575" y="220" type="line"/>
      <point x="2575" y="254" type="line"/>
      <point x="1952" y="254" type="line"/>
      <point x="1924" y="252" type="line"/>
    </contour>
    <contour>
      <point x="1924" y="252" type="line"/>
      <point x="1967" y="252" type="line"/>
      <point x="2345" y="672" type="line"/>
      <point x="2345" y="720" type="line"/>
    </contour>
  </outline>
</glyph>
<glyph name="onehalf" format="2">
  <advance width="2583"/>
  <unicode hex="00BD"/>
  <outline>
    <contour>
      <point x="127" y="780" type="line"/>
      <point x="481" y="780" type="line"/>
      <point x="481" y="816" type="line"/>
      <point x="343" y="816" type="line"/>
      <point x="343" y="1500" type="line"/>
      <point x="305" y="1500" type="line"/>
      <point x="305" y="1470" type="line" smooth="yes"/>
      <point x="305" y="1368"/>
      <point x="272" y="1356"/>
      <point x="187" y="1356" type="curve" smooth="yes"/>
      <point x="86" y="1356" type="line"/>
      <point x="86" y="1322" type="line"/>
      <point x="299" y="1322" type="line"/>
      <point x="299" y="816" type="line"/>
      <point x="127" y="816" type="line"/>
    </contour>
    <contour>
      <point x="627" y="0" type="line"/>
      <point x="677" y="0" type="line"/>
      <point x="1774" y="1500" type="line"/>
      <point x="1724" y="1500" type="line"/>
    </contour>
    <contour>
      <point x="1944" y="8" type="curve" smooth="yes"/>
      <point x="1944" y="0" type="line"/>
      <point x="1982" y="40" type="line"/>
      <point x="1990" y="163"/>
      <point x="2098" y="213"/>
      <point x="2174" y="246" type="curve" smooth="yes"/>
      <point x="2264" y="286" type="line" smooth="yes"/>
      <point x="2371" y="334"/>
      <point x="2489" y="398"/>
      <point x="2488" y="530" type="curve"/>
      <point x="2442" y="532" type="line"/>
      <point x="2443" y="415"/>
      <point x="2328" y="366"/>
      <point x="2247" y="326" type="curve" smooth="yes"/>
      <point x="2158" y="282" type="line" smooth="yes"/>
      <point x="2013" y="210"/>
      <point x="1944" y="145"/>
    </contour>
    <contour>
      <point x="1944" y="0" type="line"/>
      <point x="2489" y="0" type="line"/>
      <point x="2489" y="40" type="line"/>
      <point x="1982" y="40" type="line"/>
      <point x="1944" y="8" type="line"/>
    </contour>
    <contour>
      <point x="2384" y="40" type="curve" smooth="yes"/>
      <point x="2489" y="40" type="line"/>
      <point x="2489" y="166" type="line"/>
      <point x="2455" y="166" type="line"/>
      <point x="2455" y="110" type="line" smooth="yes"/>
      <point x="2455" y="60"/>
      <point x="2448" y="40"/>
    </contour>
    <contour>
      <point x="2014" y="488" type="curve" smooth="yes"/>
      <point x="2036" y="488"/>
      <point x="2049" y="501"/>
      <point x="2049" y="521" type="curve" smooth="yes"/>
      <point x="2049" y="544"/>
      <point x="2020" y="559"/>
      <point x="1989" y="554" type="curve"/>
      <point x="2001" y="543" type="line"/>
      <point x="1999" y="651"/>
      <point x="2113" y="694"/>
      <point x="2227" y="694" type="curve" smooth="yes"/>
      <point x="2342" y="694"/>
      <point x="2443" y="640"/>
      <point x="2442" y="532" type="curve"/>
      <point x="2488" y="530" type="line"/>
      <point x="2489" y="667"/>
      <point x="2374" y="730"/>
      <point x="2231" y="730" type="curve" smooth="yes"/>
      <point x="2086" y="730"/>
      <point x="1967" y="671"/>
      <point x="1967" y="544" type="curve" smooth="yes"/>
      <point x="1967" y="508"/>
      <point x="1988" y="488"/>
    </contour>
  </outline>
</glyph>
<glyph name="threequarters" format="2">
  <advance width="2812"/>
  <unicode hex="00BE"/>
  <outline>
    <contour>
      <point x="370" y="770" type="curve" smooth="yes"/>
      <point x="533" y="770"/>
      <point x="636" y="858"/>
      <point x="636" y="982" type="curve" smooth="yes"/>
      <point x="636" y="1106"/>
      <point x="540" y="1194"/>
      <point x="298" y="1181" type="curve"/>
      <point x="298" y="1156" type="line"/>
      <point x="502" y="1162"/>
      <point x="590" y="1090"/>
      <point x="590" y="984" type="curve" smooth="yes"/>
      <point x="590" y="885"/>
      <point x="508" y="810"/>
      <point x="366" y="810" type="curve" smooth="yes"/>
      <point x="228" y="810"/>
      <point x="121" y="882"/>
      <point x="116" y="1002" type="curve"/>
      <point x="82" y="1002" type="line"/>
      <point x="84" y="853"/>
      <point x="208" y="770"/>
    </contour>
    <contour>
      <point x="298" y="1190" type="curve"/>
      <point x="298" y="1169" type="line"/>
      <point x="496" y="1164"/>
      <point x="611" y="1216"/>
      <point x="611" y="1338" type="curve" smooth="yes"/>
      <point x="611" y="1444"/>
      <point x="507" y="1510"/>
      <point x="364" y="1510" type="curve" smooth="yes"/>
      <point x="220" y="1510"/>
      <point x="112" y="1452"/>
      <point x="112" y="1348" type="curve" smooth="yes"/>
      <point x="112" y="1314"/>
      <point x="133" y="1296"/>
      <point x="159" y="1296" type="curve" smooth="yes"/>
      <point x="181" y="1296"/>
      <point x="195" y="1308"/>
      <point x="195" y="1327" type="curve" smooth="yes"/>
      <point x="195" y="1351"/>
      <point x="164" y="1366"/>
      <point x="134" y="1361" type="curve"/>
      <point x="147" y="1351" type="line"/>
      <point x="152" y="1433"/>
      <point x="241" y="1476"/>
      <point x="360" y="1476" type="curve" smooth="yes"/>
      <point x="479" y="1476"/>
      <point x="565" y="1419"/>
      <point x="565" y="1336" type="curve" smooth="yes"/>
      <point x="565" y="1240"/>
      <point x="479" y="1190"/>
    </contour>
    <contour>
      <point x="810" y="0" type="line"/>
      <point x="860" y="0" type="line"/>
      <point x="1957" y="1500" type="line"/>
      <point x="1907" y="1500" type="line"/>
    </contour>
    <contour>
      <point x="2370" y="0" type="line"/>
      <point x="2685" y="0" type="line"/>
      <point x="2685" y="34" type="line"/>
      <point x="2570" y="34" type="line"/>
      <point x="2570" y="720" type="line"/>
      <point x="2528" y="720" type="line"/>
      <point x="2526" y="692" type="line"/>
      <point x="2526" y="34" type="line"/>
      <point x="2370" y="34" type="line"/>
    </contour>
    <contour>
      <point x="2107" y="220" type="line"/>
      <point x="2758" y="220" type="line"/>
      <point x="2758" y="254" type="line"/>
      <point x="2135" y="254" type="line"/>
      <point x="2107" y="252" type="line"/>
    </contour>
    <contour>
      <point x="2107" y="252" type="line"/>
      <point x="2150" y="252" type="line"/>
      <point x="2528" y="672" type="line"/>
      <point x="2528" y="720" type="line"/>
    </contour>
  </outline>
</glyph>
<glyph name="questiondown" format="2">
  <advance width="1158"/>
  <unicode hex="00BF"/>
  <outline>
    <contour>
      <point x="975" y="30" type="curve" smooth="yes"/>
      <point x="941" y="30"/>
      <point x="921" y="9"/>
      <point x="921" y="-25" type="curve" smooth="yes"/>
      <point x="921" y="-69"/>
      <point x="973" y="-94"/>
      <point x="1024" y="-87" type="curve"/>
      <point x="1007" y="-71" type="line"/>
      <point x="1009" y="-291"/>
      <point x="793" y="-378"/>
      <point x="574" y="-378" type="curve" smooth="yes"/>
      <point x="343" y="-378"/>
      <point x="140" y="-277"/>
      <point x="142" y="-53" type="curve"/>
      <point x="94" y="-53" type="line"/>
      <point x="92" y="-296"/>
      <point x="300" y="-416"/>
      <point x="572" y="-416" type="curve" smooth="yes"/>
      <point x="834" y="-416"/>
      <point x="1052" y="-307"/>
      <point x="1052" y="-72" type="curve" smooth="yes"/>
      <point x="1052" y="-7"/>
      <point x="1019" y="30"/>
    </contour>
    <contour>
      <point x="574" y="1116" type="curve" smooth="yes"/>
      <point x="538" y="1116"/>
      <point x="515" y="1090"/>
      <point x="515" y="1054" type="curve" smooth="yes"/>
      <point x="515" y="1018"/>
      <point x="538" y="992"/>
      <point x="574" y="992" type="curve" smooth="yes"/>
      <point x="610" y="992"/>
      <point x="633" y="1018"/>
      <point x="633" y="1054" type="curve" smooth="yes"/>
      <point x="633" y="1090"/>
      <point x="610" y="1116"/>
    </contour>
    <contour>
      <point x="600" y="700" type="curve"/>
      <point x="556" y="700" type="line"/>
      <point x="563" y="537"/>
      <point x="559" y="462"/>
      <point x="436" y="384" type="curve" smooth="yes"/>
      <point x="293" y="293"/>
      <point x="94" y="181"/>
      <point x="94" y="-53" type="curve"/>
      <point x="142" y="-53" type="line"/>
      <point x="140" y="156"/>
      <point x="323" y="262"/>
      <point x="461" y="348" type="curve" smooth="yes"/>
      <point x="594" y="431"/>
      <point x="614" y="536"/>
    </contour>
  </outline>
</glyph>
<glyph name="Agrave" format="2">
  <advance width="1690"/>
  <unicode hex="00C0"/>
  <anchor x="845" y="0" name="bottom"/>
  <anchor x="1590" y="0" name="ogonek"/>
  <anchor x="845" y="1500" name="top"/>
  <outline>
    <contour>
      <point x="28" y="0" type="line"/>
      <point x="520" y="0" type="line"/>
      <point x="520" y="42" type="line"/>
      <point x="250" y="42" type="line"/>
      <point x="851" y="1453" type="line"/>
      <point x="834" y="1453" type="line"/>
      <point x="1436" y="42" type="line"/>
      <point x="1166" y="42" type="line"/>
      <point x="1166" y="0" type="line"/>
      <point x="1662" y="0" type="line"/>
      <point x="1662" y="42" type="line"/>
      <point x="1488" y="42" type="line"/>
      <point x="864" y="1500" type="line"/>
      <point x="826" y="1500" type="line"/>
      <point x="202" y="42" type="line"/>
      <point x="28" y="42" type="line"/>
    </contour>
    <contour>
      <point x="436" y="516" type="line"/>
      <point x="1252" y="516" type="line"/>
      <point x="1252" y="560" type="line"/>
      <point x="436" y="560" type="line"/>
    </contour>
    <contour>
      <point x="851" y="1650" type="line"/>
      <point x="902" y="1650" type="line"/>
      <point x="658" y="1960" type="line"/>
      <point x="598" y="1960" type="line"/>
    </contour>
  </outline>
</glyph>
<glyph name="Acircumflex" format="2">
  <advance width="1690"/>
  <unicode hex="00C2"/>
  <anchor x="845" y="0" name="bottom"/>
  <anchor x="1590" y="0" name="ogonek"/>
  <anchor x="1141" y="1730" name="side"/>
  <anchor x="845" y="1940" name="top"/>
  <outline>
    <contour>
      <point x="28" y="0" type="line"/>
      <point x="520" y="0" type="line"/>
      <point x="520" y="42" type="line"/>
      <point x="250" y="42" type="line"/>
      <point x="851" y="1453" type="line"/>
      <point x="834" y="1453" type="line"/>
      <point x="1436" y="42" type="line"/>
      <point x="1166" y="42" type="line"/>
      <point x="1166" y="0" type="line"/>
      <point x="1662" y="0" type="line"/>
      <point x="1662" y="42" type="line"/>
      <point x="1488" y="42" type="line"/>
      <point x="864" y="1500" type="line"/>
      <point x="826" y="1500" type="line"/>
      <point x="202" y="42" type="line"/>
      <point x="28" y="42" type="line"/>
    </contour>
    <contour>
      <point x="436" y="516" type="line"/>
      <point x="1252" y="516" type="line"/>
      <point x="1252" y="560" type="line"/>
      <point x="436" y="560" type="line"/>
    </contour>
    <contour>
      <point x="579" y="1650" type="line"/>
      <point x="629" y="1650" type="line"/>
      <point x="856" y="1933" type="line"/>
      <point x="831" y="1933" type="line"/>
      <point x="1060" y="1650" type="line"/>
      <point x="1111" y="1650" type="line"/>
      <point x="865" y="1960" type="line"/>
      <point x="825" y="1960" type="line"/>
    </contour>
  </outline>
</glyph>
<glyph name="Atilde" format="2">
  <advance width="1690"/>
  <unicode hex="00C3"/>
  <anchor x="845" y="0" name="bottom"/>
  <anchor x="1590" y="0" name="ogonek"/>
  <anchor x="845" y="1824" name="top"/>
  <outline>
    <contour>
      <point x="28" y="0" type="line"/>
      <point x="520" y="0" type="line"/>
      <point x="520" y="42" type="line"/>
      <point x="250" y="42" type="line"/>
      <point x="851" y="1453" type="line"/>
      <point x="834" y="1453" type="line"/>
      <point x="1436" y="42" type="line"/>
      <point x="1166" y="42" type="line"/>
      <point x="1166" y="0" type="line"/>
      <point x="1662" y="0" type="line"/>
      <point x="1662" y="42" type="line"/>
      <point x="1488" y="42" type="line"/>
      <point x="864" y="1500" type="line"/>
      <point x="826" y="1500" type="line"/>
      <point x="202" y="42" type="line"/>
      <point x="28" y="42" type="line"/>
    </contour>
    <contour>
      <point x="436" y="516" type="line"/>
      <point x="1252" y="516" type="line"/>
      <point x="1252" y="560" type="line"/>
      <point x="436" y="560" type="line"/>
    </contour>
    <contour>
      <point x="983" y="1638" type="curve" smooth="yes"/>
      <point x="1068" y="1638"/>
      <point x="1103" y="1700"/>
      <point x="1103" y="1805" type="curve" smooth="yes"/>
      <point x="1103" y="1880" type="line"/>
      <point x="1063" y="1880" type="line"/>
      <point x="1063" y="1809" type="line" smooth="yes"/>
      <point x="1063" y="1718"/>
      <point x="1040" y="1678"/>
      <point x="983" y="1678" type="curve" smooth="yes"/>
      <point x="930" y="1678"/>
      <point x="903" y="1723"/>
      <point x="873" y="1763" type="curve" smooth="yes"/>
      <point x="852" y="1791" type="line"/>
      <point x="817" y="1767" type="line"/>
      <point x="838" y="1739" type="line" smooth="yes"/>
      <point x="872" y="1693"/>
      <point x="908" y="1638"/>
    </contour>
    <contour>
      <point x="587" y="1725" type="curve" smooth="yes"/>
      <point x="587" y="1650" type="line"/>
      <point x="627" y="1650" type="line"/>
      <point x="627" y="1721" type="line" smooth="yes"/>
      <point x="627" y="1812"/>
      <point x="650" y="1852"/>
      <point x="707" y="1852" type="curve" smooth="yes"/>
      <point x="760" y="1852"/>
      <point x="787" y="1807"/>
      <point x="817" y="1767" type="curve" smooth="yes"/>
      <point x="838" y="1739" type="line"/>
      <point x="873" y="1763" type="line"/>
      <point x="852" y="1791" type="line" smooth="yes"/>
      <point x="818" y="1837"/>
      <point x="782" y="1892"/>
      <point x="707" y="1892" type="curve" smooth="yes"/>
      <point x="622" y="1892"/>
      <point x="587" y="1830"/>
    </contour>
  </outline>
</glyph>
<glyph name="Adieresis" format="2">
  <advance width="1690"/>
  <unicode hex="00C4"/>
  <anchor x="845" y="0" name="bottom"/>
  <anchor x="1590" y="0" name="ogonek"/>
  <anchor x="845" y="1834" name="top"/>
  <outline>
    <contour>
      <point x="28" y="0" type="line"/>
      <point x="520" y="0" type="line"/>
      <point x="520" y="42" type="line"/>
      <point x="250" y="42" type="line"/>
      <point x="851" y="1453" type="line"/>
      <point x="834" y="1453" type="line"/>
      <point x="1436" y="42" type="line"/>
      <point x="1166" y="42" type="line"/>
      <point x="1166" y="0" type="line"/>
      <point x="1662" y="0" type="line"/>
      <point x="1662" y="42" type="line"/>
      <point x="1488" y="42" type="line"/>
      <point x="864" y="1500" type="line"/>
      <point x="826" y="1500" type="line"/>
      <point x="202" y="42" type="line"/>
      <point x="28" y="42" type="line"/>
    </contour>
    <contour>
      <point x="436" y="516" type="line"/>
      <point x="1252" y="516" type="line"/>
      <point x="1252" y="560" type="line"/>
      <point x="436" y="560" type="line"/>
    </contour>
    <contour>
      <point x="1054" y="1702" type="curve" smooth="yes"/>
      <point x="1090" y="1702"/>
      <point x="1113" y="1728"/>
      <point x="1113" y="1764" type="curve" smooth="yes"/>
      <point x="1113" y="1800"/>
      <point x="1090" y="1826"/>
      <point x="1054" y="1826" type="curve" smooth="yes"/>
      <point x="1018" y="1826"/>
      <point x="995" y="1800"/>
      <point x="995" y="1764" type="curve" smooth="yes"/>
      <point x="995" y="1728"/>
      <point x="1018" y="1702"/>
    </contour>
    <contour>
      <point x="636" y="1702" type="curve" smooth="yes"/>
      <point x="672" y="1702"/>
      <point x="695" y="1728"/>
      <point x="695" y="1764" type="curve" smooth="yes"/>
      <point x="695" y="1800"/>
      <point x="672" y="1826"/>
      <point x="636" y="1826" type="curve" smooth="yes"/>
      <point x="600" y="1826"/>
      <point x="577" y="1800"/>
      <point x="577" y="1764" type="curve" smooth="yes"/>
      <point x="577" y="1728"/>
      <point x="600" y="1702"/>
    </contour>
  </outline>
</glyph>
<glyph name="Aring" format="2">
  <advance width="1690"/>
  <unicode hex="00C5"/>
  <anchor x="845" y="0" name="bottom"/>
  <anchor x="1590" y="0" name="ogonek"/>
  <anchor x="845" y="1952" name="top"/>
  <outline>
    <contour>
      <point x="28" y="0" type="line"/>
      <point x="520" y="0" type="line"/>
      <point x="520" y="42" type="line"/>
      <point x="250" y="42" type="line"/>
      <point x="851" y="1453" type="line"/>
      <point x="834" y="1453" type="line"/>
      <point x="1436" y="42" type="line"/>
      <point x="1166" y="42" type="line"/>
      <point x="1166" y="0" type="line"/>
      <point x="1662" y="0" type="line"/>
      <point x="1662" y="42" type="line"/>
      <point x="1488" y="42" type="line"/>
      <point x="864" y="1500" type="line"/>
      <point x="826" y="1500" type="line"/>
      <point x="202" y="42" type="line"/>
      <point x="28" y="42" type="line"/>
    </contour>
    <contour>
      <point x="436" y="516" type="line"/>
      <point x="1252" y="516" type="line"/>
      <point x="1252" y="560" type="line"/>
      <point x="436" y="560" type="line"/>
    </contour>
    <contour>
      <point x="845" y="1640" type="curve" smooth="yes"/>
      <point x="946" y="1640"/>
      <point x="1024" y="1703"/>
      <point x="1024" y="1813" type="curve" smooth="yes"/>
      <point x="1024" y="1923"/>
      <point x="946" y="1986"/>
      <point x="845" y="1986" type="curve" smooth="yes"/>
      <point x="744" y="1986"/>
      <point x="666" y="1923"/>
      <point x="666" y="1813" type="curve" smooth="yes"/>
      <point x="666" y="1703"/>
      <point x="744" y="1640"/>
    </contour>
    <contour>
      <point x="845" y="1676" type="curve" smooth="yes"/>
      <point x="766" y="1676"/>
      <point x="710" y="1727"/>
      <point x="710" y="1813" type="curve" smooth="yes"/>
      <point x="710" y="1899"/>
      <point x="766" y="1950"/>
      <point x="845" y="1950" type="curve" smooth="yes"/>
      <point x="924" y="1950"/>
      <point x="980" y="1899"/>
      <point x="980" y="1813" type="curve" smooth="yes"/>
      <point x="980" y="1727"/>
      <point x="924" y="1676"/>
    </contour>
  </outline>
</glyph>
<glyph name="AE" format="2">
  <advance width="2408"/>
  <unicode hex="00C6"/>
  <anchor x="1266" y="1500" name="top"/>
  <outline>
    <contour>
      <point x="28" y="0" type="line"/>
      <point x="526" y="0" type="line"/>
      <point x="526" y="42" type="line"/>
      <point x="261" y="42" type="line"/>
      <point x="1249" y="1500" type="line"/>
      <point x="1198" y="1500" type="line"/>
      <point x="209" y="42" type="line"/>
      <point x="28" y="42" type="line"/>
    </contour>
    <contour>
      <point x="571" y="516" type="line"/>
      <point x="1218" y="516" type="line"/>
      <point x="1218" y="560" type="line"/>
      <point x="571" y="560" type="line"/>
    </contour>
    <contour>
      <point x="1266" y="0" type="line"/>
      <point x="2270" y="0" type="line"/>
      <point x="2270" y="44" type="line"/>
      <point x="1266" y="44" type="line"/>
    </contour>
    <contour>
      <point x="980" y="0" type="line"/>
      <point x="1266" y="0" type="line"/>
      <point x="1266" y="1500" type="line"/>
      <point x="939" y="1500" type="line"/>
      <point x="939" y="1458" type="line"/>
      <point x="1218" y="1458" type="line"/>
      <point x="1218" y="42" type="line"/>
      <point x="980" y="42" type="line"/>
    </contour>
    <contour>
      <point x="1774" y="648" type="curve" smooth="yes"/>
      <point x="1774" y="364" type="line"/>
      <point x="1816" y="364" type="line"/>
      <point x="1816" y="770" type="line"/>
      <point x="1656" y="770" type="line" smooth="yes"/>
      <point x="1750" y="770"/>
      <point x="1774" y="746"/>
    </contour>
    <contour>
      <point x="1266" y="770" type="line"/>
      <point x="1816" y="770" type="line"/>
      <point x="1816" y="814" type="line"/>
      <point x="1266" y="814" type="line"/>
    </contour>
    <contour>
      <point x="2100" y="44" type="curve" smooth="yes"/>
      <point x="2270" y="44" type="line"/>
      <point x="2270" y="520" type="line"/>
      <point x="2226" y="520" type="line"/>
      <point x="2226" y="174" type="line" smooth="yes"/>
      <point x="2226" y="70"/>
      <point x="2200" y="44"/>
    </contour>
    <contour>
      <point x="1656" y="814" type="curve" smooth="yes"/>
      <point x="1816" y="814" type="line"/>
      <point x="1816" y="1146" type="line"/>
      <point x="1774" y="1146" type="line"/>
      <point x="1774" y="936" type="line" smooth="yes"/>
      <point x="1774" y="838"/>
      <point x="1750" y="814"/>
    </contour>
    <contour>
      <point x="1266" y="1456" type="line"/>
      <point x="2252" y="1456" type="line"/>
      <point x="2252" y="1500" type="line"/>
      <point x="1266" y="1500" type="line"/>
    </contour>
    <contour>
      <point x="2208" y="1326" type="curve" smooth="yes"/>
      <point x="2208" y="1000" type="line"/>
      <point x="2252" y="1000" type="line"/>
      <point x="2252" y="1456" type="line"/>
      <point x="2082" y="1456" type="line" smooth="yes"/>
      <point x="2182" y="1456"/>
      <point x="2208" y="1430"/>
    </contour>
  </outline>
</glyph>
<glyph name="Ccedilla" format="2">
  <advance width="1724"/>
  <unicode hex="00C7"/>
  <anchor x="862" y="0" name="bottom"/>
  <anchor x="900" y="1500" name="top"/>
  <outline>
    <contour>
      <point x="890" y="-24" type="curve" smooth="yes"/>
      <point x="1325" y="-24"/>
      <point x="1558" y="243"/>
      <point x="1566" y="548" type="curve"/>
      <point x="1522" y="548" type="line"/>
      <point x="1509" y="264"/>
      <point x="1296" y="20"/>
      <point x="890" y="20" type="curve" smooth="yes"/>
      <point x="493" y="20"/>
      <point x="186" y="306"/>
      <point x="186" y="750" type="curve" smooth="yes"/>
      <point x="186" y="1194"/>
      <point x="489" y="1480"/>
      <point x="880" y="1480" type="curve" smooth="yes"/>
      <point x="1299" y="1480"/>
      <point x="1489" y="1239"/>
      <point x="1512" y="980" type="curve"/>
      <point x="1543" y="980" type="line"/>
      <point x="1533" y="1303"/>
      <point x="1290" y="1524"/>
      <point x="880" y="1524" type="curve" smooth="yes"/>
      <point x="463" y="1524"/>
      <point x="138" y="1239"/>
      <point x="138" y="750" type="curve" smooth="yes"/>
      <point x="138" y="261"/>
      <point x="467" y="-24"/>
    </contour>
    <contour>
      <point x="1543" y="980" type="line"/>
      <point x="1556" y="980" type="line"/>
      <point x="1556" y="1500" type="line"/>
      <point x="1512" y="1500" type="line"/>
      <point x="1512" y="1054" type="line"/>
    </contour>
    <contour>
      <point x="859" y="-415" type="curve" smooth="yes"/>
      <point x="973" y="-415"/>
      <point x="1044" y="-364"/>
      <point x="1044" y="-270" type="curve" smooth="yes"/>
      <point x="1044" y="-174"/>
      <point x="962" y="-144"/>
      <point x="893" y="-144" type="curve" smooth="yes"/>
      <point x="861" y="-144" type="line"/>
      <point x="885" y="10" type="line"/>
      <point x="839" y="10" type="line"/>
      <point x="808" y="-186" type="line"/>
      <point x="889" y="-186" type="line" smooth="yes"/>
      <point x="951" y="-186"/>
      <point x="996" y="-213"/>
      <point x="996" y="-271" type="curve" smooth="yes"/>
      <point x="996" y="-335"/>
      <point x="957" y="-375"/>
      <point x="859" y="-375" type="curve" smooth="yes"/>
      <point x="804" y="-375"/>
      <point x="750" y="-357"/>
      <point x="708" y="-333" type="curve"/>
      <point x="690" y="-371" type="line"/>
      <point x="735" y="-397"/>
      <point x="794" y="-415"/>
    </contour>
  </outline>
</glyph>
<glyph name="Edieresis" format="2">
  <advance width="1540"/>
  <unicode hex="00CB"/>
  <anchor x="770" y="0" name="bottom"/>
  <anchor x="1402" y="0" name="ogonek"/>
  <anchor x="806" y="1834" name="top"/>
  <outline>
    <contour>
      <point x="72" y="0" type="line"/>
      <point x="358" y="0" type="line"/>
      <point x="358" y="1500" type="line"/>
      <point x="77" y="1500" type="line"/>
      <point x="77" y="1458" type="line"/>
      <point x="310" y="1458" type="line"/>
      <point x="310" y="42" type="line"/>
      <point x="72" y="42" type="line"/>
    </contour>
    <contour>
      <point x="358" y="0" type="line"/>
      <point x="1402" y="0" type="line"/>
      <point x="1402" y="44" type="line"/>
      <point x="358" y="44" type="line"/>
    </contour>
    <contour>
      <point x="886" y="648" type="curve" smooth="yes"/>
      <point x="886" y="364" type="line"/>
      <point x="928" y="364" type="line"/>
      <point x="928" y="770" type="line"/>
      <point x="768" y="770" type="line" smooth="yes"/>
      <point x="862" y="770"/>
      <point x="886" y="746"/>
    </contour>
    <contour>
      <point x="358" y="770" type="line"/>
      <point x="928" y="770" type="line"/>
      <point x="928" y="814" type="line"/>
      <point x="358" y="814" type="line"/>
    </contour>
    <contour>
      <point x="1232" y="44" type="curve" smooth="yes"/>
      <point x="1402" y="44" type="line"/>
      <point x="1402" y="520" type="line"/>
      <point x="1358" y="520" type="line"/>
      <point x="1358" y="174" type="line" smooth="yes"/>
      <point x="1358" y="70"/>
      <point x="1332" y="44"/>
    </contour>
    <contour>
      <point x="768" y="814" type="curve" smooth="yes"/>
      <point x="928" y="814" type="line"/>
      <point x="928" y="1146" type="line"/>
      <point x="886" y="1146" type="line"/>
      <point x="886" y="936" type="line" smooth="yes"/>
      <point x="886" y="838"/>
      <point x="862" y="814"/>
    </contour>
    <contour>
      <point x="358" y="1456" type="line"/>
      <point x="1384" y="1456" type="line"/>
      <point x="1384" y="1500" type="line"/>
      <point x="358" y="1500" type="line"/>
    </contour>
    <contour>
      <point x="1340" y="1326" type="curve" smooth="yes"/>
      <point x="1340" y="1000" type="line"/>
      <point x="1384" y="1000" type="line"/>
      <point x="1384" y="1456" type="line"/>
      <point x="1214" y="1456" type="line" smooth="yes"/>
      <point x="1314" y="1456"/>
      <point x="1340" y="1430"/>
    </contour>
    <contour>
      <point x="1015" y="1702" type="curve" smooth="yes"/>
      <point x="1051" y="1702"/>
      <point x="1074" y="1728"/>
      <point x="1074" y="1764" type="curve" smooth="yes"/>
      <point x="1074" y="1800"/>
      <point x="1051" y="1826"/>
      <point x="1015" y="1826" type="curve" smooth="yes"/>
      <point x="979" y="1826"/>
      <point x="956" y="1800"/>
      <point x="956" y="1764" type="curve" smooth="yes"/>
      <point x="956" y="1728"/>
      <point x="979" y="1702"/>
    </contour>
    <contour>
      <point x="597" y="1702" type="curve" smooth="yes"/>
      <point x="633" y="1702"/>
      <point x="656" y="1728"/>
      <point x="656" y="1764" type="curve" smooth="yes"/>
      <point x="656" y="1800"/>
      <point x="633" y="1826"/>
      <point x="597" y="1826" type="curve" smooth="yes"/>
      <point x="561" y="1826"/>
      <point x="538" y="1800"/>
      <point x="538" y="1764" type="curve" smooth="yes"/>
      <point x="538" y="1728"/>
      <point x="561" y="1702"/>
    </contour>
  </outline>
</glyph>
<glyph name="Iacute" format="2">
  <advance width="702"/>
  <unicode hex="00CD"/>
  <anchor x="351" y="0" name="bottom"/>
  <anchor x="481" y="0" name="ogonek"/>
  <anchor x="351" y="1500" name="top"/>
  <anchor x="20" y="1500" name="topleft"/>
  <outline>
    <contour>
      <point x="68" y="0" type="line"/>
      <point x="634" y="0" type="line"/>
      <point x="634" y="42" type="line"/>
      <point x="375" y="42" type="line"/>
      <point x="375" y="1458" type="line"/>
      <point x="630" y="1458" type="line"/>
      <point x="630" y="1500" type="line"/>
      <point x="72" y="1500" type="line"/>
      <point x="72" y="1458" type="line"/>
      <point x="327" y="1458" type="line"/>
      <point x="327" y="42" type="line"/>
      <point x="68" y="42" type="line"/>
    </contour>
    <contour>
      <point x="294" y="1650" type="line"/>
      <point x="345" y="1650" type="line"/>
      <point x="598" y="1960" type="line"/>
      <point x="538" y="1960" type="line"/>
    </contour>
  </outline>
</glyph>
<glyph name="Icircumflex" format="2">
  <advance width="702"/>
  <unicode hex="00CE"/>
  <anchor x="351" y="0" name="bottom"/>
  <anchor x="481" y="0" name="ogonek"/>
  <anchor x="647" y="1730" name="side"/>
  <anchor x="351" y="1940" name="top"/>
  <anchor x="20" y="1500" name="topleft"/>
  <outline>
    <contour>
      <point x="68" y="0" type="line"/>
      <point x="634" y="0" type="line"/>
      <point x="634" y="42" type="line"/>
      <point x="375" y="42" type="line"/>
      <point x="375" y="1458" type="line"/>
      <point x="630" y="1458" type="line"/>
      <point x="630" y="1500" type="line"/>
      <point x="72" y="1500" type="line"/>
      <point x="72" y="1458" type="line"/>
      <point x="327" y="1458" type="line"/>
      <point x="327" y="42" type="line"/>
      <point x="68" y="42" type="line"/>
    </contour>
    <contour>
      <point x="85" y="1650" type="line"/>
      <point x="135" y="1650" type="line"/>
      <point x="362" y="1933" type="line"/>
      <point x="337" y="1933" type="line"/>
      <point x="566" y="1650" type="line"/>
      <point x="617" y="1650" type="line"/>
      <point x="371" y="1960" type="line"/>
      <point x="331" y="1960" type="line"/>
    </contour>
  </outline>
</glyph>
<glyph name="Idieresis" format="2">
  <advance width="702"/>
  <unicode hex="00CF"/>
  <anchor x="351" y="0" name="bottom"/>
  <anchor x="481" y="0" name="ogonek"/>
  <anchor x="351" y="1834" name="top"/>
  <anchor x="20" y="1500" name="topleft"/>
  <outline>
    <contour>
      <point x="68" y="0" type="line"/>
      <point x="634" y="0" type="line"/>
      <point x="634" y="42" type="line"/>
      <point x="375" y="42" type="line"/>
      <point x="375" y="1458" type="line"/>
      <point x="630" y="1458" type="line"/>
      <point x="630" y="1500" type="line"/>
      <point x="72" y="1500" type="line"/>
      <point x="72" y="1458" type="line"/>
      <point x="327" y="1458" type="line"/>
      <point x="327" y="42" type="line"/>
      <point x="68" y="42" type="line"/>
    </contour>
    <contour>
      <point x="560" y="1702" type="curve" smooth="yes"/>
      <point x="596" y="1702"/>
      <point x="619" y="1728"/>
      <point x="619" y="1764" type="curve" smooth="yes"/>
      <point x="619" y="1800"/>
      <point x="596" y="1826"/>
      <point x="560" y="1826" type="curve" smooth="yes"/>
      <point x="524" y="1826"/>
      <point x="501" y="1800"/>
      <point x="501" y="1764" type="curve" smooth="yes"/>
      <point x="501" y="1728"/>
      <point x="524" y="1702"/>
    </contour>
    <contour>
      <point x="142" y="1702" type="curve" smooth="yes"/>
      <point x="178" y="1702"/>
      <point x="201" y="1728"/>
      <point x="201" y="1764" type="curve" smooth="yes"/>
      <point x="201" y="1800"/>
      <point x="178" y="1826"/>
      <point x="142" y="1826" type="curve" smooth="yes"/>
      <point x="106" y="1826"/>
      <point x="83" y="1800"/>
      <point x="83" y="1764" type="curve" smooth="yes"/>
      <point x="83" y="1728"/>
      <point x="106" y="1702"/>
    </contour>
  </outline>
</glyph>
<glyph name="Ntilde" format="2">
  <advance width="1783"/>
  <unicode hex="00D1"/>
  <anchor x="902" y="0" name="bottom"/>
  <anchor x="912" y="1824" name="top"/>
  <outline>
    <contour>
      <point x="1446" y="0" type="line"/>
      <point x="1450" y="74" type="line"/>
      <point x="358" y="1500" type="line"/>
      <point x="354" y="1426" type="line"/>
    </contour>
    <contour>
      <point x="72" y="0" type="line"/>
      <point x="613" y="0" type="line"/>
      <point x="613" y="42" type="line"/>
      <point x="354" y="42" type="line"/>
      <point x="354" y="1426" type="line"/>
      <point x="358" y="1500" type="line"/>
      <point x="77" y="1500" type="line"/>
      <point x="77" y="1458" type="line"/>
      <point x="310" y="1458" type="line"/>
      <point x="310" y="42" type="line"/>
      <point x="72" y="42" type="line"/>
    </contour>
    <contour>
      <point x="1446" y="0" type="line"/>
      <point x="1494" y="0" type="line"/>
      <point x="1494" y="1458" type="line"/>
      <point x="1727" y="1458" type="line"/>
      <point x="1727" y="1500" type="line"/>
      <point x="1195" y="1500" type="line"/>
      <point x="1195" y="1458" type="line"/>
      <point x="1450" y="1458" type="line"/>
      <point x="1450" y="74" type="line"/>
      <point x="1440" y="74" type="line"/>
    </contour>
    <contour>
      <point x="1050" y="1638" type="curve" smooth="yes"/>
      <point x="1135" y="1638"/>
      <point x="1170" y="1700"/>
      <point x="1170" y="1805" type="curve" smooth="yes"/>
      <point x="1170" y="1880" type="line"/>
      <point x="1130" y="1880" type="line"/>
      <point x="1130" y="1809" type="line" smooth="yes"/>
      <point x="1130" y="1718"/>
      <point x="1107" y="1678"/>
      <point x="1050" y="1678" type="curve" smooth="yes"/>
      <point x="997" y="1678"/>
      <point x="970" y="1723"/>
      <point x="940" y="1763" type="curve" smooth="yes"/>
      <point x="919" y="1791" type="line"/>
      <point x="884" y="1767" type="line"/>
      <point x="905" y="1739" type="line" smooth="yes"/>
      <point x="939" y="1693"/>
      <point x="975" y="1638"/>
    </contour>
    <contour>
      <point x="654" y="1725" type="curve" smooth="yes"/>
      <point x="654" y="1650" type="line"/>
      <point x="694" y="1650" type="line"/>
      <point x="694" y="1721" type="line" smooth="yes"/>
      <point x="694" y="1812"/>
      <point x="717" y="1852"/>
      <point x="774" y="1852" type="curve" smooth="yes"/>
      <point x="827" y="1852"/>
      <point x="854" y="1807"/>
      <point x="884" y="1767" type="curve" smooth="yes"/>
      <point x="905" y="1739" type="line"/>
      <point x="940" y="1763" type="line"/>
      <point x="919" y="1791" type="line" smooth="yes"/>
      <point x="885" y="1837"/>
      <point x="849" y="1892"/>
      <point x="774" y="1892" type="curve" smooth="yes"/>
      <point x="689" y="1892"/>
      <point x="654" y="1830"/>
    </contour>
  </outline>
</glyph>
<glyph name="Ograve" format="2">
  <advance width="1812"/>
  <unicode hex="00D2"/>
  <anchor x="906" y="0" name="bottom"/>
  <anchor x="1227" y="0" name="ogonek"/>
  <anchor x="906" y="1500" name="top"/>
  <anchor x="20" y="1500" name="topleft"/>
  <anchor x="1520" y="1260" name="topright"/>
  <outline>
    <contour>
      <point x="906" y="-24" type="curve" smooth="yes"/>
      <point x="1350" y="-24"/>
      <point x="1674" y="260"/>
      <point x="1674" y="750" type="curve" smooth="yes"/>
      <point x="1674" y="1240"/>
      <point x="1350" y="1524"/>
      <point x="906" y="1524" type="curve" smooth="yes"/>
      <point x="462" y="1524"/>
      <point x="138" y="1240"/>
      <point x="138" y="750" type="curve" smooth="yes"/>
      <point x="138" y="260"/>
      <point x="462" y="-24"/>
    </contour>
    <contour>
      <point x="906" y="20" type="curve" smooth="yes"/>
      <point x="474" y="20"/>
      <point x="186" y="308"/>
      <point x="186" y="750" type="curve" smooth="yes"/>
      <point x="186" y="1192"/>
      <point x="474" y="1480"/>
      <point x="906" y="1480" type="curve" smooth="yes"/>
      <point x="1338" y="1480"/>
      <point x="1626" y="1192"/>
      <point x="1626" y="750" type="curve" smooth="yes"/>
      <point x="1626" y="308"/>
      <point x="1338" y="20"/>
    </contour>
    <contour>
      <point x="912" y="1650" type="line"/>
      <point x="963" y="1650" type="line"/>
      <point x="719" y="1960" type="line"/>
      <point x="659" y="1960" type="line"/>
    </contour>
  </outline>
</glyph>
<glyph name="multiply" format="2">
  <advance width="1030"/>
  <unicode hex="00D7"/>
  <outline>
    <contour>
      <point x="140" y="350" type="line"/>
      <point x="112" y="378" type="line"/>
      <point x="890" y="1156" type="line"/>
      <point x="918" y="1128" type="line"/>
    </contour>
    <contour>
      <point x="890" y="350" type="line"/>
      <point x="918" y="378" type="line"/>
      <point x="140" y="1156" type="line"/>
      <point x="112" y="1128" type="line"/>
    </contour>
  </outline>
</glyph>
<glyph name="Udieresis" format="2">
  <advance width="1802"/>
  <unicode hex="00DC"/>
  <anchor x="901" y="0" name="bottom"/>
  <anchor x="1214" y="0" name="ogonek"/>
  <anchor x="912" y="1834" name="top"/>
  <anchor x="1513" y="1500" name="topright"/>
  <outline>
    <contour>
      <point x="901" y="-24" type="curve" smooth="yes"/>
      <point x="1307" y="-24"/>
      <point x="1513" y="207"/>
      <point x="1513" y="614" type="curve" smooth="yes"/>
      <point x="1513" y="1458" type="line"/>
      <point x="1746" y="1458" type="line"/>
      <point x="1746" y="1500" type="line"/>
      <point x="1214" y="1500" type="line"/>
      <point x="1214" y="1458" type="line"/>
      <point x="1469" y="1458" type="line"/>
      <point x="1469" y="614" type="line" smooth="yes"/>
      <point x="1469" y="250"/>
      <point x="1289" y="20"/>
      <point x="903" y="20" type="curve" smooth="yes"/>
      <point x="517" y="20"/>
      <point x="337" y="250"/>
      <point x="337" y="614" type="curve" smooth="yes"/>
      <point x="337" y="1458" type="line"/>
      <point x="592" y="1458" type="line"/>
      <point x="592" y="1500" type="line"/>
      <point x="56" y="1500" type="line"/>
      <point x="56" y="1458" type="line"/>
      <point x="289" y="1458" type="line"/>
      <point x="289" y="614" type="line" smooth="yes"/>
      <point x="289" y="207"/>
      <point x="495" y="-24"/>
    </contour>
    <contour>
      <point x="1121" y="1702" type="curve" smooth="yes"/>
      <point x="1157" y="1702"/>
      <point x="1180" y="1728"/>
      <point x="1180" y="1764" type="curve" smooth="yes"/>
      <point x="1180" y="1800"/>
      <point x="1157" y="1826"/>
      <point x="1121" y="1826" type="curve" smooth="yes"/>
      <point x="1085" y="1826"/>
      <point x="1062" y="1800"/>
      <point x="1062" y="1764" type="curve" smooth="yes"/>
      <point x="1062" y="1728"/>
      <point x="1085" y="1702"/>
    </contour>
    <contour>
      <point x="703" y="1702" type="curve" smooth="yes"/>
      <point x="739" y="1702"/>
      <point x="762" y="1728"/>
      <point x="762" y="1764" type="curve" smooth="yes"/>
      <point x="762" y="1800"/>
      <point x="739" y="1826"/>
      <point x="703" y="1826" type="curve" smooth="yes"/>
      <point x="667" y="1826"/>
      <point x="644" y="1800"/>
      <point x="644" y="1764" type="curve" smooth="yes"/>
      <point x="644" y="1728"/>
      <point x="667" y="1702"/>
    </contour>
  </outline>
</glyph>
<glyph name="Yacute" format="2">
  <advance width="1612"/>
  <unicode hex="00DD"/>
  <anchor x="806" y="0" name="bottom"/>
  <anchor x="806" y="1500" name="top"/>
  <anchor x="20" y="1500" name="topleft"/>
  <outline>
    <contour>
      <point x="785" y="597" type="line"/>
      <point x="827" y="597" type="line"/>
      <point x="1452" y="1458" type="line"/>
      <point x="1608" y="1458" type="line"/>
      <point x="1608" y="1500" type="line"/>
      <point x="1118" y="1500" type="line"/>
      <point x="1118" y="1458" type="line"/>
      <point x="1399" y="1458" type="line"/>
      <point x="802" y="633" type="line"/>
      <point x="818" y="633" type="line"/>
      <point x="219" y="1458" type="line"/>
      <point x="499" y="1458" type="line"/>
      <point x="499" y="1500" type="line"/>
      <point x="4" y="1500" type="line"/>
      <point x="4" y="1458" type="line"/>
      <point x="160" y="1458" type="line"/>
    </contour>
    <contour>
      <point x="480" y="0" type="line"/>
      <point x="1132" y="0" type="line"/>
      <point x="1132" y="42" type="line"/>
      <point x="830" y="42" type="line"/>
      <point x="830" y="630" type="line"/>
      <point x="782" y="630" type="line"/>
      <point x="782" y="42" type="line"/>
      <point x="480" y="42" type="line"/>
    </contour>
    <contour>
      <point x="749" y="1650" type="line"/>
      <point x="800" y="1650" type="line"/>
      <point x="1053" y="1960" type="line"/>
      <point x="993" y="1960" type="line"/>
    </contour>
  </outline>
</glyph>
<glyph name="Thorn" format="2">
  <advance width="1507"/>
  <unicode hex="00DE"/>
  <outline>
    <contour>
      <point x="68" y="0" type="line"/>
      <point x="634" y="0" type="line"/>
      <point x="634" y="42" type="line"/>
      <point x="375" y="42" type="line"/>
      <point x="375" y="1458" type="line"/>
      <point x="630" y="1458" type="line"/>
      <point x="630" y="1500" type="line"/>
      <point x="72" y="1500" type="line"/>
      <point x="72" y="1458" type="line"/>
      <point x="327" y="1458" type="line"/>
      <point x="327" y="42" type="line"/>
      <point x="68" y="42" type="line"/>
    </contour>
    <contour>
      <point x="375" y="354" type="line"/>
      <point x="927" y="354" type="line" smooth="yes"/>
      <point x="1221" y="354"/>
      <point x="1417" y="495"/>
      <point x="1417" y="773" type="curve" smooth="yes"/>
      <point x="1417" y="1051"/>
      <point x="1221" y="1192"/>
      <point x="927" y="1192" type="curve" smooth="yes"/>
      <point x="375" y="1192" type="line"/>
      <point x="375" y="1148" type="line"/>
      <point x="915" y="1148" type="line" smooth="yes"/>
      <point x="1193" y="1148"/>
      <point x="1369" y="1022"/>
      <point x="1369" y="773" type="curve" smooth="yes"/>
      <point x="1369" y="524"/>
      <point x="1193" y="398"/>
      <point x="915" y="398" type="curve" smooth="yes"/>
      <point x="375" y="398" type="line"/>
    </contour>
  </outline>
</glyph>
<glyph name="ccedilla" format="2">
  <advance width="1250"/>
  <unicode hex="00E7"/>
  <anchor x="621" y="0" name="bottom"/>
  <anchor x="677" y="1100" name="top"/>
  <outline>
    <contour>
      <point x="666" y="-16" type="curve" smooth="yes"/>
      <point x="977" y="-16"/>
      <point x="1112" y="212"/>
      <point x="1124" y="361" type="curve"/>
      <point x="1080" y="361" type="line"/>
      <point x="1069" y="238"/>
      <point x="945" y="32"/>
      <point x="666" y="32" type="curve" smooth="yes"/>
      <point x="379" y="32"/>
      <point x="184" y="226"/>
      <point x="184" y="550" type="curve" smooth="yes"/>
      <point x="184" y="876"/>
      <point x="385" y="1072"/>
      <point x="678" y="1072" type="curve"/>
      <point x="678" y="1116" type="line"/>
      <point x="359" y="1116"/>
      <point x="134" y="910"/>
      <point x="134" y="550" type="curve" smooth="yes"/>
      <point x="134" y="190"/>
      <point x="354" y="-16"/>
    </contour>
    <contour>
      <point x="1036" y="691" type="curve" smooth="yes"/>
      <point x="1080" y="691"/>
      <point x="1106" y="730"/>
      <point x="1106" y="795" type="curve" smooth="yes"/>
      <point x="1106" y="943"/>
      <point x="968" y="1116"/>
      <point x="678" y="1116" type="curve"/>
      <point x="678" y="1072" type="line"/>
      <point x="948" y="1072"/>
      <point x="1062" y="918"/>
      <point x="1058" y="792" type="curve"/>
      <point x="1075" y="803" type="line"/>
      <point x="1029" y="809"/>
      <point x="982" y="790"/>
      <point x="982" y="743" type="curve" smooth="yes"/>
      <point x="982" y="711"/>
      <point x="1003" y="691"/>
    </contour>
    <contour>
      <point x="618" y="-415" type="curve" smooth="yes"/>
      <point x="732" y="-415"/>
      <point x="803" y="-364"/>
      <point x="803" y="-270" type="curve" smooth="yes"/>
      <point x="803" y="-174"/>
      <point x="721" y="-144"/>
      <point x="652" y="-144" type="curve" smooth="yes"/>
      <point x="620" y="-144" type="line"/>
      <point x="644" y="10" type="line"/>
      <point x="598" y="10" type="line"/>
      <point x="567" y="-186" type="line"/>
      <point x="648" y="-186" type="line" smooth="yes"/>
      <point x="710" y="-186"/>
      <point x="755" y="-213"/>
      <point x="755" y="-271" type="curve" smooth="yes"/>
      <point x="755" y="-335"/>
      <point x="716" y="-375"/>
      <point x="618" y="-375" type="curve" smooth="yes"/>
      <point x="563" y="-375"/>
      <point x="509" y="-357"/>
      <point x="467" y="-333" type="curve"/>
      <point x="449" y="-371" type="line"/>
      <point x="494" y="-397"/>
      <point x="553" y="-415"/>
    </contour>
  </outline>
</glyph>
<glyph name="igrave" format="2">
  <advance width="638"/>
  <unicode hex="00EC"/>
  <anchor x="319" y="0" name="bottom"/>
  <anchor x="470" y="0" name="ogonek"/>
  <anchor x="320" y="1100" name="top"/>
  <outline>
    <contour>
      <point x="100" y="0" type="line"/>
      <point x="558" y="0" type="line"/>
      <point x="558" y="42" type="line"/>
      <point x="364" y="42" type="line"/>
      <point x="364" y="1100" type="line"/>
      <point x="122" y="1100" type="line"/>
      <point x="122" y="1058" type="line"/>
      <point x="316" y="1058" type="line"/>
      <point x="316" y="42" type="line"/>
      <point x="100" y="42" type="line"/>
    </contour>
    <contour>
      <point x="326" y="1250" type="line"/>
      <point x="377" y="1250" type="line"/>
      <point x="133" y="1560" type="line"/>
      <point x="73" y="1560" type="line"/>
    </contour>
  </outline>
</glyph>
<glyph name="iacute" format="2">
  <advance width="638"/>
  <unicode hex="00ED"/>
  <anchor x="319" y="0" name="bottom"/>
  <anchor x="470" y="0" name="ogonek"/>
  <anchor x="320" y="1100" name="top"/>
  <outline>
    <contour>
      <point x="100" y="0" type="line"/>
      <point x="558" y="0" type="line"/>
      <point x="558" y="42" type="line"/>
      <point x="364" y="42" type="line"/>
      <point x="364" y="1100" type="line"/>
      <point x="122" y="1100" type="line"/>
      <point x="122" y="1058" type="line"/>
      <point x="316" y="1058" type="line"/>
      <point x="316" y="42" type="line"/>
      <point x="100" y="42" type="line"/>
    </contour>
    <contour>
      <point x="263" y="1250" type="line"/>
      <point x="314" y="1250" type="line"/>
      <point x="567" y="1560" type="line"/>
      <point x="507" y="1560" type="line"/>
    </contour>
  </outline>
</glyph>
<glyph name="icircumflex" format="2">
  <advance width="638"/>
  <unicode hex="00EE"/>
  <anchor x="319" y="0" name="bottom"/>
  <anchor x="470" y="0" name="ogonek"/>
  <anchor x="616" y="1330" name="side"/>
  <anchor x="320" y="1540" name="top"/>
  <outline>
    <contour>
      <point x="100" y="0" type="line"/>
      <point x="558" y="0" type="line"/>
      <point x="558" y="42" type="line"/>
      <point x="364" y="42" type="line"/>
      <point x="364" y="1100" type="line"/>
      <point x="122" y="1100" type="line"/>
      <point x="122" y="1058" type="line"/>
      <point x="316" y="1058" type="line"/>
      <point x="316" y="42" type="line"/>
      <point x="100" y="42" type="line"/>
    </contour>
    <contour>
      <point x="54" y="1250" type="line"/>
      <point x="104" y="1250" type="line"/>
      <point x="331" y="1533" type="line"/>
      <point x="306" y="1533" type="line"/>
      <point x="535" y="1250" type="line"/>
      <point x="586" y="1250" type="line"/>
      <point x="340" y="1560" type="line"/>
      <point x="300" y="1560" type="line"/>
    </contour>
  </outline>
</glyph>
<glyph name="idieresis" format="2">
  <advance width="638"/>
  <unicode hex="00EF"/>
  <anchor x="319" y="0" name="bottom"/>
  <anchor x="470" y="0" name="ogonek"/>
  <anchor x="320" y="1434" name="top"/>
  <outline>
    <contour>
      <point x="100" y="0" type="line"/>
      <point x="558" y="0" type="line"/>
      <point x="558" y="42" type="line"/>
      <point x="364" y="42" type="line"/>
      <point x="364" y="1100" type="line"/>
      <point x="122" y="1100" type="line"/>
      <point x="122" y="1058" type="line"/>
      <point x="316" y="1058" type="line"/>
      <point x="316" y="42" type="line"/>
      <point x="100" y="42" type="line"/>
    </contour>
    <contour>
      <point x="529" y="1302" type="curve" smooth="yes"/>
      <point x="565" y="1302"/>
      <point x="588" y="1328"/>
      <point x="588" y="1364" type="curve" smooth="yes"/>
      <point x="588" y="1400"/>
      <point x="565" y="1426"/>
      <point x="529" y="1426" type="curve" smooth="yes"/>
      <point x="493" y="1426"/>
      <point x="470" y="1400"/>
      <point x="470" y="1364" type="curve" smooth="yes"/>
      <point x="470" y="1328"/>
      <point x="493" y="1302"/>
    </contour>
    <contour>
      <point x="111" y="1302" type="curve" smooth="yes"/>
      <point x="147" y="1302"/>
      <point x="170" y="1328"/>
      <point x="170" y="1364" type="curve" smooth="yes"/>
      <point x="170" y="1400"/>
      <point x="147" y="1426"/>
      <point x="111" y="1426" type="curve" smooth="yes"/>
      <point x="75" y="1426"/>
      <point x="52" y="1400"/>
      <point x="52" y="1364" type="curve" smooth="yes"/>
      <point x="52" y="1328"/>
      <point x="75" y="1302"/>
    </contour>
  </outline>
</glyph>
<glyph name="ntilde" format="2">
  <advance width="1410"/>
  <unicode hex="00F1"/>
  <anchor x="703" y="0" name="bottom"/>
  <anchor x="705" y="1424" name="top"/>
  <outline>
    <contour>
      <point x="886" y="0" type="line"/>
      <point x="1336" y="0" type="line"/>
      <point x="1336" y="42" type="line"/>
      <point x="1150" y="42" type="line"/>
      <point x="1150" y="764" type="line" smooth="yes"/>
      <point x="1150" y="1018"/>
      <point x="1002" y="1116"/>
      <point x="792" y="1116" type="curve" smooth="yes"/>
      <point x="550" y="1116"/>
      <point x="328" y="954"/>
      <point x="328" y="552" type="curve"/>
      <point x="364" y="552" type="line"/>
      <point x="364" y="911"/>
      <point x="570" y="1072"/>
      <point x="790" y="1072" type="curve" smooth="yes"/>
      <point x="982" y="1072"/>
      <point x="1102" y="981"/>
      <point x="1102" y="764" type="curve" smooth="yes"/>
      <point x="1102" y="42" type="line"/>
      <point x="886" y="42" type="line"/>
    </contour>
    <contour>
      <point x="100" y="0" type="line"/>
      <point x="580" y="0" type="line"/>
      <point x="580" y="42" type="line"/>
      <point x="364" y="42" type="line"/>
      <point x="364" y="710" type="line"/>
      <point x="360" y="710" type="line"/>
      <point x="360" y="1100" type="line"/>
      <point x="122" y="1100" type="line"/>
      <point x="122" y="1058" type="line"/>
      <point x="316" y="1058" type="line"/>
      <point x="316" y="42" type="line"/>
      <point x="100" y="42" type="line"/>
    </contour>
    <contour>
      <point x="843" y="1238" type="curve" smooth="yes"/>
      <point x="928" y="1238"/>
      <point x="963" y="1300"/>
      <point x="963" y="1405" type="curve" smooth="yes"/>
      <point x="963" y="1480" type="line"/>
      <point x="923" y="1480" type="line"/>
      <point x="923" y="1409" type="line" smooth="yes"/>
      <point x="923" y="1318"/>
      <point x="900" y="1278"/>
      <point x="843" y="1278" type="curve" smooth="yes"/>
      <point x="790" y="1278"/>
      <point x="763" y="1323"/>
      <point x="733" y="1363" type="curve" smooth="yes"/>
      <point x="712" y="1391" type="line"/>
      <point x="677" y="1367" type="line"/>
      <point x="698" y="1339" type="line" smooth="yes"/>
      <point x="732" y="1293"/>
      <point x="768" y="1238"/>
    </contour>
    <contour>
      <point x="447" y="1325" type="curve" smooth="yes"/>
      <point x="447" y="1250" type="line"/>
      <point x="487" y="1250" type="line"/>
      <point x="487" y="1321" type="line" smooth="yes"/>
      <point x="487" y="1412"/>
      <point x="510" y="1452"/>
      <point x="567" y="1452" type="curve" smooth="yes"/>
      <point x="620" y="1452"/>
      <point x="647" y="1407"/>
      <point x="677" y="1367" type="curve" smooth="yes"/>
      <point x="698" y="1339" type="line"/>
      <point x="733" y="1363" type="line"/>
      <point x="712" y="1391" type="line" smooth="yes"/>
      <point x="678" y="1437"/>
      <point x="642" y="1492"/>
      <point x="567" y="1492" type="curve" smooth="yes"/>
      <point x="482" y="1492"/>
      <point x="447" y="1430"/>
    </contour>
  </outline>
</glyph>
<glyph name="ocircumflex" format="2">
  <advance width="1336"/>
  <unicode hex="00F4"/>
  <anchor x="668" y="0" name="bottom"/>
  <anchor x="921" y="0" name="ogonek"/>
  <anchor x="964" y="1330" name="side"/>
  <anchor x="668" y="1540" name="top"/>
  <anchor x="1086" y="940" name="topright"/>
  <outline>
    <contour>
      <point x="668" y="-16" type="curve" smooth="yes"/>
      <point x="982" y="-16"/>
      <point x="1202" y="190"/>
      <point x="1202" y="550" type="curve" smooth="yes"/>
      <point x="1202" y="910"/>
      <point x="982" y="1116"/>
      <point x="668" y="1116" type="curve" smooth="yes"/>
      <point x="354" y="1116"/>
      <point x="134" y="910"/>
      <point x="134" y="550" type="curve" smooth="yes"/>
      <point x="134" y="190"/>
      <point x="354" y="-16"/>
    </contour>
    <contour>
      <point x="668" y="28" type="curve" smooth="yes"/>
      <point x="380" y="28"/>
      <point x="182" y="224"/>
      <point x="182" y="550" type="curve" smooth="yes"/>
      <point x="182" y="876"/>
      <point x="380" y="1072"/>
      <point x="668" y="1072" type="curve" smooth="yes"/>
      <point x="956" y="1072"/>
      <point x="1154" y="876"/>
      <point x="1154" y="550" type="curve" smooth="yes"/>
      <point x="1154" y="224"/>
      <point x="956" y="28"/>
    </contour>
    <contour>
      <point x="402" y="1250" type="line"/>
      <point x="452" y="1250" type="line"/>
      <point x="679" y="1533" type="line"/>
      <point x="654" y="1533" type="line"/>
      <point x="883" y="1250" type="line"/>
      <point x="934" y="1250" type="line"/>
      <point x="688" y="1560" type="line"/>
      <point x="648" y="1560" type="line"/>
    </contour>
  </outline>
</glyph>
<glyph name="odieresis" format="2">
  <advance width="1336"/>
  <unicode hex="00F6"/>
  <anchor x="668" y="0" name="bottom"/>
  <anchor x="921" y="0" name="ogonek"/>
  <anchor x="668" y="1434" name="top"/>
  <anchor x="1086" y="940" name="topright"/>
  <outline>
    <contour>
      <point x="668" y="-16" type="curve" smooth="yes"/>
      <point x="982" y="-16"/>
      <point x="1202" y="190"/>
      <point x="1202" y="550" type="curve" smooth="yes"/>
      <point x="1202" y="910"/>
      <point x="982" y="1116"/>
      <point x="668" y="1116" type="curve" smooth="yes"/>
      <point x="354" y="1116"/>
      <point x="134" y="910"/>
      <point x="134" y="550" type="curve" smooth="yes"/>
      <point x="134" y="190"/>
      <point x="354" y="-16"/>
    </contour>
    <contour>
      <point x="668" y="28" type="curve" smooth="yes"/>
      <point x="380" y="28"/>
      <point x="182" y="224"/>
      <point x="182" y="550" type="curve" smooth="yes"/>
      <point x="182" y="876"/>
      <point x="380" y="1072"/>
      <point x="668" y="1072" type="curve" smooth="yes"/>
      <point x="956" y="1072"/>
      <point x="1154" y="876"/>
      <point x="1154" y="550" type="curve" smooth="yes"/>
      <point x="1154" y="224"/>
      <point x="956" y="28"/>
    </contour>
    <contour>
      <point x="877" y="1302" type="curve" smooth="yes"/>
      <point x="913" y="1302"/>
      <point x="936" y="1328"/>
      <point x="936" y="1364" type="curve" smooth="yes"/>
      <point x="936" y="1400"/>
      <point x="913" y="1426"/>
      <point x="877" y="1426" type="curve" smooth="yes"/>
      <point x="841" y="1426"/>
      <point x="818" y="1400"/>
      <point x="818" y="1364" type="curve" smooth="yes"/>
      <point x="818" y="1328"/>
      <point x="841" y="1302"/>
    </contour>
    <contour>
      <point x="459" y="1302" type="curve" smooth="yes"/>
      <point x="495" y="1302"/>
      <point x="518" y="1328"/>
      <point x="518" y="1364" type="curve" smooth="yes"/>
      <point x="518" y="1400"/>
      <point x="495" y="1426"/>
      <point x="459" y="1426" type="curve" smooth="yes"/>
      <point x="423" y="1426"/>
      <point x="400" y="1400"/>
      <point x="400" y="1364" type="curve" smooth="yes"/>
      <point x="400" y="1328"/>
      <point x="423" y="1302"/>
    </contour>
  </outline>
</glyph>
<glyph name="divide" format="2">
  <advance width="1222"/>
  <unicode hex="00F7"/>
  <outline>
    <contour>
      <point x="160" y="732" type="line"/>
      <point x="1062" y="732" type="line"/>
      <point x="1062" y="774" type="line"/>
      <point x="160" y="774" type="line"/>
    </contour>
    <contour>
      <point x="611" y="348" type="curve" smooth="yes"/>
      <point x="647" y="348"/>
      <point x="670" y="374"/>
      <point x="670" y="410" type="curve" smooth="yes"/>
      <point x="670" y="446"/>
      <point x="647" y="472"/>
      <point x="611" y="472" type="curve" smooth="yes"/>
      <point x="575" y="472"/>
      <point x="552" y="446"/>
      <point x="552" y="410" type="curve" smooth="yes"/>
      <point x="552" y="374"/>
      <point x="575" y="348"/>
    </contour>
    <contour>
      <point x="611" y="1034" type="curve" smooth="yes"/>
      <point x="647" y="1034"/>
      <point x="670" y="1060"/>
      <point x="670" y="1096" type="curve" smooth="yes"/>
      <point x="670" y="1132"/>
      <point x="647" y="1158"/>
      <point x="611" y="1158" type="curve" smooth="yes"/>
      <point x="575" y="1158"/>
      <point x="552" y="1132"/>
      <point x="552" y="1096" type="curve" smooth="yes"/>
      <point x="552" y="1060"/>
      <point x="575" y="1034"/>
    </contour>
  </outline>
</glyph>
<glyph name="udieresis" format="2">
  <advance width="1370"/>
  <unicode hex="00FC"/>
  <anchor x="686" y="0" name="bottom"/>
  <anchor x="1194" y="0" name="ogonek"/>
  <anchor x="650" y="1434" name="top"/>
  <anchor x="1096" y="1100" name="topright"/>
  <outline>
    <contour>
      <point x="618" y="-16" type="curve" smooth="yes"/>
      <point x="861" y="-16"/>
      <point x="1083" y="146"/>
      <point x="1083" y="548" type="curve"/>
      <point x="1048" y="548" type="line"/>
      <point x="1048" y="189"/>
      <point x="841" y="28"/>
      <point x="620" y="28" type="curve" smooth="yes"/>
      <point x="427" y="28"/>
      <point x="306" y="119"/>
      <point x="306" y="336" type="curve" smooth="yes"/>
      <point x="306" y="1102" type="line"/>
      <point x="72" y="1102" type="line"/>
      <point x="72" y="1060" type="line"/>
      <point x="258" y="1060" type="line"/>
      <point x="258" y="336" type="line" smooth="yes"/>
      <point x="258" y="82"/>
      <point x="407" y="-16"/>
    </contour>
    <contour>
      <point x="1056" y="0" type="line"/>
      <point x="1290" y="0" type="line"/>
      <point x="1290" y="42" type="line"/>
      <point x="1096" y="42" type="line"/>
      <point x="1096" y="1100" type="line"/>
      <point x="854" y="1100" type="line"/>
      <point x="854" y="1058" type="line"/>
      <point x="1048" y="1058" type="line"/>
      <point x="1048" y="390" type="line"/>
      <point x="1056" y="390" type="line"/>
    </contour>
    <contour>
      <point x="859" y="1302" type="curve" smooth="yes"/>
      <point x="895" y="1302"/>
      <point x="918" y="1328"/>
      <point x="918" y="1364" type="curve" smooth="yes"/>
      <point x="918" y="1400"/>
      <point x="895" y="1426"/>
      <point x="859" y="1426" type="curve" smooth="yes"/>
      <point x="823" y="1426"/>
      <point x="800" y="1400"/>
      <point x="800" y="1364" type="curve" smooth="yes"/>
      <point x="800" y="1328"/>
      <point x="823" y="1302"/>
    </contour>
    <contour>
      <point x="441" y="1302" type="curve" smooth="yes"/>
      <point x="477" y="1302"/>
      <point x="500" y="1328"/>
      <point x="500" y="1364" type="curve" smooth="yes"/>
      <point x="500" y="1400"/>
      <point x="477" y="1426"/>
      <point x="441" y="1426" type="curve" smooth="yes"/>
      <point x="405" y="1426"/>
      <point x="382" y="1400"/>
      <point x="382" y="1364" type="curve" smooth="yes"/>
      <point x="382" y="1328"/>
      <point x="405" y="1302"/>
    </contour>
  </outline>
</glyph>
<glyph name="ydieresis" format="2">
  <advance width="1248"/>
  <unicode hex="00FF"/>
  <anchor x="829" y="0" name="bottom"/>
  <anchor x="626" y="1434" name="top"/>
  <outline>
    <contour>
      <point x="292" y="-380" type="curve"/>
      <point x="292" y="-420" type="line"/>
      <point x="447" y="-420"/>
      <point x="519" y="-323"/>
      <point x="587" y="-156" type="curve" smooth="yes"/>
      <point x="1079" y="1058" type="line"/>
      <point x="1218" y="1058" type="line"/>
      <point x="1218" y="1100" type="line"/>
      <point x="804" y="1100" type="line"/>
      <point x="804" y="1058" type="line"/>
      <point x="1032" y="1058" type="line"/>
      <point x="623" y="45" type="line"/>
      <point x="613" y="24" type="line"/>
      <point x="546" y="-144" type="line" smooth="yes"/>
      <point x="491" y="-281"/>
      <point x="428" y="-380"/>
    </contour>
    <contour>
      <point x="292" y="-420" type="curve"/>
      <point x="292" y="-380" type="line"/>
      <point x="183" y="-380"/>
      <point x="117" y="-322"/>
      <point x="119" y="-226" type="curve"/>
      <point x="100" y="-241" type="line"/>
      <point x="155" y="-246"/>
      <point x="200" y="-228"/>
      <point x="200" y="-181" type="curve" smooth="yes"/>
      <point x="200" y="-149"/>
      <point x="178" y="-129"/>
      <point x="146" y="-129" type="curve" smooth="yes"/>
      <point x="103" y="-129"/>
      <point x="70" y="-164"/>
      <point x="70" y="-221" type="curve" smooth="yes"/>
      <point x="70" y="-354"/>
      <point x="163" y="-420"/>
    </contour>
    <contour>
      <point x="614" y="-39" type="line"/>
      <point x="629" y="45" type="line"/>
      <point x="221" y="1058" type="line"/>
      <point x="449" y="1058" type="line"/>
      <point x="449" y="1100" type="line"/>
      <point x="30" y="1100" type="line"/>
      <point x="30" y="1058" type="line"/>
      <point x="169" y="1058" type="line"/>
    </contour>
    <contour>
      <point x="835" y="1302" type="curve" smooth="yes"/>
      <point x="871" y="1302"/>
      <point x="894" y="1328"/>
      <point x="894" y="1364" type="curve" smooth="yes"/>
      <point x="894" y="1400"/>
      <point x="871" y="1426"/>
      <point x="835" y="1426" type="curve" smooth="yes"/>
      <point x="799" y="1426"/>
      <point x="776" y="1400"/>
      <point x="776" y="1364" type="curve" smooth="yes"/>
      <point x="776" y="1328"/>
      <point x="799" y="1302"/>
    </contour>
    <contour>
      <point x="417" y="1302" type="curve" smooth="yes"/>
      <point x="453" y="1302"/>
      <point x="476" y="1328"/>
      <point x="476" y="1364" type="curve" smooth="yes"/>
      <point x="476" y="1400"/>
      <point x="453" y="1426"/>
      <point x="417" y="1426" type="curve" smooth="yes"/>
      <point x="381" y="1426"/>
      <point x="358" y="1400"/>
      <point x="358" y="1364" type="curve" smooth="yes"/>
      <point x="358" y="1328"/>
      <point x="381" y="1302"/>
    </contour>
  </outline>
</glyph>
<glyph name="Abreve" format="2">
  <advance width="1690"/>
  <unicode hex="0102"/>
  <anchor x="845" y="0" name="bottom"/>
  <anchor x="1590" y="0" name="ogonek"/>
  <anchor x="845" y="1900" name="side"/>
  <anchor x="845" y="1940" name="top"/>
  <outline>
    <contour>
      <point x="28" y="0" type="line"/>
      <point x="520" y="0" type="line"/>
      <point x="520" y="42" type="line"/>
      <point x="250" y="42" type="line"/>
      <point x="851" y="1453" type="line"/>
      <point x="834" y="1453" type="line"/>
      <point x="1436" y="42" type="line"/>
      <point x="1166" y="42" type="line"/>
      <point x="1166" y="0" type="line"/>
      <point x="1662" y="0" type="line"/>
      <point x="1662" y="42" type="line"/>
      <point x="1488" y="42" type="line"/>
      <point x="864" y="1500" type="line"/>
      <point x="826" y="1500" type="line"/>
      <point x="202" y="42" type="line"/>
      <point x="28" y="42" type="line"/>
    </contour>
    <contour>
      <point x="436" y="516" type="line"/>
      <point x="1252" y="516" type="line"/>
      <point x="1252" y="560" type="line"/>
      <point x="436" y="560" type="line"/>
    </contour>
    <contour>
      <point x="845" y="1640" type="curve" smooth="yes"/>
      <point x="1027" y="1640"/>
      <point x="1115" y="1774"/>
      <point x="1115" y="1960" type="curve"/>
      <point x="1075" y="1960" type="line"/>
      <point x="1075" y="1806"/>
      <point x="999" y="1678"/>
      <point x="845" y="1678" type="curve" smooth="yes"/>
      <point x="691" y="1678"/>
      <point x="625" y="1806"/>
      <point x="625" y="1960" type="curve"/>
      <point x="585" y="1960" type="line"/>
      <point x="585" y="1774"/>
      <point x="663" y="1640"/>
    </contour>
  </outline>
</glyph>
<glyph name="Aogonek" format="2">
  <advance width="1690"/>
  <unicode hex="0104"/>
  <anchor x="845" y="0" name="bottom"/>
  <anchor x="1590" y="0" name="ogonek"/>
  <anchor x="845" y="1500" name="top"/>
  <outline>
    <contour>
      <point x="28" y="0" type="line"/>
      <point x="520" y="0" type="line"/>
      <point x="520" y="42" type="line"/>
      <point x="250" y="42" type="line"/>
      <point x="851" y="1453" type="line"/>
      <point x="834" y="1453" type="line"/>
      <point x="1436" y="42" type="line"/>
      <point x="1166" y="42" type="line"/>
      <point x="1166" y="0" type="line"/>
      <point x="1662" y="0" type="line"/>
      <point x="1662" y="42" type="line"/>
      <point x="1488" y="42" type="line"/>
      <point x="864" y="1500" type="line"/>
      <point x="826" y="1500" type="line"/>
      <point x="202" y="42" type="line"/>
      <point x="28" y="42" type="line"/>
    </contour>
    <contour>
      <point x="436" y="516" type="line"/>
      <point x="1252" y="516" type="line"/>
      <point x="1252" y="560" type="line"/>
      <point x="436" y="560" type="line"/>
    </contour>
    <contour>
      <point x="1468" y="-397" type="curve" smooth="yes"/>
      <point x="1544" y="-397"/>
      <point x="1590" y="-366"/>
      <point x="1619" y="-340" type="curve"/>
      <point x="1596" y="-311" type="line"/>
      <point x="1553" y="-342"/>
      <point x="1524" y="-357"/>
      <point x="1472" y="-357" type="curve" smooth="yes"/>
      <point x="1407" y="-357"/>
      <point x="1364" y="-314"/>
      <point x="1364" y="-244" type="curve" smooth="yes"/>
      <point x="1364" y="-156"/>
      <point x="1408" y="-84"/>
      <point x="1480" y="0" type="curve"/>
      <point x="1451" y="26" type="line"/>
      <point x="1382" y="-54"/>
      <point x="1318" y="-141"/>
      <point x="1318" y="-248" type="curve" smooth="yes"/>
      <point x="1318" y="-341"/>
      <point x="1384" y="-397"/>
    </contour>
  </outline>
</glyph>
<glyph name="ccircumflex" format="2">
  <advance width="1250"/>
  <unicode hex="0109"/>
  <anchor x="621" y="0" name="bottom"/>
  <anchor x="973" y="1330" name="side"/>
  <anchor x="677" y="1540" name="top"/>
  <outline>
    <contour>
      <point x="666" y="-16" type="curve" smooth="yes"/>
      <point x="977" y="-16"/>
      <point x="1112" y="212"/>
      <point x="1124" y="361" type="curve"/>
      <point x="1080" y="361" type="line"/>
      <point x="1069" y="238"/>
      <point x="945" y="32"/>
      <point x="666" y="32" type="curve" smooth="yes"/>
      <point x="379" y="32"/>
      <point x="184" y="226"/>
      <point x="184" y="550" type="curve" smooth="yes"/>
      <point x="184" y="876"/>
      <point x="385" y="1072"/>
      <point x="678" y="1072" type="curve"/>
      <point x="678" y="1116" type="line"/>
      <point x="359" y="1116"/>
      <point x="134" y="910"/>
      <point x="134" y="550" type="curve" smooth="yes"/>
      <point x="134" y="190"/>
      <point x="354" y="-16"/>
    </contour>
    <contour>
      <point x="1036" y="691" type="curve" smooth="yes"/>
      <point x="1080" y="691"/>
      <point x="1106" y="730"/>
      <point x="1106" y="795" type="curve" smooth="yes"/>
      <point x="1106" y="943"/>
      <point x="968" y="1116"/>
      <point x="678" y="1116" type="curve"/>
      <point x="678" y="1072" type="line"/>
      <point x="948" y="1072"/>
      <point x="1062" y="918"/>
      <point x="1058" y="792" type="curve"/>
      <point x="1075" y="803" type="line"/>
      <point x="1029" y="809"/>
      <point x="982" y="790"/>
      <point x="982" y="743" type="curve" smooth="yes"/>
      <point x="982" y="711"/>
      <point x="1003" y="691"/>
    </contour>
    <contour>
      <point x="411" y="1250" type="line"/>
      <point x="461" y="1250" type="line"/>
      <point x="688" y="1533" type="line"/>
      <point x="663" y="1533" type="line"/>
      <point x="892" y="1250" type="line"/>
      <point x="943" y="1250" type="line"/>
      <point x="697" y="1560" type="line"/>
      <point x="657" y="1560" type="line"/>
    </contour>
  </outline>
</glyph>
<glyph name="Cdotaccent" format="2">
  <advance width="1724"/>
  <unicode hex="010A"/>
  <anchor x="862" y="0" name="bottom"/>
  <anchor x="900" y="1838" name="top"/>
  <outline>
    <contour>
      <point x="890" y="-24" type="curve" smooth="yes"/>
      <point x="1325" y="-24"/>
      <point x="1558" y="243"/>
      <point x="1566" y="548" type="curve"/>
      <point x="1522" y="548" type="line"/>
      <point x="1509" y="264"/>
      <point x="1296" y="20"/>
      <point x="890" y="20" type="curve" smooth="yes"/>
      <point x="493" y="20"/>
      <point x="186" y="306"/>
      <point x="186" y="750" type="curve" smooth="yes"/>
      <point x="186" y="1194"/>
      <point x="489" y="1480"/>
      <point x="880" y="1480" type="curve" smooth="yes"/>
      <point x="1299" y="1480"/>
      <point x="1489" y="1239"/>
      <point x="1512" y="980" type="curve"/>
      <point x="1543" y="980" type="line"/>
      <point x="1533" y="1303"/>
      <point x="1290" y="1524"/>
      <point x="880" y="1524" type="curve" smooth="yes"/>
      <point x="463" y="1524"/>
      <point x="138" y="1239"/>
      <point x="138" y="750" type="curve" smooth="yes"/>
      <point x="138" y="261"/>
      <point x="467" y="-24"/>
    </contour>
    <contour>
      <point x="1543" y="980" type="line"/>
      <point x="1556" y="980" type="line"/>
      <point x="1556" y="1500" type="line"/>
      <point x="1512" y="1500" type="line"/>
      <point x="1512" y="1054" type="line"/>
    </contour>
    <contour>
      <point x="900" y="1702" type="curve" smooth="yes"/>
      <point x="936" y="1702"/>
      <point x="959" y="1728"/>
      <point x="959" y="1764" type="curve" smooth="yes"/>
      <point x="959" y="1800"/>
      <point x="936" y="1826"/>
      <point x="900" y="1826" type="curve" smooth="yes"/>
      <point x="864" y="1826"/>
      <point x="841" y="1800"/>
      <point x="841" y="1764" type="curve" smooth="yes"/>
      <point x="841" y="1728"/>
      <point x="864" y="1702"/>
    </contour>
  </outline>
</glyph>
<glyph name="cdotaccent" format="2">
  <advance width="1250"/>
  <unicode hex="010B"/>
  <anchor x="621" y="0" name="bottom"/>
  <anchor x="677" y="1438" name="top"/>
  <outline>
    <contour>
      <point x="666" y="-16" type="curve" smooth="yes"/>
      <point x="977" y="-16"/>
      <point x="1112" y="212"/>
      <point x="1124" y="361" type="curve"/>
      <point x="1080" y="361" type="line"/>
      <point x="1069" y="238"/>
      <point x="945" y="32"/>
      <point x="666" y="32" type="curve" smooth="yes"/>
      <point x="379" y="32"/>
      <point x="184" y="226"/>
      <point x="184" y="550" type="curve" smooth="yes"/>
      <point x="184" y="876"/>
      <point x="385" y="1072"/>
      <point x="678" y="1072" type="curve"/>
      <point x="678" y="1116" type="line"/>
      <point x="359" y="1116"/>
      <point x="134" y="910"/>
      <point x="134" y="550" type="curve" smooth="yes"/>
      <point x="134" y="190"/>
      <point x="354" y="-16"/>
    </contour>
    <contour>
      <point x="1036" y="691" type="curve" smooth="yes"/>
      <point x="1080" y="691"/>
      <point x="1106" y="730"/>
      <point x="1106" y="795" type="curve" smooth="yes"/>
      <point x="1106" y="943"/>
      <point x="968" y="1116"/>
      <point x="678" y="1116" type="curve"/>
      <point x="678" y="1072" type="line"/>
      <point x="948" y="1072"/>
      <point x="1062" y="918"/>
      <point x="1058" y="792" type="curve"/>
      <point x="1075" y="803" type="line"/>
      <point x="1029" y="809"/>
      <point x="982" y="790"/>
      <point x="982" y="743" type="curve" smooth="yes"/>
      <point x="982" y="711"/>
      <point x="1003" y="691"/>
    </contour>
    <contour>
      <point x="677" y="1302" type="curve" smooth="yes"/>
      <point x="713" y="1302"/>
      <point x="736" y="1328"/>
      <point x="736" y="1364" type="curve" smooth="yes"/>
      <point x="736" y="1400"/>
      <point x="713" y="1426"/>
      <point x="677" y="1426" type="curve" smooth="yes"/>
      <point x="641" y="1426"/>
      <point x="618" y="1400"/>
      <point x="618" y="1364" type="curve" smooth="yes"/>
      <point x="618" y="1328"/>
      <point x="641" y="1302"/>
    </contour>
  </outline>
</glyph>
<glyph name="dcaron" format="2">
  <advance width="1497"/>
  <unicode hex="010F"/>
  <anchor x="720" y="0" name="bottom"/>
  <anchor x="720" y="550" name="center"/>
  <anchor x="720" y="1560" name="top"/>
  <anchor x="1158" y="1560" name="topright"/>
  <outline>
    <contour>
      <point x="644" y="-16" type="curve" smooth="yes"/>
      <point x="961" y="-16"/>
      <point x="1154" y="198"/>
      <point x="1154" y="549" type="curve" smooth="yes"/>
      <point x="1154" y="551" type="line" smooth="yes"/>
      <point x="1154" y="902"/>
      <point x="961" y="1116"/>
      <point x="644" y="1116" type="curve" smooth="yes"/>
      <point x="347" y="1116"/>
      <point x="134" y="902"/>
      <point x="134" y="550" type="curve" smooth="yes"/>
      <point x="134" y="198"/>
      <point x="347" y="-16"/>
    </contour>
    <contour>
      <point x="644" y="28" type="curve" smooth="yes"/>
      <point x="373" y="28"/>
      <point x="182" y="223"/>
      <point x="182" y="550" type="curve" smooth="yes"/>
      <point x="182" y="877"/>
      <point x="373" y="1072"/>
      <point x="644" y="1072" type="curve" smooth="yes"/>
      <point x="919" y="1072"/>
      <point x="1114" y="877"/>
      <point x="1114" y="550" type="curve" smooth="yes"/>
      <point x="1114" y="223"/>
      <point x="919" y="28"/>
    </contour>
    <contour>
      <point x="1114" y="0" type="line"/>
      <point x="1352" y="0" type="line"/>
      <point x="1352" y="42" type="line"/>
      <point x="1158" y="42" type="line"/>
      <point x="1158" y="1560" type="line"/>
      <point x="916" y="1560" type="line"/>
      <point x="916" y="1518" type="line"/>
      <point x="1110" y="1518" type="line"/>
      <point x="1110" y="746" type="line"/>
      <point x="1140" y="550" type="line"/>
      <point x="1114" y="334" type="line"/>
    </contour>
    <contour>
      <point x="1382" y="1170" type="line"/>
      <point x="1422" y="1170" type="line"/>
      <point x="1459" y="1560" type="line"/>
      <point x="1408" y="1560" type="line"/>
    </contour>
  </outline>
</glyph>
<glyph name="ebreve" format="2">
  <advance width="1262"/>
  <unicode hex="0115"/>
  <anchor x="631" y="0" name="bottom"/>
  <anchor x="896" y="0" name="ogonek"/>
  <anchor x="631" y="1500" name="side"/>
  <anchor x="631" y="1540" name="top"/>
  <outline>
    <contour>
      <point x="646" y="-16" type="curve" smooth="yes"/>
      <point x="963" y="-16"/>
      <point x="1083" y="185"/>
      <point x="1110" y="324" type="curve"/>
      <point x="1065" y="324" type="line"/>
      <point x="1038" y="210"/>
      <point x="932" y="32"/>
      <point x="646" y="32" type="curve" smooth="yes"/>
      <point x="362" y="32"/>
      <point x="184" y="226"/>
      <point x="184" y="550" type="curve" smooth="yes"/>
      <point x="184" y="876"/>
      <point x="364" y="1072"/>
      <point x="648" y="1072" type="curve"/>
      <point x="648" y="1116" type="line"/>
      <point x="338" y="1116"/>
      <point x="134" y="910"/>
      <point x="134" y="550" type="curve" smooth="yes"/>
      <point x="134" y="190"/>
      <point x="336" y="-16"/>
    </contour>
    <contour>
      <point x="168" y="592" type="line"/>
      <point x="1128" y="592" type="line"/>
      <point x="1128" y="612" type="line"/>
      <point x="1084" y="636" type="line"/>
      <point x="168" y="636" type="line"/>
    </contour>
    <contour>
      <point x="1084" y="636" type="curve"/>
      <point x="1128" y="612" type="line"/>
      <point x="1128" y="908"/>
      <point x="962" y="1116"/>
      <point x="648" y="1116" type="curve"/>
      <point x="648" y="1072" type="line"/>
      <point x="936" y="1072"/>
      <point x="1072" y="878"/>
    </contour>
    <contour>
      <point x="631" y="1240" type="curve" smooth="yes"/>
      <point x="813" y="1240"/>
      <point x="901" y="1374"/>
      <point x="901" y="1560" type="curve"/>
      <point x="861" y="1560" type="line"/>
      <point x="861" y="1406"/>
      <point x="785" y="1278"/>
      <point x="631" y="1278" type="curve" smooth="yes"/>
      <point x="477" y="1278"/>
      <point x="411" y="1406"/>
      <point x="411" y="1560" type="curve"/>
      <point x="371" y="1560" type="line"/>
      <point x="371" y="1374"/>
      <point x="449" y="1240"/>
    </contour>
  </outline>
</glyph>
<glyph name="Eogonek" format="2">
  <advance width="1540"/>
  <unicode hex="0118"/>
  <anchor x="770" y="0" name="bottom"/>
  <anchor x="1402" y="0" name="ogonek"/>
  <anchor x="806" y="1500" name="top"/>
  <outline>
    <contour>
      <point x="72" y="0" type="line"/>
      <point x="358" y="0" type="line"/>
      <point x="358" y="1500" type="line"/>
      <point x="77" y="1500" type="line"/>
      <point x="77" y="1458" type="line"/>
      <point x="310" y="1458" type="line"/>
      <point x="310" y="42" type="line"/>
      <point x="72" y="42" type="line"/>
    </contour>
    <contour>
      <point x="358" y="0" type="line"/>
      <point x="1402" y="0" type="line"/>
      <point x="1402" y="44" type="line"/>
      <point x="358" y="44" type="line"/>
    </contour>
    <contour>
      <point x="886" y="648" type="curve" smooth="yes"/>
      <point x="886" y="364" type="line"/>
      <point x="928" y="364" type="line"/>
      <point x="928" y="770" type="line"/>
      <point x="768" y="770" type="line" smooth="yes"/>
      <point x="862" y="770"/>
      <point x="886" y="746"/>
    </contour>
    <contour>
      <point x="358" y="770" type="line"/>
      <point x="928" y="770" type="line"/>
      <point x="928" y="814" type="line"/>
      <point x="358" y="814" type="line"/>
    </contour>
    <contour>
      <point x="1232" y="44" type="curve" smooth="yes"/>
      <point x="1402" y="44" type="line"/>
      <point x="1402" y="520" type="line"/>
      <point x="1358" y="520" type="line"/>
      <point x="1358" y="174" type="line" smooth="yes"/>
      <point x="1358" y="70"/>
      <point x="1332" y="44"/>
    </contour>
    <contour>
      <point x="768" y="814" type="curve" smooth="yes"/>
      <point x="928" y="814" type="line"/>
      <point x="928" y="1146" type="line"/>
      <point x="886" y="1146" type="line"/>
      <point x="886" y="936" type="line" smooth="yes"/>
      <point x="886" y="838"/>
      <point x="862" y="814"/>
    </contour>
    <contour>
      <point x="358" y="1456" type="line"/>
      <point x="1384" y="1456" type="line"/>
      <point x="1384" y="1500" type="line"/>
      <point x="358" y="1500" type="line"/>
    </contour>
    <contour>
      <point x="1340" y="1326" type="curve" smooth="yes"/>
      <point x="1340" y="1000" type="line"/>
      <point x="1384" y="1000" type="line"/>
      <point x="1384" y="1456" type="line"/>
      <point x="1214" y="1456" type="line" smooth="yes"/>
      <point x="1314" y="1456"/>
      <point x="1340" y="1430"/>
    </contour>
    <contour>
      <point x="1280" y="-397" type="curve" smooth="yes"/>
      <point x="1356" y="-397"/>
      <point x="1402" y="-366"/>
      <point x="1431" y="-340" type="curve"/>
      <point x="1408" y="-311" type="line"/>
      <point x="1365" y="-342"/>
      <point x="1336" y="-357"/>
      <point x="1284" y="-357" type="curve" smooth="yes"/>
      <point x="1219" y="-357"/>
      <point x="1176" y="-314"/>
      <point x="1176" y="-244" type="curve" smooth="yes"/>
      <point x="1176" y="-156"/>
      <point x="1220" y="-84"/>
      <point x="1292" y="0" type="curve"/>
      <point x="1263" y="26" type="line"/>
      <point x="1194" y="-54"/>
      <point x="1130" y="-141"/>
      <point x="1130" y="-248" type="curve" smooth="yes"/>
      <point x="1130" y="-341"/>
      <point x="1196" y="-397"/>
    </contour>
  </outline>
</glyph>
<glyph name="eogonek" format="2">
  <advance width="1262"/>
  <unicode hex="0119"/>
  <anchor x="631" y="0" name="bottom"/>
  <anchor x="896" y="0" name="ogonek"/>
  <anchor x="631" y="1100" name="top"/>
  <outline>
    <contour>
      <point x="646" y="-16" type="curve" smooth="yes"/>
      <point x="963" y="-16"/>
      <point x="1083" y="185"/>
      <point x="1110" y="324" type="curve"/>
      <point x="1065" y="324" type="line"/>
      <point x="1038" y="210"/>
      <point x="932" y="32"/>
      <point x="646" y="32" type="curve" smooth="yes"/>
      <point x="362" y="32"/>
      <point x="184" y="226"/>
      <point x="184" y="550" type="curve" smooth="yes"/>
      <point x="184" y="876"/>
      <point x="364" y="1072"/>
      <point x="648" y="1072" type="curve"/>
      <point x="648" y="1116" type="line"/>
      <point x="338" y="1116"/>
      <point x="134" y="910"/>
      <point x="134" y="550" type="curve" smooth="yes"/>
      <point x="134" y="190"/>
      <point x="336" y="-16"/>
    </contour>
    <contour>
      <point x="168" y="592" type="line"/>
      <point x="1128" y="592" type="line"/>
      <point x="1128" y="612" type="line"/>
      <point x="1084" y="636" type="line"/>
      <point x="168" y="636" type="line"/>
    </contour>
    <contour>
      <point x="1084" y="636" type="curve"/>
      <point x="1128" y="612" type="line"/>
      <point x="1128" y="908"/>
      <point x="962" y="1116"/>
      <point x="648" y="1116" type="curve"/>
      <point x="648" y="1072" type="line"/>
      <point x="936" y="1072"/>
      <point x="1072" y="878"/>
    </contour>
    <contour>
      <point x="774" y="-397" type="curve" smooth="yes"/>
      <point x="850" y="-397"/>
      <point x="896" y="-366"/>
      <point x="925" y="-340" type="curve"/>
      <point x="902" y="-311" type="line"/>
      <point x="859" y="-342"/>
      <point x="830" y="-357"/>
      <point x="778" y="-357" type="curve" smooth="yes"/>
      <point x="713" y="-357"/>
      <point x="670" y="-314"/>
      <point x="670" y="-244" type="curve" smooth="yes"/>
      <point x="670" y="-156"/>
      <point x="714" y="-84"/>
      <point x="786" y="0" type="curve"/>
      <point x="757" y="26" type="line"/>
      <point x="688" y="-54"/>
      <point x="624" y="-141"/>
      <point x="624" y="-248" type="curve" smooth="yes"/>
      <point x="624" y="-341"/>
      <point x="690" y="-397"/>
    </contour>
  </outline>
</glyph>
<glyph name="Gdotaccent" format="2">
  <advance width="1802"/>
  <unicode hex="0120"/>
  <anchor x="901" y="0" name="bottom"/>
  <anchor x="901" y="1838" name="top"/>
  <outline>
    <contour>
      <point x="902" y="-24" type="curve" smooth="yes"/>
      <point x="1347" y="-24"/>
      <point x="1562" y="276"/>
      <point x="1558" y="678" type="curve"/>
      <point x="1524" y="678" type="line"/>
      <point x="1524" y="326"/>
      <point x="1319" y="20"/>
      <point x="902" y="20" type="curve" smooth="yes"/>
      <point x="493" y="20"/>
      <point x="186" y="306"/>
      <point x="186" y="750" type="curve" smooth="yes"/>
      <point x="186" y="1194"/>
      <point x="494" y="1480"/>
      <point x="896" y="1480" type="curve" smooth="yes"/>
      <point x="1283" y="1480"/>
      <point x="1459" y="1277"/>
      <point x="1482" y="1020" type="curve"/>
      <point x="1513" y="1020" type="line"/>
      <point x="1505" y="1333"/>
      <point x="1277" y="1524"/>
      <point x="896" y="1524" type="curve" smooth="yes"/>
      <point x="466" y="1524"/>
      <point x="138" y="1240"/>
      <point x="138" y="750" type="curve" smooth="yes"/>
      <point x="138" y="260"/>
      <point x="467" y="-24"/>
    </contour>
    <contour>
      <point x="1524" y="0" type="line"/>
      <point x="1568" y="0" type="line"/>
      <point x="1568" y="678" type="line"/>
      <point x="1558" y="678" type="line"/>
      <point x="1524" y="493" type="line"/>
    </contour>
    <contour>
      <point x="898" y="678" type="line"/>
      <point x="1798" y="678" type="line"/>
      <point x="1798" y="722" type="line"/>
      <point x="898" y="722" type="line"/>
    </contour>
    <contour>
      <point x="1513" y="1020" type="line"/>
      <point x="1526" y="1020" type="line"/>
      <point x="1526" y="1500" type="line"/>
      <point x="1482" y="1500" type="line"/>
      <point x="1482" y="1104" type="line"/>
    </contour>
    <contour>
      <point x="901" y="1702" type="curve" smooth="yes"/>
      <point x="937" y="1702"/>
      <point x="960" y="1728"/>
      <point x="960" y="1764" type="curve" smooth="yes"/>
      <point x="960" y="1800"/>
      <point x="937" y="1826"/>
      <point x="901" y="1826" type="curve" smooth="yes"/>
      <point x="865" y="1826"/>
      <point x="842" y="1800"/>
      <point x="842" y="1764" type="curve" smooth="yes"/>
      <point x="842" y="1728"/>
      <point x="865" y="1702"/>
    </contour>
  </outline>
</glyph>
<glyph name="Gcommaaccent" format="2">
  <advance width="1802"/>
  <unicode hex="0122"/>
  <anchor x="901" y="0" name="bottom"/>
  <anchor x="901" y="1500" name="top"/>
  <outline>
    <contour>
      <point x="902" y="-24" type="curve" smooth="yes"/>
      <point x="1347" y="-24"/>
      <point x="1562" y="276"/>
      <point x="1558" y="678" type="curve"/>
      <point x="1524" y="678" type="line"/>
      <point x="1524" y="326"/>
      <point x="1319" y="20"/>
      <point x="902" y="20" type="curve" smooth="yes"/>
      <point x="493" y="20"/>
      <point x="186" y="306"/>
      <point x="186" y="750" type="curve" smooth="yes"/>
      <point x="186" y="1194"/>
      <point x="494" y="1480"/>
      <point x="896" y="1480" type="curve" smooth="yes"/>
      <point x="1283" y="1480"/>
      <point x="1459" y="1277"/>
      <point x="1482" y="1020" type="curve"/>
      <point x="1513" y="1020" type="line"/>
      <point x="1505" y="1333"/>
      <point x="1277" y="1524"/>
      <point x="896" y="1524" type="curve" smooth="yes"/>
      <point x="466" y="1524"/>
      <point x="138" y="1240"/>
      <point x="138" y="750" type="curve" smooth="yes"/>
      <point x="138" y="260"/>
      <point x="467" y="-24"/>
    </contour>
    <contour>
      <point x="1524" y="0" type="line"/>
      <point x="1568" y="0" type="line"/>
      <point x="1568" y="678" type="line"/>
      <point x="1558" y="678" type="line"/>
      <point x="1524" y="493" type="line"/>
    </contour>
    <contour>
      <point x="898" y="678" type="line"/>
      <point x="1798" y="678" type="line"/>
      <point x="1798" y="722" type="line"/>
      <point x="898" y="722" type="line"/>
    </contour>
    <contour>
      <point x="1513" y="1020" type="line"/>
      <point x="1526" y="1020" type="line"/>
      <point x="1526" y="1500" type="line"/>
      <point x="1482" y="1500" type="line"/>
      <point x="1482" y="1104" type="line"/>
    </contour>
    <contour>
      <point x="851" y="-460" type="curve"/>
      <point x="894" y="-460" type="line"/>
      <point x="944" y="-396"/>
      <point x="961" y="-338"/>
      <point x="961" y="-283" type="curve" smooth="yes"/>
      <point x="961" y="-230"/>
      <point x="935" y="-202"/>
      <point x="899" y="-202" type="curve" smooth="yes"/>
      <point x="867" y="-202"/>
      <point x="841" y="-223"/>
      <point x="841" y="-261" type="curve" smooth="yes"/>
      <point x="841" y="-301"/>
      <point x="876" y="-322"/>
      <point x="918" y="-314" type="curve"/>
      <point x="913" y="-361"/>
      <point x="894" y="-405"/>
    </contour>
  </outline>
</glyph>
<glyph name="gcommaaccent" format="2">
  <advance width="1304"/>
  <unicode hex="0123"/>
  <anchor x="652" y="-440" name="bottom"/>
  <anchor x="652" y="1100" name="top"/>
  <outline>
    <contour>
      <point x="538" y="-400" type="curve" smooth="yes"/>
      <point x="826" y="-400" type="line" smooth="yes"/>
      <point x="1089" y="-400"/>
      <point x="1190" y="-252"/>
      <point x="1190" y="-108" type="curve" smooth="yes"/>
      <point x="1190" y="35"/>
      <point x="1110" y="120"/>
      <point x="942" y="120" type="curve" smooth="yes"/>
      <point x="390" y="120" type="line" smooth="yes"/>
      <point x="262" y="120"/>
      <point x="178" y="194"/>
      <point x="178" y="296" type="curve" smooth="yes"/>
      <point x="178" y="410"/>
      <point x="256" y="467"/>
      <point x="362" y="478" type="curve"/>
      <point x="358" y="516" type="line"/>
      <point x="245" y="512"/>
      <point x="130" y="438"/>
      <point x="130" y="296" type="curve" smooth="yes"/>
      <point x="130" y="165"/>
      <point x="232" y="76"/>
      <point x="386" y="76" type="curve" smooth="yes"/>
      <point x="940" y="76" type="line" smooth="yes"/>
      <point x="1082" y="76"/>
      <point x="1142" y="11"/>
      <point x="1142" y="-110" type="curve" smooth="yes"/>
      <point x="1142" y="-232"/>
      <point x="1059" y="-356"/>
      <point x="826" y="-356" type="curve" smooth="yes"/>
      <point x="538" y="-356" type="line" smooth="yes"/>
      <point x="333" y="-356"/>
      <point x="244" y="-271"/>
      <point x="244" y="-134" type="curve" smooth="yes"/>
      <point x="244" y="-13"/>
      <point x="351" y="55"/>
      <point x="412" y="80" type="curve"/>
      <point x="396" y="112" type="line"/>
      <point x="305" y="78"/>
      <point x="196" y="-2"/>
      <point x="196" y="-134" type="curve" smooth="yes"/>
      <point x="196" y="-300"/>
      <point x="306" y="-400"/>
    </contour>
    <contour>
      <point x="646" y="368" type="curve" smooth="yes"/>
      <point x="884" y="368"/>
      <point x="1052" y="514"/>
      <point x="1052" y="738" type="curve" smooth="yes"/>
      <point x="1052" y="916"/>
      <point x="942" y="1022"/>
      <point x="836" y="1066" type="curve"/>
      <point x="658" y="1108" type="line"/>
      <point x="408" y="1108"/>
      <point x="240" y="962"/>
      <point x="240" y="738" type="curve" smooth="yes"/>
      <point x="240" y="514"/>
      <point x="408" y="368"/>
    </contour>
    <contour>
      <point x="646" y="412" type="curve" smooth="yes"/>
      <point x="438" y="412"/>
      <point x="288" y="540"/>
      <point x="288" y="738" type="curve" smooth="yes"/>
      <point x="288" y="936"/>
      <point x="438" y="1064"/>
      <point x="646" y="1064" type="curve" smooth="yes"/>
      <point x="854" y="1064"/>
      <point x="1004" y="936"/>
      <point x="1004" y="738" type="curve" smooth="yes"/>
      <point x="1004" y="540"/>
      <point x="854" y="412"/>
    </contour>
    <contour>
      <point x="836" y="1066" type="line"/>
      <point x="1206" y="1066" type="line"/>
      <point x="1206" y="1108" type="line"/>
      <point x="658" y="1108" type="line"/>
    </contour>
    <contour>
      <point x="654" y="1302" type="curve" smooth="yes"/>
      <point x="686" y="1302"/>
      <point x="712" y="1323"/>
      <point x="712" y="1361" type="curve" smooth="yes"/>
      <point x="712" y="1401"/>
      <point x="677" y="1422"/>
      <point x="635" y="1414" type="curve"/>
      <point x="640" y="1461"/>
      <point x="659" y="1505"/>
      <point x="702" y="1560" type="curve"/>
      <point x="659" y="1560" type="line"/>
      <point x="609" y="1496"/>
      <point x="592" y="1438"/>
      <point x="592" y="1383" type="curve" smooth="yes"/>
      <point x="592" y="1330"/>
      <point x="618" y="1302"/>
    </contour>
  </outline>
</glyph>
<glyph name="Hcircumflex" format="2">
  <advance width="1752"/>
  <unicode hex="0124"/>
  <anchor x="876" y="0" name="bottom"/>
  <anchor x="876" y="750" name="center"/>
  <anchor x="1172" y="1730" name="side"/>
  <anchor x="876" y="1940" name="top"/>
  <anchor x="20" y="1500" name="topleft"/>
  <outline>
    <contour>
      <point x="72" y="0" type="line"/>
      <point x="617" y="0" type="line"/>
      <point x="617" y="42" type="line"/>
      <point x="358" y="42" type="line"/>
      <point x="358" y="1458" type="line"/>
      <point x="613" y="1458" type="line"/>
      <point x="613" y="1500" type="line"/>
      <point x="77" y="1500" type="line"/>
      <point x="77" y="1458" type="line"/>
      <point x="310" y="1458" type="line"/>
      <point x="310" y="42" type="line"/>
      <point x="72" y="42" type="line"/>
    </contour>
    <contour>
      <point x="1135" y="0" type="line"/>
      <point x="1680" y="0" type="line"/>
      <point x="1680" y="42" type="line"/>
      <point x="1442" y="42" type="line"/>
      <point x="1442" y="1458" type="line"/>
      <point x="1675" y="1458" type="line"/>
      <point x="1675" y="1500" type="line"/>
      <point x="1139" y="1500" type="line"/>
      <point x="1139" y="1458" type="line"/>
      <point x="1394" y="1458" type="line"/>
      <point x="1394" y="42" type="line"/>
      <point x="1135" y="42" type="line"/>
    </contour>
    <contour>
      <point x="358" y="738" type="line"/>
      <point x="1394" y="738" type="line"/>
      <point x="1394" y="782" type="line"/>
      <point x="358" y="782" type="line"/>
    </contour>
    <contour>
      <point x="610" y="1650" type="line"/>
      <point x="660" y="1650" type="line"/>
      <point x="887" y="1933" type="line"/>
      <point x="862" y="1933" type="line"/>
      <point x="1091" y="1650" type="line"/>
      <point x="1142" y="1650" type="line"/>
      <point x="896" y="1960" type="line"/>
      <point x="856" y="1960" type="line"/>
    </contour>
  </outline>
</glyph>
<glyph name="hcircumflex" format="2">
  <advance width="1386"/>
  <unicode hex="0125"/>
  <anchor x="691" y="0" name="bottom"/>
  <anchor x="691" y="780" name="center"/>
  <anchor x="592" y="1790" name="side"/>
  <anchor x="296" y="2000" name="top"/>
  <outline>
    <contour>
      <point x="76" y="0" type="line"/>
      <point x="556" y="0" type="line"/>
      <point x="556" y="42" type="line"/>
      <point x="340" y="42" type="line"/>
      <point x="340" y="1560" type="line"/>
      <point x="98" y="1560" type="line"/>
      <point x="98" y="1518" type="line"/>
      <point x="292" y="1518" type="line"/>
      <point x="292" y="42" type="line"/>
      <point x="76" y="42" type="line"/>
    </contour>
    <contour>
      <point x="862" y="0" type="line"/>
      <point x="1312" y="0" type="line"/>
      <point x="1312" y="42" type="line"/>
      <point x="1126" y="42" type="line"/>
      <point x="1126" y="764" type="line" smooth="yes"/>
      <point x="1126" y="1018"/>
      <point x="978" y="1116"/>
      <point x="768" y="1116" type="curve" smooth="yes"/>
      <point x="528" y="1116"/>
      <point x="304" y="954"/>
      <point x="304" y="552" type="curve"/>
      <point x="340" y="552" type="line"/>
      <point x="340" y="911"/>
      <point x="546" y="1072"/>
      <point x="766" y="1072" type="curve" smooth="yes"/>
      <point x="958" y="1072"/>
      <point x="1078" y="981"/>
      <point x="1078" y="764" type="curve" smooth="yes"/>
      <point x="1078" y="42" type="line"/>
      <point x="862" y="42" type="line"/>
    </contour>
    <contour>
      <point x="30" y="1710" type="line"/>
      <point x="80" y="1710" type="line"/>
      <point x="307" y="1993" type="line"/>
      <point x="282" y="1993" type="line"/>
      <point x="511" y="1710" type="line"/>
      <point x="562" y="1710" type="line"/>
      <point x="316" y="2020" type="line"/>
      <point x="276" y="2020" type="line"/>
    </contour>
  </outline>
</glyph>
<glyph name="Itilde" format="2">
  <advance width="702"/>
  <unicode hex="0128"/>
  <anchor x="351" y="0" name="bottom"/>
  <anchor x="481" y="0" name="ogonek"/>
  <anchor x="351" y="1824" name="top"/>
  <anchor x="20" y="1500" name="topleft"/>
  <outline>
    <contour>
      <point x="68" y="0" type="line"/>
      <point x="634" y="0" type="line"/>
      <point x="634" y="42" type="line"/>
      <point x="375" y="42" type="line"/>
      <point x="375" y="1458" type="line"/>
      <point x="630" y="1458" type="line"/>
      <point x="630" y="1500" type="line"/>
      <point x="72" y="1500" type="line"/>
      <point x="72" y="1458" type="line"/>
      <point x="327" y="1458" type="line"/>
      <point x="327" y="42" type="line"/>
      <point x="68" y="42" type="line"/>
    </contour>
    <contour>
      <point x="489" y="1638" type="curve" smooth="yes"/>
      <point x="574" y="1638"/>
      <point x="609" y="1700"/>
      <point x="609" y="1805" type="curve" smooth="yes"/>
      <point x="609" y="1880" type="line"/>
      <point x="569" y="1880" type="line"/>
      <point x="569" y="1809" type="line" smooth="yes"/>
      <point x="569" y="1718"/>
      <point x="546" y="1678"/>
      <point x="489" y="1678" type="curve" smooth="yes"/>
      <point x="436" y="1678"/>
      <point x="409" y="1723"/>
      <point x="379" y="1763" type="curve" smooth="yes"/>
      <point x="358" y="1791" type="line"/>
      <point x="323" y="1767" type="line"/>
      <point x="344" y="1739" type="line" smooth="yes"/>
      <point x="378" y="1693"/>
      <point x="414" y="1638"/>
    </contour>
    <contour>
      <point x="93" y="1725" type="curve" smooth="yes"/>
      <point x="93" y="1650" type="line"/>
      <point x="133" y="1650" type="line"/>
      <point x="133" y="1721" type="line" smooth="yes"/>
      <point x="133" y="1812"/>
      <point x="156" y="1852"/>
      <point x="213" y="1852" type="curve" smooth="yes"/>
      <point x="266" y="1852"/>
      <point x="293" y="1807"/>
      <point x="323" y="1767" type="curve" smooth="yes"/>
      <point x="344" y="1739" type="line"/>
      <point x="379" y="1763" type="line"/>
      <point x="358" y="1791" type="line" smooth="yes"/>
      <point x="324" y="1837"/>
      <point x="288" y="1892"/>
      <point x="213" y="1892" type="curve" smooth="yes"/>
      <point x="128" y="1892"/>
      <point x="93" y="1830"/>
    </contour>
  </outline>
</glyph>
<glyph name="itilde" format="2">
  <advance width="638"/>
  <unicode hex="0129"/>
  <anchor x="319" y="0" name="bottom"/>
  <anchor x="470" y="0" name="ogonek"/>
  <anchor x="320" y="1424" name="top"/>
  <outline>
    <contour>
      <point x="100" y="0" type="line"/>
      <point x="558" y="0" type="line"/>
      <point x="558" y="42" type="line"/>
      <point x="364" y="42" type="line"/>
      <point x="364" y="1100" type="line"/>
      <point x="122" y="1100" type="line"/>
      <point x="122" y="1058" type="line"/>
      <point x="316" y="1058" type="line"/>
      <point x="316" y="42" type="line"/>
      <point x="100" y="42" type="line"/>
    </contour>
    <contour>
      <point x="458" y="1238" type="curve" smooth="yes"/>
      <point x="543" y="1238"/>
      <point x="578" y="1300"/>
      <point x="578" y="1405" type="curve" smooth="yes"/>
      <point x="578" y="1480" type="line"/>
      <point x="538" y="1480" type="line"/>
      <point x="538" y="1409" type="line" smooth="yes"/>
      <point x="538" y="1318"/>
      <point x="515" y="1278"/>
      <point x="458" y="1278" type="curve" smooth="yes"/>
      <point x="405" y="1278"/>
      <point x="378" y="1323"/>
      <point x="348" y="1363" type="curve" smooth="yes"/>
      <point x="327" y="1391" type="line"/>
      <point x="292" y="1367" type="line"/>
      <point x="313" y="1339" type="line" smooth="yes"/>
      <point x="347" y="1293"/>
      <point x="383" y="1238"/>
    </contour>
    <contour>
      <point x="62" y="1325" type="curve" smooth="yes"/>
      <point x="62" y="1250" type="line"/>
      <point x="102" y="1250" type="line"/>
      <point x="102" y="1321" type="line" smooth="yes"/>
      <point x="102" y="1412"/>
      <point x="125" y="1452"/>
      <point x="182" y="1452" type="curve" smooth="yes"/>
      <point x="235" y="1452"/>
      <point x="262" y="1407"/>
      <point x="292" y="1367" type="curve" smooth="yes"/>
      <point x="313" y="1339" type="line"/>
      <point x="348" y="1363" type="line"/>
      <point x="327" y="1391" type="line" smooth="yes"/>
      <point x="293" y="1437"/>
      <point x="257" y="1492"/>
      <point x="182" y="1492" type="curve" smooth="yes"/>
      <point x="97" y="1492"/>
      <point x="62" y="1430"/>
    </contour>
  </outline>
</glyph>
<glyph name="imacron" format="2">
  <advance width="638"/>
  <unicode hex="012B"/>
  <anchor x="319" y="0" name="bottom"/>
  <anchor x="470" y="0" name="ogonek"/>
  <anchor x="320" y="1100" name="top"/>
  <outline>
    <contour>
      <point x="100" y="0" type="line"/>
      <point x="558" y="0" type="line"/>
      <point x="558" y="42" type="line"/>
      <point x="364" y="42" type="line"/>
      <point x="364" y="1100" type="line"/>
      <point x="122" y="1100" type="line"/>
      <point x="122" y="1058" type="line"/>
      <point x="316" y="1058" type="line"/>
      <point x="316" y="42" type="line"/>
      <point x="100" y="42" type="line"/>
    </contour>
    <contour>
      <point x="30" y="1300" type="line"/>
      <point x="610" y="1300" type="line"/>
      <point x="610" y="1342" type="line"/>
      <point x="30" y="1342" type="line"/>
    </contour>
  </outline>
</glyph>
<glyph name="Ibreve" format="2">
  <advance width="702"/>
  <unicode hex="012C"/>
  <anchor x="351" y="0" name="bottom"/>
  <anchor x="481" y="0" name="ogonek"/>
  <anchor x="351" y="1900" name="side"/>
  <anchor x="351" y="1940" name="top"/>
  <anchor x="20" y="1500" name="topleft"/>
  <outline>
    <contour>
      <point x="68" y="0" type="line"/>
      <point x="634" y="0" type="line"/>
      <point x="634" y="42" type="line"/>
      <point x="375" y="42" type="line"/>
      <point x="375" y="1458" type="line"/>
      <point x="630" y="1458" type="line"/>
      <point x="630" y="1500" type="line"/>
      <point x="72" y="1500" type="line"/>
      <point x="72" y="1458" type="line"/>
      <point x="327" y="1458" type="line"/>
      <point x="327" y="42" type="line"/>
      <point x="68" y="42" type="line"/>
    </contour>
    <contour>
      <point x="351" y="1640" type="curve" smooth="yes"/>
      <point x="533" y="1640"/>
      <point x="621" y="1774"/>
      <point x="621" y="1960" type="curve"/>
      <point x="581" y="1960" type="line"/>
      <point x="581" y="1806"/>
      <point x="505" y="1678"/>
      <point x="351" y="1678" type="curve" smooth="yes"/>
      <point x="197" y="1678"/>
      <point x="131" y="1806"/>
      <point x="131" y="1960" type="curve"/>
      <point x="91" y="1960" type="line"/>
      <point x="91" y="1774"/>
      <point x="169" y="1640"/>
    </contour>
  </outline>
</glyph>
<glyph name="ibreve" format="2">
  <advance width="638"/>
  <unicode hex="012D"/>
  <anchor x="319" y="0" name="bottom"/>
  <anchor x="470" y="0" name="ogonek"/>
  <anchor x="320" y="1500" name="side"/>
  <anchor x="320" y="1540" name="top"/>
  <outline>
    <contour>
      <point x="100" y="0" type="line"/>
      <point x="558" y="0" type="line"/>
      <point x="558" y="42" type="line"/>
      <point x="364" y="42" type="line"/>
      <point x="364" y="1100" type="line"/>
      <point x="122" y="1100" type="line"/>
      <point x="122" y="1058" type="line"/>
      <point x="316" y="1058" type="line"/>
      <point x="316" y="42" type="line"/>
      <point x="100" y="42" type="line"/>
    </contour>
    <contour>
      <point x="320" y="1240" type="curve" smooth="yes"/>
      <point x="502" y="1240"/>
      <point x="590" y="1374"/>
      <point x="590" y="1560" type="curve"/>
      <point x="550" y="1560" type="line"/>
      <point x="550" y="1406"/>
      <point x="474" y="1278"/>
      <point x="320" y="1278" type="curve" smooth="yes"/>
      <point x="166" y="1278"/>
      <point x="100" y="1406"/>
      <point x="100" y="1560" type="curve"/>
      <point x="60" y="1560" type="line"/>
      <point x="60" y="1374"/>
      <point x="138" y="1240"/>
    </contour>
  </outline>
</glyph>
<glyph name="Iogonek" format="2">
  <advance width="702"/>
  <unicode hex="012E"/>
  <anchor x="351" y="0" name="bottom"/>
  <anchor x="481" y="0" name="ogonek"/>
  <anchor x="351" y="1500" name="top"/>
  <anchor x="20" y="1500" name="topleft"/>
  <outline>
    <contour>
      <point x="68" y="0" type="line"/>
      <point x="634" y="0" type="line"/>
      <point x="634" y="42" type="line"/>
      <point x="375" y="42" type="line"/>
      <point x="375" y="1458" type="line"/>
      <point x="630" y="1458" type="line"/>
      <point x="630" y="1500" type="line"/>
      <point x="72" y="1500" type="line"/>
      <point x="72" y="1458" type="line"/>
      <point x="327" y="1458" type="line"/>
      <point x="327" y="42" type="line"/>
      <point x="68" y="42" type="line"/>
    </contour>
    <contour>
      <point x="359" y="-397" type="curve" smooth="yes"/>
      <point x="435" y="-397"/>
      <point x="481" y="-366"/>
      <point x="510" y="-340" type="curve"/>
      <point x="487" y="-311" type="line"/>
      <point x="444" y="-342"/>
      <point x="415" y="-357"/>
      <point x="363" y="-357" type="curve" smooth="yes"/>
      <point x="298" y="-357"/>
      <point x="255" y="-314"/>
      <point x="255" y="-244" type="curve" smooth="yes"/>
      <point x="255" y="-156"/>
      <point x="299" y="-84"/>
      <point x="371" y="0" type="curve"/>
      <point x="342" y="26" type="line"/>
      <point x="273" y="-54"/>
      <point x="209" y="-141"/>
      <point x="209" y="-248" type="curve" smooth="yes"/>
      <point x="209" y="-341"/>
      <point x="275" y="-397"/>
    </contour>
  </outline>
</glyph>
<glyph name="iogonek" format="2">
  <advance width="638"/>
  <unicode hex="012F"/>
  <anchor x="319" y="0" name="bottom"/>
  <anchor x="470" y="0" name="ogonek"/>
  <anchor x="320" y="1438" name="top"/>
  <outline>
    <contour>
      <point x="100" y="0" type="line"/>
      <point x="558" y="0" type="line"/>
      <point x="558" y="42" type="line"/>
      <point x="364" y="42" type="line"/>
      <point x="364" y="1100" type="line"/>
      <point x="122" y="1100" type="line"/>
      <point x="122" y="1058" type="line"/>
      <point x="316" y="1058" type="line"/>
      <point x="316" y="42" type="line"/>
      <point x="100" y="42" type="line"/>
    </contour>
    <contour>
      <point x="320" y="1302" type="curve" smooth="yes"/>
      <point x="356" y="1302"/>
      <point x="379" y="1328"/>
      <point x="379" y="1364" type="curve" smooth="yes"/>
      <point x="379" y="1400"/>
      <point x="356" y="1426"/>
      <point x="320" y="1426" type="curve" smooth="yes"/>
      <point x="284" y="1426"/>
      <point x="261" y="1400"/>
      <point x="261" y="1364" type="curve" smooth="yes"/>
      <point x="261" y="1328"/>
      <point x="284" y="1302"/>
    </contour>
    <contour>
      <point x="348" y="-397" type="curve" smooth="yes"/>
      <point x="424" y="-397"/>
      <point x="470" y="-366"/>
      <point x="499" y="-340" type="curve"/>
      <point x="476" y="-311" type="line"/>
      <point x="433" y="-342"/>
      <point x="404" y="-357"/>
      <point x="352" y="-357" type="curve" smooth="yes"/>
      <point x="287" y="-357"/>
      <point x="244" y="-314"/>
      <point x="244" y="-244" type="curve" smooth="yes"/>
      <point x="244" y="-156"/>
      <point x="288" y="-84"/>
      <point x="360" y="0" type="curve"/>
      <point x="331" y="26" type="line"/>
      <point x="262" y="-54"/>
      <point x="198" y="-141"/>
      <point x="198" y="-248" type="curve" smooth="yes"/>
      <point x="198" y="-341"/>
      <point x="264" y="-397"/>
    </contour>
  </outline>
</glyph>
<glyph name="Idotaccent" format="2">
  <advance width="702"/>
  <unicode hex="0130"/>
  <anchor x="351" y="0" name="bottom"/>
  <anchor x="481" y="0" name="ogonek"/>
  <anchor x="351" y="1838" name="top"/>
  <anchor x="20" y="1500" name="topleft"/>
  <outline>
    <contour>
      <point x="68" y="0" type="line"/>
      <point x="634" y="0" type="line"/>
      <point x="634" y="42" type="line"/>
      <point x="375" y="42" type="line"/>
      <point x="375" y="1458" type="line"/>
      <point x="630" y="1458" type="line"/>
      <point x="630" y="1500" type="line"/>
      <point x="72" y="1500" type="line"/>
      <point x="72" y="1458" type="line"/>
      <point x="327" y="1458" type="line"/>
      <point x="327" y="42" type="line"/>
      <point x="68" y="42" type="line"/>
    </contour>
    <contour>
      <point x="351" y="1702" type="curve" smooth="yes"/>
      <point x="387" y="1702"/>
      <point x="410" y="1728"/>
      <point x="410" y="1764" type="curve" smooth="yes"/>
      <point x="410" y="1800"/>
      <point x="387" y="1826"/>
      <point x="351" y="1826" type="curve" smooth="yes"/>
      <point x="315" y="1826"/>
      <point x="292" y="1800"/>
      <point x="292" y="1764" type="curve" smooth="yes"/>
      <point x="292" y="1728"/>
      <point x="315" y="1702"/>
    </contour>
  </outline>
</glyph>
<glyph name="idotless" format="2">
  <advance width="638"/>
  <unicode hex="0131"/>
  <anchor x="319" y="0" name="bottom"/>
  <anchor x="470" y="0" name="ogonek"/>
  <anchor x="320" y="1100" name="top"/>
  <outline>
    <contour>
      <point x="100" y="0" type="line"/>
      <point x="558" y="0" type="line"/>
      <point x="558" y="42" type="line"/>
      <point x="364" y="42" type="line"/>
      <point x="364" y="1100" type="line"/>
      <point x="122" y="1100" type="line"/>
      <point x="122" y="1058" type="line"/>
      <point x="316" y="1058" type="line"/>
      <point x="316" y="42" type="line"/>
      <point x="100" y="42" type="line"/>
    </contour>
  </outline>
</glyph>
<glyph name="Jcircumflex" format="2">
  <advance width="1267"/>
  <unicode hex="0134"/>
  <anchor x="634" y="0" name="bottom"/>
  <anchor x="1188" y="1730" name="side"/>
  <anchor x="892" y="1940" name="top"/>
  <outline>
    <contour>
      <point x="542" y="-16" type="curve" smooth="yes"/>
      <point x="806" y="-16"/>
      <point x="978" y="132"/>
      <point x="978" y="460" type="curve" smooth="yes"/>
      <point x="978" y="1458" type="line"/>
      <point x="1211" y="1458" type="line"/>
      <point x="1211" y="1500" type="line"/>
      <point x="589" y="1500" type="line"/>
      <point x="589" y="1458" type="line"/>
      <point x="930" y="1458" type="line"/>
      <point x="930" y="456" type="line" smooth="yes"/>
      <point x="930" y="173"/>
      <point x="781" y="28"/>
      <point x="540" y="28" type="curve" smooth="yes"/>
      <point x="299" y="28"/>
      <point x="150" y="173"/>
      <point x="150" y="456" type="curve" smooth="yes"/>
      <point x="150" y="530" type="line"/>
      <point x="106" y="530" type="line"/>
      <point x="106" y="452" type="line" smooth="yes"/>
      <point x="106" y="133"/>
      <point x="278" y="-16"/>
    </contour>
    <contour>
      <point x="626" y="1650" type="line"/>
      <point x="676" y="1650" type="line"/>
      <point x="903" y="1933" type="line"/>
      <point x="878" y="1933" type="line"/>
      <point x="1107" y="1650" type="line"/>
      <point x="1158" y="1650" type="line"/>
      <point x="912" y="1960" type="line"/>
      <point x="872" y="1960" type="line"/>
    </contour>
  </outline>
</glyph>
<glyph name="Kcommaaccent" format="2">
  <advance width="1639"/>
  <unicode hex="0136"/>
  <anchor x="820" y="0" name="bottom"/>
  <anchor x="820" y="1500" name="top"/>
  <outline>
    <contour>
      <point x="349" y="551" type="line"/>
      <point x="1359" y="1458" type="line"/>
      <point x="1520" y="1458" type="line"/>
      <point x="1520" y="1500" type="line"/>
      <point x="1022" y="1500" type="line"/>
      <point x="1022" y="1458" type="line"/>
      <point x="1293" y="1458" type="line"/>
      <point x="324" y="585" type="line"/>
    </contour>
    <contour>
      <point x="72" y="0" type="line"/>
      <point x="617" y="0" type="line"/>
      <point x="617" y="42" type="line"/>
      <point x="358" y="42" type="line"/>
      <point x="358" y="1458" type="line"/>
      <point x="613" y="1458" type="line"/>
      <point x="613" y="1500" type="line"/>
      <point x="77" y="1500" type="line"/>
      <point x="77" y="1458" type="line"/>
      <point x="310" y="1458" type="line"/>
      <point x="310" y="42" type="line"/>
      <point x="72" y="42" type="line"/>
    </contour>
    <contour>
      <point x="1081" y="0" type="line"/>
      <point x="1591" y="0" type="line"/>
      <point x="1591" y="42" type="line"/>
      <point x="1424" y="42" type="line"/>
      <point x="637" y="835" type="line"/>
      <point x="604" y="806" type="line"/>
      <point x="1359" y="42" type="line"/>
      <point x="1081" y="42" type="line"/>
    </contour>
    <contour>
      <point x="770" y="-460" type="curve"/>
      <point x="813" y="-460" type="line"/>
      <point x="863" y="-396"/>
      <point x="880" y="-338"/>
      <point x="880" y="-283" type="curve" smooth="yes"/>
      <point x="880" y="-230"/>
      <point x="854" y="-202"/>
      <point x="818" y="-202" type="curve" smooth="yes"/>
      <point x="786" y="-202"/>
      <point x="760" y="-223"/>
      <point x="760" y="-261" type="curve" smooth="yes"/>
      <point x="760" y="-301"/>
      <point x="795" y="-322"/>
      <point x="837" y="-314" type="curve"/>
      <point x="832" y="-361"/>
      <point x="813" y="-405"/>
    </contour>
  </outline>
</glyph>
<glyph name="kcommaaccent" format="2">
  <advance width="1370"/>
  <unicode hex="0137"/>
  <anchor x="682" y="0" name="bottom"/>
  <anchor x="682" y="1560" name="top"/>
  <outline>
    <contour>
      <point x="76" y="0" type="line"/>
      <point x="534" y="0" type="line"/>
      <point x="534" y="42" type="line"/>
      <point x="340" y="42" type="line"/>
      <point x="340" y="1560" type="line"/>
      <point x="98" y="1560" type="line"/>
      <point x="98" y="1518" type="line"/>
      <point x="292" y="1518" type="line"/>
      <point x="292" y="42" type="line"/>
      <point x="76" y="42" type="line"/>
    </contour>
    <contour>
      <point x="862" y="0" type="line"/>
      <point x="1296" y="0" type="line"/>
      <point x="1296" y="42" type="line"/>
      <point x="1165" y="42" type="line"/>
      <point x="583" y="646" type="line"/>
      <point x="550" y="614" type="line"/>
      <point x="1098" y="42" type="line"/>
      <point x="862" y="42" type="line"/>
    </contour>
    <contour>
      <point x="331" y="398" type="line"/>
      <point x="1114" y="1058" type="line"/>
      <point x="1242" y="1058" type="line"/>
      <point x="1242" y="1100" type="line"/>
      <point x="824" y="1100" type="line"/>
      <point x="824" y="1058" type="line"/>
      <point x="1046" y="1058" type="line"/>
      <point x="306" y="432" type="line"/>
    </contour>
    <contour>
      <point x="632" y="-460" type="curve"/>
      <point x="675" y="-460" type="line"/>
      <point x="725" y="-396"/>
      <point x="742" y="-338"/>
      <point x="742" y="-283" type="curve" smooth="yes"/>
      <point x="742" y="-230"/>
      <point x="716" y="-202"/>
      <point x="680" y="-202" type="curve" smooth="yes"/>
      <point x="648" y="-202"/>
      <point x="622" y="-223"/>
      <point x="622" y="-261" type="curve" smooth="yes"/>
      <point x="622" y="-301"/>
      <point x="657" y="-322"/>
      <point x="699" y="-314" type="curve"/>
      <point x="694" y="-361"/>
      <point x="675" y="-405"/>
    </contour>
  </outline>
</glyph>
<glyph name="kgreenlandic" format="2">
  <advance width="1394"/>
  <unicode hex="0138"/>
  <outline>
    <contour>
      <point x="100" y="0" type="line"/>
      <point x="558" y="0" type="line"/>
      <point x="558" y="42" type="line"/>
      <point x="364" y="42" type="line"/>
      <point x="364" y="1058" type="line"/>
      <point x="537" y="1058" type="line"/>
      <point x="537" y="1100" type="line"/>
      <point x="122" y="1100" type="line"/>
      <point x="122" y="1058" type="line"/>
      <point x="316" y="1058" type="line"/>
      <point x="316" y="42" type="line"/>
      <point x="100" y="42" type="line"/>
    </contour>
    <contour>
      <point x="355" y="398" type="line"/>
      <point x="1138" y="1058" type="line"/>
      <point x="1266" y="1058" type="line"/>
      <point x="1266" y="1100" type="line"/>
      <point x="848" y="1100" type="line"/>
      <point x="848" y="1058" type="line"/>
      <point x="1070" y="1058" type="line"/>
      <point x="330" y="432" type="line"/>
    </contour>
    <contour>
      <point x="886" y="0" type="line"/>
      <point x="1320" y="0" type="line"/>
      <point x="1320" y="42" type="line"/>
      <point x="1189" y="42" type="line"/>
      <point x="607" y="646" type="line"/>
      <point x="574" y="614" type="line"/>
      <point x="1122" y="42" type="line"/>
      <point x="886" y="42" type="line"/>
    </contour>
  </outline>
</glyph>
<glyph name="lacute" format="2">
  <advance width="614"/>
  <unicode hex="013A"/>
  <anchor x="307" y="0" name="bottom"/>
  <anchor x="316" y="1100" name="center"/>
  <anchor x="296" y="1560" name="top"/>
  <anchor x="340" y="1560" name="topright"/>
  <outline>
    <contour>
      <point x="76" y="0" type="line"/>
      <point x="534" y="0" type="line"/>
      <point x="534" y="42" type="line"/>
      <point x="340" y="42" type="line"/>
      <point x="340" y="1560" type="line"/>
      <point x="98" y="1560" type="line"/>
      <point x="98" y="1518" type="line"/>
      <point x="292" y="1518" type="line"/>
      <point x="292" y="42" type="line"/>
      <point x="76" y="42" type="line"/>
    </contour>
    <contour>
      <point x="239" y="1710" type="line"/>
      <point x="290" y="1710" type="line"/>
      <point x="543" y="2020" type="line"/>
      <point x="483" y="2020" type="line"/>
    </contour>
  </outline>
</glyph>
<glyph name="Lcommaaccent" format="2">
  <advance width="1460"/>
  <unicode hex="013B"/>
  <anchor x="730" y="0" name="bottom"/>
  <anchor x="334" y="1220" name="center"/>
  <anchor x="335" y="1500" name="top"/>
  <anchor x="578" y="1500" name="topright"/>
  <outline>
    <contour>
      <point x="72" y="0" type="line"/>
      <point x="358" y="0" type="line"/>
      <point x="358" y="1458" type="line"/>
      <point x="699" y="1458" type="line"/>
      <point x="699" y="1500" type="line"/>
      <point x="77" y="1500" type="line"/>
      <point x="77" y="1458" type="line"/>
      <point x="310" y="1458" type="line"/>
      <point x="310" y="42" type="line"/>
      <point x="72" y="42" type="line"/>
    </contour>
    <contour>
      <point x="358" y="0" type="line"/>
      <point x="1352" y="0" type="line"/>
      <point x="1352" y="44" type="line"/>
      <point x="358" y="44" type="line"/>
    </contour>
    <contour>
      <point x="1182" y="44" type="curve" smooth="yes"/>
      <point x="1352" y="44" type="line"/>
      <point x="1352" y="520" type="line"/>
      <point x="1308" y="520" type="line"/>
      <point x="1308" y="174" type="line" smooth="yes"/>
      <point x="1308" y="70"/>
      <point x="1282" y="44"/>
    </contour>
    <contour>
      <point x="680" y="-460" type="curve"/>
      <point x="723" y="-460" type="line"/>
      <point x="773" y="-396"/>
      <point x="790" y="-338"/>
      <point x="790" y="-283" type="curve" smooth="yes"/>
      <point x="790" y="-230"/>
      <point x="764" y="-202"/>
      <point x="728" y="-202" type="curve" smooth="yes"/>
      <point x="696" y="-202"/>
      <point x="670" y="-223"/>
      <point x="670" y="-261" type="curve" smooth="yes"/>
      <point x="670" y="-301"/>
      <point x="705" y="-322"/>
      <point x="747" y="-314" type="curve"/>
      <point x="742" y="-361"/>
      <point x="723" y="-405"/>
    </contour>
  </outline>
</glyph>
<glyph name="lcommaaccent" format="2">
  <advance width="614"/>
  <unicode hex="013C"/>
  <anchor x="307" y="0" name="bottom"/>
  <anchor x="316" y="1100" name="center"/>
  <anchor x="296" y="1560" name="top"/>
  <anchor x="340" y="1560" name="topright"/>
  <outline>
    <contour>
      <point x="76" y="0" type="line"/>
      <point x="534" y="0" type="line"/>
      <point x="534" y="42" type="line"/>
      <point x="340" y="42" type="line"/>
      <point x="340" y="1560" type="line"/>
      <point x="98" y="1560" type="line"/>
      <point x="98" y="1518" type="line"/>
      <point x="292" y="1518" type="line"/>
      <point x="292" y="42" type="line"/>
      <point x="76" y="42" type="line"/>
    </contour>
    <contour>
      <point x="257" y="-460" type="curve"/>
      <point x="300" y="-460" type="line"/>
      <point x="350" y="-396"/>
      <point x="367" y="-338"/>
      <point x="367" y="-283" type="curve" smooth="yes"/>
      <point x="367" y="-230"/>
      <point x="341" y="-202"/>
      <point x="305" y="-202" type="curve" smooth="yes"/>
      <point x="273" y="-202"/>
      <point x="247" y="-223"/>
      <point x="247" y="-261" type="curve" smooth="yes"/>
      <point x="247" y="-301"/>
      <point x="282" y="-322"/>
      <point x="324" y="-314" type="curve"/>
      <point x="319" y="-361"/>
      <point x="300" y="-405"/>
    </contour>
  </outline>
</glyph>
<glyph name="Lcaron" format="2">
  <advance width="1460"/>
  <unicode hex="013D"/>
  <anchor x="730" y="0" name="bottom"/>
  <anchor x="334" y="1220" name="center"/>
  <anchor x="335" y="1500" name="top"/>
  <anchor x="578" y="1500" name="topright"/>
  <outline>
    <contour>
      <point x="72" y="0" type="line"/>
      <point x="358" y="0" type="line"/>
      <point x="358" y="1458" type="line"/>
      <point x="699" y="1458" type="line"/>
      <point x="699" y="1500" type="line"/>
      <point x="77" y="1500" type="line"/>
      <point x="77" y="1458" type="line"/>
      <point x="310" y="1458" type="line"/>
      <point x="310" y="42" type="line"/>
      <point x="72" y="42" type="line"/>
    </contour>
    <contour>
      <point x="358" y="0" type="line"/>
      <point x="1352" y="0" type="line"/>
      <point x="1352" y="44" type="line"/>
      <point x="358" y="44" type="line"/>
    </contour>
    <contour>
      <point x="1182" y="44" type="curve" smooth="yes"/>
      <point x="1352" y="44" type="line"/>
      <point x="1352" y="520" type="line"/>
      <point x="1308" y="520" type="line"/>
      <point x="1308" y="174" type="line" smooth="yes"/>
      <point x="1308" y="70"/>
      <point x="1282" y="44"/>
    </contour>
    <contour>
      <point x="802" y="1110" type="line"/>
      <point x="842" y="1110" type="line"/>
      <point x="879" y="1500" type="line"/>
      <point x="828" y="1500" type="line"/>
    </contour>
  </outline>
</glyph>
<glyph name="lcaron" format="2">
  <advance width="679"/>
  <unicode hex="013E"/>
  <anchor x="307" y="0" name="bottom"/>
  <anchor x="316" y="1100" name="center"/>
  <anchor x="296" y="1560" name="top"/>
  <anchor x="340" y="1560" name="topright"/>
  <outline>
    <contour>
      <point x="76" y="0" type="line"/>
      <point x="534" y="0" type="line"/>
      <point x="534" y="42" type="line"/>
      <point x="340" y="42" type="line"/>
      <point x="340" y="1560" type="line"/>
      <point x="98" y="1560" type="line"/>
      <point x="98" y="1518" type="line"/>
      <point x="292" y="1518" type="line"/>
      <point x="292" y="42" type="line"/>
      <point x="76" y="42" type="line"/>
    </contour>
    <contour>
      <point x="564" y="1170" type="line"/>
      <point x="604" y="1170" type="line"/>
      <point x="641" y="1560" type="line"/>
      <point x="590" y="1560" type="line"/>
    </contour>
  </outline>
</glyph>
<glyph name="Ldot" format="2">
  <advance width="1460"/>
  <unicode hex="013F"/>
  <anchor x="730" y="0" name="bottom"/>
  <anchor x="334" y="1220" name="center"/>
  <anchor x="335" y="1500" name="top"/>
  <anchor x="578" y="1500" name="topright"/>
  <outline>
    <contour>
      <point x="72" y="0" type="line"/>
      <point x="358" y="0" type="line"/>
      <point x="358" y="1458" type="line"/>
      <point x="699" y="1458" type="line"/>
      <point x="699" y="1500" type="line"/>
      <point x="77" y="1500" type="line"/>
      <point x="77" y="1458" type="line"/>
      <point x="310" y="1458" type="line"/>
      <point x="310" y="42" type="line"/>
      <point x="72" y="42" type="line"/>
    </contour>
    <contour>
      <point x="358" y="0" type="line"/>
      <point x="1352" y="0" type="line"/>
      <point x="1352" y="44" type="line"/>
      <point x="358" y="44" type="line"/>
    </contour>
    <contour>
      <point x="1182" y="44" type="curve" smooth="yes"/>
      <point x="1352" y="44" type="line"/>
      <point x="1352" y="520" type="line"/>
      <point x="1308" y="520" type="line"/>
      <point x="1308" y="174" type="line" smooth="yes"/>
      <point x="1308" y="70"/>
      <point x="1282" y="44"/>
    </contour>
    <contour>
      <point x="1066" y="932" type="curve" smooth="yes"/>
      <point x="1102" y="932"/>
      <point x="1125" y="958"/>
      <point x="1125" y="994" type="curve" smooth="yes"/>
      <point x="1125" y="1030"/>
      <point x="1102" y="1056"/>
      <point x="1066" y="1056" type="curve" smooth="yes"/>
      <point x="1030" y="1056"/>
      <point x="1007" y="1030"/>
      <point x="1007" y="994" type="curve" smooth="yes"/>
      <point x="1007" y="958"/>
      <point x="1030" y="932"/>
    </contour>
  </outline>
</glyph>
<glyph name="ldot" format="2">
  <advance width="924"/>
  <unicode hex="0140"/>
  <anchor x="307" y="0" name="bottom"/>
  <anchor x="316" y="1100" name="center"/>
  <anchor x="296" y="1560" name="top"/>
  <anchor x="340" y="1560" name="topright"/>
  <outline>
    <contour>
      <point x="76" y="0" type="line"/>
      <point x="534" y="0" type="line"/>
      <point x="534" y="42" type="line"/>
      <point x="340" y="42" type="line"/>
      <point x="340" y="1560" type="line"/>
      <point x="98" y="1560" type="line"/>
      <point x="98" y="1518" type="line"/>
      <point x="292" y="1518" type="line"/>
      <point x="292" y="42" type="line"/>
      <point x="76" y="42" type="line"/>
    </contour>
    <contour>
      <point x="785" y="529" type="curve" smooth="yes"/>
      <point x="821" y="529"/>
      <point x="844" y="555"/>
      <point x="844" y="591" type="curve" smooth="yes"/>
      <point x="844" y="627"/>
      <point x="821" y="653"/>
      <point x="785" y="653" type="curve" smooth="yes"/>
      <point x="749" y="653"/>
      <point x="726" y="627"/>
      <point x="726" y="591" type="curve" smooth="yes"/>
      <point x="726" y="555"/>
      <point x="749" y="529"/>
    </contour>
  </outline>
</glyph>
<glyph name="Lslash" format="2">
  <advance width="1564"/>
  <unicode hex="0141"/>
  <anchor x="834" y="0" name="bottom"/>
  <anchor x="438" y="1220" name="center"/>
  <anchor x="439" y="1500" name="top"/>
  <anchor x="682" y="1500" name="topright"/>
  <outline>
    <contour>
      <point x="176" y="0" type="line"/>
      <point x="462" y="0" type="line"/>
      <point x="462" y="1458" type="line"/>
      <point x="803" y="1458" type="line"/>
      <point x="803" y="1500" type="line"/>
      <point x="181" y="1500" type="line"/>
      <point x="181" y="1458" type="line"/>
      <point x="414" y="1458" type="line"/>
      <point x="414" y="42" type="line"/>
      <point x="176" y="42" type="line"/>
    </contour>
    <contour>
      <point x="462" y="0" type="line"/>
      <point x="1456" y="0" type="line"/>
      <point x="1456" y="44" type="line"/>
      <point x="462" y="44" type="line"/>
    </contour>
    <contour>
      <point x="1286" y="44" type="curve" smooth="yes"/>
      <point x="1456" y="44" type="line"/>
      <point x="1456" y="520" type="line"/>
      <point x="1412" y="520" type="line"/>
      <point x="1412" y="174" type="line" smooth="yes"/>
      <point x="1412" y="70"/>
      <point x="1386" y="44"/>
    </contour>
    <contour>
      <point x="76" y="572" type="line"/>
      <point x="834" y="843" type="line"/>
      <point x="834" y="886" type="line"/>
      <point x="76" y="615" type="line"/>
    </contour>
  </outline>
</glyph>
<glyph name="lslash" format="2">
  <advance width="912"/>
  <unicode hex="0142"/>
  <anchor x="439" y="0" name="bottom"/>
  <anchor x="448" y="1100" name="center"/>
  <anchor x="428" y="1560" name="top"/>
  <anchor x="472" y="1560" name="topright"/>
  <outline>
    <contour>
      <point x="208" y="0" type="line"/>
      <point x="666" y="0" type="line"/>
      <point x="666" y="42" type="line"/>
      <point x="472" y="42" type="line"/>
      <point x="472" y="1560" type="line"/>
      <point x="230" y="1560" type="line"/>
      <point x="230" y="1518" type="line"/>
      <point x="424" y="1518" type="line"/>
      <point x="424" y="42" type="line"/>
      <point x="208" y="42" type="line"/>
    </contour>
    <contour>
      <point x="86" y="452" type="line"/>
      <point x="844" y="723" type="line"/>
      <point x="844" y="766" type="line"/>
      <point x="86" y="495" type="line"/>
    </contour>
  </outline>
</glyph>
<glyph name="nacute" format="2">
  <advance width="1410"/>
  <unicode hex="0144"/>
  <anchor x="703" y="0" name="bottom"/>
  <anchor x="705" y="1100" name="top"/>
  <outline>
    <contour>
      <point x="886" y="0" type="line"/>
      <point x="1336" y="0" type="line"/>
      <point x="1336" y="42" type="line"/>
      <point x="1150" y="42" type="line"/>
      <point x="1150" y="764" type="line" smooth="yes"/>
      <point x="1150" y="1018"/>
      <point x="1002" y="1116"/>
      <point x="792" y="1116" type="curve" smooth="yes"/>
      <point x="550" y="1116"/>
      <point x="328" y="954"/>
      <point x="328" y="552" type="curve"/>
      <point x="364" y="552" type="line"/>
      <point x="364" y="911"/>
      <point x="570" y="1072"/>
      <point x="790" y="1072" type="curve" smooth="yes"/>
      <point x="982" y="1072"/>
      <point x="1102" y="981"/>
      <point x="1102" y="764" type="curve" smooth="yes"/>
      <point x="1102" y="42" type="line"/>
      <point x="886" y="42" type="line"/>
    </contour>
    <contour>
      <point x="100" y="0" type="line"/>
      <point x="580" y="0" type="line"/>
      <point x="580" y="42" type="line"/>
      <point x="364" y="42" type="line"/>
      <point x="364" y="710" type="line"/>
      <point x="360" y="710" type="line"/>
      <point x="360" y="1100" type="line"/>
      <point x="122" y="1100" type="line"/>
      <point x="122" y="1058" type="line"/>
      <point x="316" y="1058" type="line"/>
      <point x="316" y="42" type="line"/>
      <point x="100" y="42" type="line"/>
    </contour>
    <contour>
      <point x="648" y="1250" type="line"/>
      <point x="699" y="1250" type="line"/>
      <point x="952" y="1560" type="line"/>
      <point x="892" y="1560" type="line"/>
    </contour>
  </outline>
</glyph>
<glyph name="Ncommaaccent" format="2">
  <advance width="1783"/>
  <unicode hex="0145"/>
  <anchor x="902" y="0" name="bottom"/>
  <anchor x="912" y="1500" name="top"/>
  <outline>
    <contour>
      <point x="1446" y="0" type="line"/>
      <point x="1450" y="74" type="line"/>
      <point x="358" y="1500" type="line"/>
      <point x="354" y="1426" type="line"/>
    </contour>
    <contour>
      <point x="72" y="0" type="line"/>
      <point x="613" y="0" type="line"/>
      <point x="613" y="42" type="line"/>
      <point x="354" y="42" type="line"/>
      <point x="354" y="1426" type="line"/>
      <point x="358" y="1500" type="line"/>
      <point x="77" y="1500" type="line"/>
      <point x="77" y="1458" type="line"/>
      <point x="310" y="1458" type="line"/>
      <point x="310" y="42" type="line"/>
      <point x="72" y="42" type="line"/>
    </contour>
    <contour>
      <point x="1446" y="0" type="line"/>
      <point x="1494" y="0" type="line"/>
      <point x="1494" y="1458" type="line"/>
      <point x="1727" y="1458" type="line"/>
      <point x="1727" y="1500" type="line"/>
      <point x="1195" y="1500" type="line"/>
      <point x="1195" y="1458" type="line"/>
      <point x="1450" y="1458" type="line"/>
      <point x="1450" y="74" type="line"/>
      <point x="1440" y="74" type="line"/>
    </contour>
    <contour>
      <point x="852" y="-460" type="curve"/>
      <point x="895" y="-460" type="line"/>
      <point x="945" y="-396"/>
      <point x="962" y="-338"/>
      <point x="962" y="-283" type="curve" smooth="yes"/>
      <point x="962" y="-230"/>
      <point x="936" y="-202"/>
      <point x="900" y="-202" type="curve" smooth="yes"/>
      <point x="868" y="-202"/>
      <point x="842" y="-223"/>
      <point x="842" y="-261" type="curve" smooth="yes"/>
      <point x="842" y="-301"/>
      <point x="877" y="-322"/>
      <point x="919" y="-314" type="curve"/>
      <point x="914" y="-361"/>
      <point x="895" y="-405"/>
    </contour>
  </outline>
</glyph>
<glyph name="ncommaaccent" format="2">
  <advance width="1410"/>
  <unicode hex="0146"/>
  <anchor x="703" y="0" name="bottom"/>
  <anchor x="705" y="1100" name="top"/>
  <outline>
    <contour>
      <point x="886" y="0" type="line"/>
      <point x="1336" y="0" type="line"/>
      <point x="1336" y="42" type="line"/>
      <point x="1150" y="42" type="line"/>
      <point x="1150" y="764" type="line" smooth="yes"/>
      <point x="1150" y="1018"/>
      <point x="1002" y="1116"/>
      <point x="792" y="1116" type="curve" smooth="yes"/>
      <point x="550" y="1116"/>
      <point x="328" y="954"/>
      <point x="328" y="552" type="curve"/>
      <point x="364" y="552" type="line"/>
      <point x="364" y="911"/>
      <point x="570" y="1072"/>
      <point x="790" y="1072" type="curve" smooth="yes"/>
      <point x="982" y="1072"/>
      <point x="1102" y="981"/>
      <point x="1102" y="764" type="curve" smooth="yes"/>
      <point x="1102" y="42" type="line"/>
      <point x="886" y="42" type="line"/>
    </contour>
    <contour>
      <point x="100" y="0" type="line"/>
      <point x="580" y="0" type="line"/>
      <point x="580" y="42" type="line"/>
      <point x="364" y="42" type="line"/>
      <point x="364" y="710" type="line"/>
      <point x="360" y="710" type="line"/>
      <point x="360" y="1100" type="line"/>
      <point x="122" y="1100" type="line"/>
      <point x="122" y="1058" type="line"/>
      <point x="316" y="1058" type="line"/>
      <point x="316" y="42" type="line"/>
      <point x="100" y="42" type="line"/>
    </contour>
    <contour>
      <point x="653" y="-460" type="curve"/>
      <point x="696" y="-460" type="line"/>
      <point x="746" y="-396"/>
      <point x="763" y="-338"/>
      <point x="763" y="-283" type="curve" smooth="yes"/>
      <point x="763" y="-230"/>
      <point x="737" y="-202"/>
      <point x="701" y="-202" type="curve" smooth="yes"/>
      <point x="669" y="-202"/>
      <point x="643" y="-223"/>
      <point x="643" y="-261" type="curve" smooth="yes"/>
      <point x="643" y="-301"/>
      <point x="678" y="-322"/>
      <point x="720" y="-314" type="curve"/>
      <point x="715" y="-361"/>
      <point x="696" y="-405"/>
    </contour>
  </outline>
</glyph>
<glyph name="Ncaron" format="2">
  <advance width="1783"/>
  <unicode hex="0147"/>
  <anchor x="902" y="0" name="bottom"/>
  <anchor x="912" y="1500" name="top"/>
  <outline>
    <contour>
      <point x="1446" y="0" type="line"/>
      <point x="1450" y="74" type="line"/>
      <point x="358" y="1500" type="line"/>
      <point x="354" y="1426" type="line"/>
    </contour>
    <contour>
      <point x="72" y="0" type="line"/>
      <point x="613" y="0" type="line"/>
      <point x="613" y="42" type="line"/>
      <point x="354" y="42" type="line"/>
      <point x="354" y="1426" type="line"/>
      <point x="358" y="1500" type="line"/>
      <point x="77" y="1500" type="line"/>
      <point x="77" y="1458" type="line"/>
      <point x="310" y="1458" type="line"/>
      <point x="310" y="42" type="line"/>
      <point x="72" y="42" type="line"/>
    </contour>
    <contour>
      <point x="1446" y="0" type="line"/>
      <point x="1494" y="0" type="line"/>
      <point x="1494" y="1458" type="line"/>
      <point x="1727" y="1458" type="line"/>
      <point x="1727" y="1500" type="line"/>
      <point x="1195" y="1500" type="line"/>
      <point x="1195" y="1458" type="line"/>
      <point x="1450" y="1458" type="line"/>
      <point x="1450" y="74" type="line"/>
      <point x="1440" y="74" type="line"/>
    </contour>
    <contour>
      <point x="892" y="1650" type="line"/>
      <point x="932" y="1650" type="line"/>
      <point x="1178" y="1960" type="line"/>
      <point x="1128" y="1960" type="line"/>
      <point x="901" y="1677" type="line"/>
      <point x="926" y="1677" type="line"/>
      <point x="697" y="1960" type="line"/>
      <point x="646" y="1960" type="line"/>
    </contour>
  </outline>
</glyph>
<glyph name="Eng" format="2">
  <advance width="1775"/>
  <unicode hex="014A"/>
  <outline>
    <contour>
      <point x="72" y="0" type="line"/>
      <point x="613" y="0" type="line"/>
      <point x="613" y="42" type="line"/>
      <point x="354" y="42" type="line"/>
      <point x="354" y="1426" type="line"/>
      <point x="358" y="1500" type="line"/>
      <point x="77" y="1500" type="line"/>
      <point x="77" y="1458" type="line"/>
      <point x="310" y="1458" type="line"/>
      <point x="310" y="42" type="line"/>
      <point x="72" y="42" type="line"/>
    </contour>
    <contour>
      <point x="1465" y="-35" type="line"/>
      <point x="1442" y="74" type="line"/>
      <point x="358" y="1500" type="line"/>
      <point x="354" y="1426" type="line"/>
    </contour>
    <contour>
      <point x="1442" y="-140" type="line"/>
      <point x="1486" y="-140" type="line"/>
      <point x="1486" y="1458" type="line"/>
      <point x="1719" y="1458" type="line"/>
      <point x="1719" y="1500" type="line"/>
      <point x="1187" y="1500" type="line"/>
      <point x="1187" y="1458" type="line"/>
      <point x="1442" y="1458" type="line"/>
    </contour>
    <contour>
      <point x="1256" y="-420" type="curve"/>
      <point x="1256" y="-376" type="line"/>
      <point x="1149" y="-376"/>
      <point x="1085" y="-319"/>
      <point x="1087" y="-226" type="curve"/>
      <point x="1068" y="-241" type="line"/>
      <point x="1123" y="-246"/>
      <point x="1168" y="-228"/>
      <point x="1168" y="-181" type="curve" smooth="yes"/>
      <point x="1168" y="-149"/>
      <point x="1146" y="-129"/>
      <point x="1114" y="-129" type="curve" smooth="yes"/>
      <point x="1071" y="-129"/>
      <point x="1038" y="-164"/>
      <point x="1038" y="-221" type="curve" smooth="yes"/>
      <point x="1038" y="-354"/>
      <point x="1129" y="-420"/>
    </contour>
    <contour>
      <point x="1256" y="-376" type="curve"/>
      <point x="1256" y="-420" type="line"/>
      <point x="1407" y="-420"/>
      <point x="1486" y="-324"/>
      <point x="1486" y="-140" type="curve"/>
      <point x="1442" y="-140" type="line"/>
      <point x="1442" y="-298"/>
      <point x="1375" y="-376"/>
    </contour>
  </outline>
</glyph>
<glyph name="eng" format="2">
  <advance width="1392"/>
  <unicode hex="014B"/>
  <outline>
    <contour>
      <point x="1102" y="764" type="curve" smooth="yes"/>
      <point x="1102" y="-140" type="line"/>
      <point x="1150" y="-136" type="line"/>
      <point x="1150" y="764" type="line" smooth="yes"/>
      <point x="1150" y="1018"/>
      <point x="1002" y="1116"/>
      <point x="792" y="1116" type="curve" smooth="yes"/>
      <point x="550" y="1116"/>
      <point x="328" y="954"/>
      <point x="328" y="552" type="curve"/>
      <point x="364" y="552" type="line"/>
      <point x="364" y="911"/>
      <point x="570" y="1072"/>
      <point x="790" y="1072" type="curve" smooth="yes"/>
      <point x="982" y="1072"/>
      <point x="1102" y="981"/>
    </contour>
    <contour>
      <point x="916" y="-420" type="curve"/>
      <point x="916" y="-376" type="line"/>
      <point x="809" y="-376"/>
      <point x="745" y="-319"/>
      <point x="747" y="-226" type="curve"/>
      <point x="728" y="-241" type="line"/>
      <point x="783" y="-246"/>
      <point x="828" y="-228"/>
      <point x="828" y="-181" type="curve" smooth="yes"/>
      <point x="828" y="-149"/>
      <point x="806" y="-129"/>
      <point x="774" y="-129" type="curve" smooth="yes"/>
      <point x="731" y="-129"/>
      <point x="698" y="-164"/>
      <point x="698" y="-221" type="curve" smooth="yes"/>
      <point x="698" y="-354"/>
      <point x="789" y="-420"/>
    </contour>
    <contour>
      <point x="916" y="-376" type="curve"/>
      <point x="916" y="-420" type="line"/>
      <point x="1070" y="-420"/>
      <point x="1150" y="-323"/>
      <point x="1150" y="-136" type="curve"/>
      <point x="1102" y="-140" type="line"/>
      <point x="1102" y="-298"/>
      <point x="1035" y="-376"/>
    </contour>
    <contour>
      <point x="100" y="0" type="line"/>
      <point x="580" y="0" type="line"/>
      <point x="580" y="42" type="line"/>
      <point x="364" y="42" type="line"/>
      <point x="364" y="710" type="line"/>
      <point x="360" y="710" type="line"/>
      <point x="360" y="1100" type="line"/>
      <point x="122" y="1100" type="line"/>
      <point x="122" y="1058" type="line"/>
      <point x="316" y="1058" type="line"/>
      <point x="316" y="42" type="line"/>
      <point x="100" y="42" type="line"/>
    </contour>
  </outline>
</glyph>
<glyph name="obreve" format="2">
  <advance width="1336"/>
  <unicode hex="014F"/>
  <anchor x="668" y="0" name="bottom"/>
  <anchor x="921" y="0" name="ogonek"/>
  <anchor x="668" y="1500" name="side"/>
  <anchor x="668" y="1540" name="top"/>
  <anchor x="1086" y="940" name="topright"/>
  <outline>
    <contour>
      <point x="668" y="-16" type="curve" smooth="yes"/>
      <point x="982" y="-16"/>
      <point x="1202" y="190"/>
      <point x="1202" y="550" type="curve" smooth="yes"/>
      <point x="1202" y="910"/>
      <point x="982" y="1116"/>
      <point x="668" y="1116" type="curve" smooth="yes"/>
      <point x="354" y="1116"/>
      <point x="134" y="910"/>
      <point x="134" y="550" type="curve" smooth="yes"/>
      <point x="134" y="190"/>
      <point x="354" y="-16"/>
    </contour>
    <contour>
      <point x="668" y="28" type="curve" smooth="yes"/>
      <point x="380" y="28"/>
      <point x="182" y="224"/>
      <point x="182" y="550" type="curve" smooth="yes"/>
      <point x="182" y="876"/>
      <point x="380" y="1072"/>
      <point x="668" y="1072" type="curve" smooth="yes"/>
      <point x="956" y="1072"/>
      <point x="1154" y="876"/>
      <point x="1154" y="550" type="curve" smooth="yes"/>
      <point x="1154" y="224"/>
      <point x="956" y="28"/>
    </contour>
    <contour>
      <point x="668" y="1240" type="curve" smooth="yes"/>
      <point x="850" y="1240"/>
      <point x="938" y="1374"/>
      <point x="938" y="1560" type="curve"/>
      <point x="898" y="1560" type="line"/>
      <point x="898" y="1406"/>
      <point x="822" y="1278"/>
      <point x="668" y="1278" type="curve" smooth="yes"/>
      <point x="514" y="1278"/>
      <point x="448" y="1406"/>
      <point x="448" y="1560" type="curve"/>
      <point x="408" y="1560" type="line"/>
      <point x="408" y="1374"/>
      <point x="486" y="1240"/>
    </contour>
  </outline>
</glyph>
<glyph name="ohungarumlaut" format="2">
  <advance width="1336"/>
  <unicode hex="0151"/>
  <anchor x="668" y="0" name="bottom"/>
  <anchor x="921" y="0" name="ogonek"/>
  <anchor x="668" y="1100" name="top"/>
  <anchor x="1086" y="940" name="topright"/>
  <outline>
    <contour>
      <point x="668" y="-16" type="curve" smooth="yes"/>
      <point x="982" y="-16"/>
      <point x="1202" y="190"/>
      <point x="1202" y="550" type="curve" smooth="yes"/>
      <point x="1202" y="910"/>
      <point x="982" y="1116"/>
      <point x="668" y="1116" type="curve" smooth="yes"/>
      <point x="354" y="1116"/>
      <point x="134" y="910"/>
      <point x="134" y="550" type="curve" smooth="yes"/>
      <point x="134" y="190"/>
      <point x="354" y="-16"/>
    </contour>
    <contour>
      <point x="668" y="28" type="curve" smooth="yes"/>
      <point x="380" y="28"/>
      <point x="182" y="224"/>
      <point x="182" y="550" type="curve" smooth="yes"/>
      <point x="182" y="876"/>
      <point x="380" y="1072"/>
      <point x="668" y="1072" type="curve" smooth="yes"/>
      <point x="956" y="1072"/>
      <point x="1154" y="876"/>
      <point x="1154" y="550" type="curve" smooth="yes"/>
      <point x="1154" y="224"/>
      <point x="956" y="28"/>
    </contour>
    <contour>
      <point x="775" y="1250" type="line"/>
      <point x="826" y="1250" type="line"/>
      <point x="1085" y="1560" type="line"/>
      <point x="1025" y="1560" type="line"/>
    </contour>
    <contour>
      <point x="496" y="1250" type="line"/>
      <point x="546" y="1250" type="line"/>
      <point x="792" y="1560" type="line"/>
      <point x="733" y="1560" type="line"/>
    </contour>
  </outline>
</glyph>
